<svg id="Layer_1" enable-background="new 0 0 512 512" height="512" viewBox="0 0 512 512" width="512" xmlns="http://www.w3.org/2000/svg"><g><g><path d="m347.968 294.658c-2.929 2.929-2.929 7.678 0 10.606l.028.028c1.461 1.461 3.371 2.19 5.282 2.19 1.92 0 3.842-.736 5.31-2.204 2.929-2.929 2.915-7.692-.014-10.621-2.928-2.928-7.678-2.928-10.606.001z"/><path d="m336.329 259.605c-3.706-1.853-8.21-.351-10.062 3.354-1.853 3.705-.351 8.21 3.354 10.062l.057.028c1.073.537 2.211.791 3.331.791 2.747 0 5.387-1.527 6.703-4.159 1.852-3.704.322-8.224-3.383-10.076z"/><path d="m134.575 304.126c-2.929 2.929-2.929 7.678 0 10.606l.028.028c1.461 1.461 3.371 2.19 5.282 2.19 1.92 0 3.842-.736 5.31-2.204 2.929-2.929 2.915-7.692-.014-10.621-2.928-2.928-7.677-2.928-10.606.001z"/><path d="m178.342 272.632c-2.929 2.929-2.929 7.678 0 10.606l.028.028c1.461 1.461 3.371 2.19 5.282 2.19 1.92 0 3.842-.736 5.31-2.204 2.929-2.929 2.915-7.692-.014-10.621-2.928-2.928-7.677-2.928-10.606.001z"/><path d="m499.482 332.487h-77.577c3.779-5.464 5.991-12.056 5.991-19.146v-22.662c3.964.186 7.607-.543 10.908-2.363 13.363-7.368 12.786-28.393 11.19-43.566-2.836-26.985-11.089-53.07-23.865-75.434-11.554-20.225-26.655-37.424-45.038-51.367-.018-.015-.035-.031-.053-.046-.028-.022-.057-.04-.085-.062-6.374-4.825-13.136-9.264-20.29-13.295-18.957-10.668-41.675-18.988-65.623-24.172-7.722-1.62-15.498-2.953-23.328-3.997-17.942-2.263-35.607-2.677-52.504-1.312-.111.008-.223.016-.333.029-15.573 1.281-30.493 4.071-44.346 8.377-39.281 12.208-68.609 36.142-84.811 69.211-4.002 8.157-7.673 17.08-11.56 26.526-9.67 23.506-20.63 50.148-42.634 81.399-9.06 12.868-3.624 20.947-.866 23.824 5.597 5.837 15.927 7.78 27.203 7.78 7.552 0 15.521-.875 22.78-2.032v23.163c0 7.091 2.212 13.682 5.991 19.146h-78.143c-6.886-.001-12.489 5.615-12.489 12.517v35.094c0 6.902 5.603 12.517 12.489 12.517h20.195v32.612c0 6.886 5.603 12.489 12.489 12.489h73.106c6.902 0 12.517-5.603 12.517-12.489v-32.612h105.801c4.142 0 7.5-3.358 7.5-7.5s-3.358-7.5-7.5-7.5h-221.597v-30.129h482v30.129h-225.48c-4.142 0-7.5 3.358-7.5 7.5s3.358 7.5 7.5 7.5h109.685v32.612c0 6.886 5.603 12.489 12.489 12.489h73.106c6.902 0 12.517-5.603 12.517-12.489v-32.612h20.166c6.902 0 12.518-5.615 12.518-12.517v-35.094c-.001-6.902-5.616-12.518-12.519-12.518zm-451.798 60.129h68.112v30.101h-68.112zm131.297-294.821c10.453-3.249 21.656-5.518 33.278-6.876v64.388c-9.791-16.402-23.544-31.644-38.767-41.606-5.21-3.41-10.323-5.992-15.287-7.753 6.52-3.147 13.449-5.877 20.776-8.153zm-42.747 21.537c10.254-3.775 22.525 2.653 29.043 6.919 23.441 15.341 44.184 47.187 46.72 70.671-11.526 5.844-20.399 13.897-29.942 23.106-.528-2.14-1.245-4.412-2.196-6.831-10.173-25.877-44.797-59.835-70.704-62.577-.395-.042-.782-.064-1.172-.091 7.298-12.028 16.793-22.49 28.251-31.197zm-44.203 65.582c2.339-5.685 4.597-11.173 6.874-16.357 1.316-1.787 3.553-3.561 8.672-3.02 18.249 1.931 49.317 30.244 58.322 53.148 1.674 4.257 3.917 11.949.507 16.239-7.621 6.909-16.412 14.119-27.437 21.225-.168.108-.356.215-.528.323-.367-6.752-2.873-13.483-7.523-19.818-10.636-14.489-30.854-24.409-50.046-25.608 4.254-9.35 7.849-18.086 11.159-26.132zm-9.34 90.389c-24.214 3.896-35.563.827-37.206-1.244.013-.347.206-1.836 2.305-4.817 10.795-15.332 19.121-29.79 25.899-43.2 16.35-1.328 35.919 6.929 45.138 19.488 4.656 6.342 5.817 12.696 3.486 18.922-11.687 4.699-25.779 8.623-39.622 10.851zm202.589 57.184h-58.021v-38.422c0-4.142-3.358-7.5-7.5-7.5s-7.5 3.358-7.5 7.5v38.422h-92.875c-11.07 0-19.741-8.41-19.741-19.146v-26.12c18.533-4.362 35.965-11.079 47.445-18.459 18.727-12.069 31.164-24.143 42.136-34.795 8.17-7.932 15.131-14.676 23.035-19.871v46.378c0 4.142 3.358 7.5 7.5 7.5s7.5-3.358 7.5-7.5v-170.799c19.028-.92 38.795.489 58.021 4.067zm108.07-139.395c.783-15.423 1.539-30.432.431-43.263 29.815 33.156 38.754 72.306 41.295 96.489 2.548 24.221-2.48 28.291-3.514 28.861-.947.522-3.264 1.085-8.358-.625-.229-.093-.463-.174-.703-.244-3.281-1.178-7.631-3.25-13.382-6.759-2.195-1.339-4.46-2.806-6.783-4.374-12.064-9.346-10.432-41.602-8.986-70.085zm-40.047-75.475c6.604 3.721 12.677 7.717 18.274 11.92.026.022.049.046.076.068 9.512 7.628 8.027 36.9 6.716 62.727-.952 18.757-1.915 37.859.556 53.559-5.179-4.032-10.33-8.105-15.484-12.172-3.265-2.59-6.53-5.181-9.794-7.773-.055-2.198-.108-4.424-.16-6.707-.796-35.102-1.828-80.391-22.72-112.36 7.87 3.175 15.434 6.742 22.536 10.738zm-53.023-20.609c.372.093.738.2 1.109.295 33.409 24.183 36.005 76.575 36.98 117.002-11.586-8.336-24.175-15.981-38.089-20.678zm112.616 216.333c0 10.736-8.671 19.146-19.741 19.146h-92.875v-122.86c17.775 7.177 33.859 19.954 48.297 31.446 1.881 1.498 3.74 2.978 5.581 4.428l3.723 2.936c21.208 16.729 39.729 31.329 55.015 38.159zm51.42 109.376h-68.112v-30.101h68.112z"/></g></g></svg>