<svg id="Layer_1" enable-background="new 0 0 512 512" height="512" viewBox="0 0 512 512" width="512" xmlns="http://www.w3.org/2000/svg"><g><g><path d="m510.26 349.398c-3.482-5.172-10.195-5.172-14.206-5.172h-36.531c7.231-13.001 11.005-27.557 11.005-42.791 0-41.705-29.047-76.75-67.972-85.975 4.348-10.448 6.682-21.695 6.796-33.033.271-23.599-8.669-45.892-25.173-62.771-.995-1.018-2.013-2.006-3.048-2.969l33.569-55.388c2.124.554 4.306.845 6.507.845 2.085 0 4.187-.252 6.265-.761 6.776-1.661 12.499-5.859 16.112-11.817 3.631-5.975 4.713-13.004 3.047-19.791-1.664-6.774-5.866-12.498-11.831-16.116-5.963-3.616-12.981-4.694-19.768-3.034-6.786 1.66-12.516 5.859-16.139 11.832-6.109 10.107-4.552 22.736 2.979 31.069l-32.642 53.859c-13.937-9.117-30.184-14.118-47.231-14.302-.338-.004-.672-.006-1.009-.006-24.73 0-48.359 10.502-65.005 28.563-15.933-17.315-38.678-28.283-63.997-28.557-23.616-.238-45.905 8.689-62.776 25.185-16.874 16.498-26.307 38.58-26.561 62.173-.139 12.052 2.196 23.973 6.786 35.002-10.969 2.587-21.358 7.272-30.703 13.91-3.376 2.399-4.169 7.081-1.771 10.458 2.399 3.377 7.079 4.17 10.458 1.771 12.43-8.83 27.093-13.497 42.402-13.497 20.462 0 39.648 8.383 53.478 23.176-9.868 14.272-15.216 30.791-15.638 47.839-4.369 4.473-8.82 8.214-12.7 8.322-2.985.057-6.534-1.878-10.664-5.829-1.657-1.582-8.499-9.388-12.673-12.36-10.921-7.785-24.94-6.105-36.591 4.393-15.352 13.841-23.144 10.067-33.926 4.846-1.456-.705-2.939-1.418-4.456-2.093.752-10.927 3.929-21.579 9.308-31.078 2.041-3.605.773-8.181-2.83-10.223-3.606-2.041-8.181-.774-10.223 2.831-7.48 13.209-11.434 28.26-11.434 43.526 0 15.234 3.774 29.79 11.006 42.791h-36.529c-4.015 0-10.735 0-14.214 5.168-3.465 5.146-.949 11.343.713 15.438l33.135 81.833c1.99 4.936 7.278 18.048 25.468 18.048h9.537v11.21c0 14.453 11.757 26.211 26.21 26.211h318.407c14.453 0 26.21-11.758 26.21-26.211v-11.21h9.537c18.19 0 23.477-13.112 25.464-18.038l33.136-81.837c1.662-4.096 4.175-10.287.706-15.44zm-98.535-319.171c1.538-2.536 3.979-4.323 6.872-5.03.888-.218 1.786-.325 2.677-.325 2.011 0 3.987.548 5.746 1.614h.001c2.543 1.542 4.333 3.981 5.042 6.867.709 2.888.248 5.88-1.302 8.429-1.538 2.538-3.975 4.324-6.86 5.031s-5.871.249-8.417-1.295c-5.25-3.174-6.934-10.038-3.759-15.291zm43.715 267.745c-4.218 3.806-12.544 11.078-22.624 10.37-7.254-.516-14.615-5.207-21.873-13.933-3.301-3.98-12.369-13.353-25.257-14.422-8.662-.72-17.036 2.357-24.892 9.149-7.782 6.749-13.023 10.255-16.451 12.074-.005-4.415-.338-8.845-1.017-13.253-.005-.036-.012-.071-.018-.106-.001-.006-.002-.012-.003-.018-2.088-13.368-7.101-25.803-14.58-36.612 13.857-14.768 33.034-23.135 53.453-23.135 39.285-.001 71.447 31.043 73.262 69.886zm-1.751 19.9c-2.147 9.456-6.165 18.358-11.925 26.355h-108.495c4.583-8.299 7.805-17.267 9.548-26.534 7.236-1.517 16.078-7.053 27.798-17.217 4.684-4.049 9.343-5.91 13.832-5.54 7.218.599 12.86 6.527 14.957 9.056 9.979 11.997 20.862 18.494 32.348 19.312.821.059 1.631.086 2.432.086 7.542 0 14.167-2.491 19.505-5.518zm-138.119 26.355h-119.162c-4.04-5.618-7.263-11.804-9.572-18.353 5.497 1.728 12.082 3.215 18.823 3.215 1.614 0 3.239-.085 4.857-.273 20.026-2.319 26.958-14.501 32.348-26.791 1.063-2.438 2.948-5.5 5.893-6.25 2.967-.756 7.126.717 11.398 4.039 1.497 1.165 3.246 2.936 5.099 4.81 5.942 6.015 13.322 13.498 23.524 12.423 7.405-.784 14.097-6.007 20.46-15.964 4.252-6.649 13.521-8.292 19.774-6.697 1.685 17.629-3.103 35.421-13.442 49.841zm78.783-161.96c-.107 10.709-2.592 21.318-7.218 30.96-1.641-.091-3.292-.142-4.956-.142-23.968 0-46.51 9.57-63.085 26.512-3.345-3.398-6.972-6.564-10.895-9.436-10.679-7.819-22.706-13.039-35.324-15.483 1.612-3.989 2.941-8.09 3.959-12.271 9.445-1.16 17.479-5.154 36.864-26.171 2.642-2.856 6.574-6.22 10.375-6.116 3.479.109 6.8 3.316 8.971 5.983 9.906 12.185 19.828 18.378 30.334 18.931 13.047.694 23.18-7.654 30.944-15.159.017.796.041 1.591.031 2.392zm-73.36-74.188c.278 0 .558.001.837.005 19.589.211 37.922 8.046 51.624 22.06 8.734 8.933 14.903 19.695 18.18 31.399-1.519 1.392-3.062 2.924-4.651 4.506-6.804 6.77-14.536 14.436-22.815 14.005-5.947-.313-12.502-4.827-19.487-13.418-6.03-7.407-12.804-11.279-20.135-11.51-7.569-.236-14.937 3.437-21.867 10.933-12.472 13.521-18.582 18.451-23.472 20.378.075-1.336.13-2.674.144-4.015.193-17.92-4.989-34.666-14.033-48.71 13.885-16.168 34.282-25.633 55.675-25.633zm-181.294 20.915c14.008-13.696 32.558-21.109 52.127-20.911 35.813.387 65.412 26.552 71.402 60.654-37.195 21.14-65.992 7.857-91.504-3.921-16.317-7.534-33.038-15.242-48.872-10.592 3.738-9.376 9.412-17.96 16.847-25.23zm-9.874 84.091c-1.66 0-3.31.062-4.956.152-4.863-10.118-7.348-21.302-7.217-32.628.024-2.212.158-4.404.374-6.578 12.093-11.077 24.878-5.998 47.411 4.405 16.029 7.4 35.578 16.426 58.502 16.426 12.451 0 25.902-2.678 40.317-9.714-.482 9.694-2.894 19.233-7.061 27.96-4.873-.055-9.783.268-14.695 1.027-19.11 2.946-36.334 11.856-49.608 25.453-16.546-16.937-39.079-26.503-63.067-26.503zm66.978 45.028c11.579-15.814 28.618-26.167 47.986-29.152 19.364-2.999 38.738 1.727 54.548 13.303 12.625 9.244 21.759 21.979 26.459 36.593-10.893-.432-22.776 4.106-29.198 14.147-5.029 7.872-8.248 9.005-9.399 9.126-3.028.312-7.592-4.321-11.275-8.048-2.108-2.134-4.288-4.34-6.559-6.108-8.076-6.279-16.709-8.669-24.31-6.736-4.87 1.24-11.59 4.813-15.936 14.776-5.064 11.549-9.008 16.589-20.33 17.901-9.359 1.089-20.192-3.107-25.806-5.453-.198-2.03-.311-4.056-.342-6.076.009-.268.003-.535-.016-.802-.063-15.558 4.812-30.679 14.178-43.471zm-91.723 46.655c2.988-2.692 10.704-8.406 17.843-3.318 2.75 1.959 8.88 8.953 11.014 10.99 7.018 6.715 13.835 9.987 20.82 9.987.208 0 .417-.003.626-.009 5.122-.143 9.661-2.061 13.751-4.819 1.749 9.372 4.994 18.369 9.557 26.628h-108.457c-6.673-9.263-11.007-19.742-12.803-30.887 11.393 5.334 26.611 10.398 47.649-8.572zm321.335 171.155c0 6.181-5.029 11.21-11.209 11.21h-318.407c-6.181 0-11.209-5.029-11.209-11.21v-11.21h340.825zm60.286-94.616h-212.981c-4.143 0-7.5 3.358-7.5 7.5s3.358 7.5 7.5 7.5h206.907l-18.119 44.748c-2.413 5.987-4.654 8.657-11.555 8.657h-389.901c-6.901 0-9.142-2.671-11.559-8.667l-18.115-44.738h207.361c4.143 0 7.5-3.358 7.5-7.5s-3.358-7.5-7.5-7.5h-213.435l-8.94-22.08h50.128.009.006 429.135z"/><path d="m177.015 147.831.057.028c1.073.537 2.212.791 3.332.791 2.746 0 5.387-1.527 6.702-4.159 1.853-3.705.322-8.224-3.382-10.077-3.707-1.853-8.211-.351-10.063 3.354-1.853 3.705-.351 8.211 3.354 10.063z"/><path d="m213.392 157.964c1.462 1.461 3.371 2.19 5.283 2.19 1.92 0 3.842-.736 5.31-2.204 2.929-2.929 2.915-7.692-.014-10.621-2.93-2.929-7.678-2.929-10.608 0-2.929 2.929-2.929 7.678 0 10.607z"/><path d="m97.834 277.597c1.922 0 3.846-.739 5.318-2.211 2.929-2.929 2.9-7.706-.028-10.635-2.93-2.929-7.678-2.929-10.608 0-2.929 2.929-2.929 7.678 0 10.607l.057.057c1.457 1.457 3.358 2.182 5.261 2.182z"/><path d="m135.105 264.11c1.92 0 3.842-.736 5.31-2.204 2.929-2.929 2.915-7.692-.014-10.621-2.93-2.929-7.678-2.929-10.608 0-2.929 2.929-2.929 7.678 0 10.607l.028.028c1.463 1.461 3.372 2.19 5.284 2.19z"/><path d="m375.84 249.54c-3.706-1.853-8.211-.351-10.063 3.354-1.853 3.705-.351 8.21 3.354 10.062l.057.028c1.073.537 2.212.791 3.332.791 2.746 0 5.387-1.527 6.702-4.159 1.853-3.705.322-8.224-3.382-10.076z"/><path d="m416.075 276.96.057.028c1.073.537 2.212.791 3.332.791 2.746 0 5.387-1.527 6.702-4.159 1.853-3.705.322-8.224-3.382-10.077-3.707-1.854-8.212-.35-10.063 3.354-1.853 3.706-.35 8.211 3.354 10.063z"/><path d="m234.165 263.466.057.028c1.073.537 2.212.791 3.332.791 2.746 0 5.387-1.527 6.702-4.159 1.853-3.705.322-8.224-3.382-10.077-3.706-1.854-8.211-.35-10.063 3.354-1.852 3.706-.35 8.211 3.354 10.063z"/><path d="m275.78 266.755.057.028c1.073.537 2.212.791 3.332.791 2.746 0 5.387-1.527 6.702-4.159 1.853-3.705.322-8.224-3.382-10.077-3.706-1.853-8.211-.351-10.063 3.354s-.35 8.211 3.354 10.063z"/><path d="m203.471 289.106c1.462 1.461 3.371 2.19 5.283 2.19 1.92 0 3.842-.736 5.31-2.204 2.929-2.929 2.915-7.692-.014-10.621-2.93-2.929-7.678-2.929-10.608 0-2.929 2.929-2.929 7.678 0 10.607z"/><path d="m294.638 142.826c1.462 1.461 3.371 2.19 5.283 2.19 1.92 0 3.842-.736 5.31-2.204 2.929-2.929 2.915-7.692-.014-10.621-2.93-2.929-7.678-2.929-10.608 0-2.929 2.929-2.929 7.678 0 10.607z"/><path d="m351.334 149.204c1.462 1.461 3.371 2.19 5.283 2.19 1.92 0 3.842-.736 5.31-2.204 2.929-2.929 2.915-7.692-.014-10.621-2.93-2.929-7.678-2.929-10.608 0-2.929 2.929-2.929 7.678 0 10.607z"/></g></g></svg>