<svg id="Layer_1" enable-background="new 0 0 512 512" height="512" viewBox="0 0 512 512" width="512" xmlns="http://www.w3.org/2000/svg"><g><path d="m319.555 122.281v-10.864c0-12.956-10.54-23.496-23.496-23.496h-6.567v-5.433c0-15.884-11.132-29.209-26.007-32.623v-42.365c0-4.142-3.358-7.5-7.5-7.5s-7.5 3.358-7.5 7.5v42.366c-14.859 3.416-25.978 16.74-25.978 32.621v5.433h-6.567c-12.956 0-23.496 10.54-23.496 23.496v10.868c-26.068 10.414-48.443 27.409-63.399 48.262-2.414 3.366-1.642 8.052 1.724 10.466 1.324.949 2.852 1.406 4.365 1.406 2.335 0 4.636-1.087 6.101-3.129 12.618-17.595 31.302-32.135 53.189-41.573-22.801 23.273-36.636 58.776-36.636 97.044 0 34.248 11.049 66.565 30.155 89.837h-8.006c-35.764-20.545-57.065-53.996-57.065-89.837 0-8.34 1.146-16.657 3.408-24.719 1.119-3.988-1.207-8.128-5.195-9.247-3.991-1.117-8.128 1.208-9.247 5.195-2.631 9.381-3.966 19.06-3.966 28.77 0 40.602 23.3 78.318 62.564 101.673v29.272c0 6.966 5.667 12.633 12.633 12.633h17.373v23.386c0 4.142 3.358 7.5 7.5 7.5s7.5-3.358 7.5-7.5v-23.386h33.043v21.832c-12.952 3.35-22.547 15.136-22.547 29.121 0 5.354 1.416 10.382 3.883 14.74l-14.944 38.237c-3.147 6.572-2.362 11.214 2.68 15.963 9.615 9.027 22.318 13.768 36.834 13.767.528 0 1.061-.006 1.594-.019 15.193.37 28.492-4.393 38.466-13.756 5.033-4.741 5.818-9.382 2.67-15.954l-14.943-38.234c2.466-4.359 3.881-9.388 3.881-14.744 0-14.003-9.61-25.801-22.575-29.134v-21.819h33.071v23.386c0 4.142 3.358 7.5 7.5 7.5s7.5-3.358 7.5-7.5v-23.386h17.373c6.966 0 12.633-5.667 12.633-12.633v-29.284c14.028-8.354 26.094-18.538 35.901-30.328 2.649-3.185 2.214-7.913-.97-10.562-3.185-2.648-7.914-2.215-10.562.97-9.13 10.977-20.518 20.419-33.86 28.097h-8.015c19.106-23.271 30.155-55.588 30.155-89.837 0-38.278-13.842-73.788-36.652-97.061 43.752 18.794 71.567 56.12 71.567 97.061 0 11.261-2.055 22.312-6.108 32.843-1.488 3.866.44 8.206 4.306 9.693.886.341 1.796.502 2.692.502 3.012 0 5.854-1.829 7.001-4.808 4.717-12.258 7.109-25.121 7.109-38.231.002-48.269-33.015-91.924-84.57-112.478zm-82.048-39.793c0-10.189 8.289-18.479 18.478-18.479 10.205 0 18.507 8.29 18.507 18.479v5.433h-36.985zm-30.062 28.928c0-4.685 3.811-8.496 8.496-8.496h14.067 51.985 14.067c4.685 0 8.496 3.811 8.496 8.496v8.524h-97.11v-8.524zm58.466 23.525c10.763 18.745 17.855 57.918 17.855 99.819 0 35.605-4.884 68.643-13.17 89.837h-29.193c-8.286-21.194-13.17-54.231-13.17-89.837 0-41.901 7.092-81.075 17.855-99.819zm-93.123 99.819c0-43.15 19.221-82.065 49.11-99.819h7.429c-10.073 22.636-16.093 59.133-16.093 99.819 0 34.468 4.496 66.97 12.228 89.837h-16.959c-22.41-20.573-35.715-53.913-35.715-89.837zm110.507 253.335c-6.98 6.103-16.329 9.165-27.11 8.885-.133-.002-.265-.002-.398 0-10.761.284-20.11-2.785-27.082-8.885.012-.029.024-.059.035-.088l12.684-32.454c4.324 2.408 9.299 3.785 14.591 3.785 5.282 0 10.247-1.375 14.565-3.779l12.681 32.447c.01.03.022.059.034.089zm-12.234-58.804c0 8.297-6.75 15.047-15.047 15.047-8.313 0-15.075-6.75-15.075-15.047 0-8.313 6.763-15.076 15.075-15.076 8.297.001 15.047 6.763 15.047 15.076zm55.502-89.694v23.742h-141.126v-23.742zm12.649-104.837c0 35.924-13.305 69.264-35.714 89.837h-16.959c7.733-22.866 12.228-55.369 12.228-89.837 0-40.686-6.02-77.183-16.093-99.819h7.429c29.888 17.754 49.109 56.669 49.109 99.819z"/></g></svg>