<svg id="Layer_1" enable-background="new 0 0 512 512" height="512" viewBox="0 0 512 512" width="512" xmlns="http://www.w3.org/2000/svg"><g><g><path d="m337.443 77.429c-2.106 0-4.201-.883-5.685-2.604-2.704-3.138-2.352-7.874.786-10.577 1.75-1.565 10.3-10.176 1.896-21.783-6.499-8.959-8.653-17.607-6.4-25.699 1.876-6.739 6.359-11.141 8.769-13.506.331-.325.627-.61.859-.861 2.817-3.036 7.563-3.213 10.6-.395 3.036 2.818 3.212 7.563.395 10.6-.366.395-.824.849-1.345 1.36-4.112 4.037-8.772 8.613-.731 19.7 13.504 18.65 3.125 35.594-4.25 41.948-1.417 1.219-3.159 1.817-4.894 1.817z"/></g><g><path d="m272.508 77.429c-2.106 0-4.201-.883-5.685-2.604-2.704-3.138-2.353-7.874.786-10.578 1.75-1.565 10.299-10.175 1.895-21.783-6.498-8.959-8.652-17.606-6.4-25.698 1.876-6.739 6.359-11.141 8.768-13.506.332-.326.627-.611.859-.862 2.817-3.037 7.563-3.213 10.6-.396 3.036 2.817 3.214 7.563.396 10.599-.367.395-.824.849-1.346 1.361-4.111 4.037-8.771 8.613-.731 19.699 13.504 18.649 3.126 35.593-4.249 41.948-1.417 1.222-3.159 1.82-4.893 1.82z"/></g><g><path d="m207.572 77.429c-2.107 0-4.202-.883-5.685-2.604-2.704-3.138-2.352-7.874.786-10.577 1.75-1.565 10.3-10.176 1.895-21.783-6.498-8.959-8.652-17.607-6.4-25.699 1.876-6.739 6.359-11.141 8.768-13.506.332-.325.626-.61.86-.861 2.817-3.036 7.563-3.213 10.599-.395 3.036 2.817 3.213 7.563.395 10.599-.366.395-.824.849-1.345 1.361-4.111 4.037-8.772 8.613-.731 19.699 13.504 18.65 3.125 35.593-4.249 41.948-1.417 1.22-3.159 1.818-4.893 1.818z"/></g><path d="m407.678 452.308h-45.819v-20.35c25.738-13.949 42.125-41.073 42.125-70.416v-247.344c0-6.592-5.363-11.955-11.955-11.955h-239.076c-6.592 0-11.955 5.363-11.955 11.955v34.993c0 4.142 3.358 7.5 7.5 7.5s7.5-3.358 7.5-7.5v-31.948h232.985v38.236h-173.716c-4.142 0-7.5 3.358-7.5 7.5s3.358 7.5 7.5 7.5h173.717v91.528h-173.717c-4.142 0-7.5 3.358-7.5 7.5s3.358 7.5 7.5 7.5h173.717v84.535c0 2.351-.132 4.685-.386 6.993h-136.353c-.059-.238-.105-.477-.166-.715-2.647-10.278-7.728-13.424-18.13-11.217-19.24 4.098-36.014 13.944-48.266 28.099-.383-.529-.766-1.058-1.159-1.581-7.856-10.462-17.521-19.167-28.526-25.867v-26.982h173.717c4.143 0 7.5-3.358 7.5-7.5s-3.357-7.5-7.5-7.5h-173.717v-91.528h173.717c4.143 0 7.5-3.358 7.5-7.5s-3.357-7.5-7.5-7.5h-173.717v-25.124c0-4.142-3.358-7.5-7.5-7.5s-7.5 3.358-7.5 7.5v166.086c-8.938-3.633-18.502-6.107-28.507-7.311-12.122-1.467-17.109 2.283-19.076 14.338-4.735 29.2 2.053 57.792 19.123 80.523 4.162 5.518 8.811 10.54 13.91 15.053h-9.192c-6.825 0-12.378 5.553-12.378 12.378v17.454c0 16.465 13.395 29.86 29.86 29.86h255.486c16.449 0 29.831-13.396 29.831-29.86v-17.454c.001-6.826-5.552-12.379-12.377-12.379zm-152.978-68.773h130.392c-5.654 15.543-17.157 28.73-32.442 36.318h-102.737c4.18-11.492 5.79-23.818 4.787-36.318zm-17.632-12.26c.136-.029.266-.056.389-.082.031.116.063.238.096.367 5.062 19.663 2.233 39.545-7.965 55.986-6.074 9.799-14.542 17.939-24.627 23.738.976-18.691-2.808-36.861-10.985-52.994 10.285-13.716 25.422-23.251 43.092-27.015zm-112.546 56.961c-14.588-19.426-20.377-43.967-16.302-69.095.144-.878.27-1.552.378-2.068.526.04 1.209.106 2.094.213 25.289 3.042 47.249 15.416 61.842 34.848 12.842 17.063 18.871 38.22 17.316 60.174h-37.406c-11.001-6.026-20.404-14.105-27.922-24.072zm280.534 53.904c0 8.194-6.653 14.86-14.831 14.86h-255.487c-8.194 0-14.86-6.667-14.86-14.86v-14.832h30.59c.008 0 .017.001.025.001.004 0 .007-.001.011-.001h107.986c4.143 0 7.5-3.358 7.5-7.5s-3.357-7.5-7.5-7.5h-29.934c5.287-4.994 9.93-10.647 13.779-16.856.122-.197.23-.401.35-.599h104.172v17.455h-53.939c-4.143 0-7.5 3.358-7.5 7.5s3.357 7.5 7.5 7.5h112.137v14.832z"/></g></svg>