<svg id="Layer_1" enable-background="new 0 0 512 512" height="512" viewBox="0 0 512 512" width="512" xmlns="http://www.w3.org/2000/svg"><g><g><path d="m158.275 404.641c6.136 0 11.128-4.992 11.128-11.128v-103.695c0-6.136-4.992-11.128-11.128-11.128h-68.173c-6.136 0-11.128 4.992-11.128 11.128v103.694c0 6.136 4.992 11.128 11.128 11.128h68.173zm-64.301-110.951h60.43v95.951h-22.7v-23.184h6.616c4.143 0 7.5-3.358 7.5-7.5s-3.357-7.5-7.5-7.5h-28.262c-4.143 0-7.5 3.358-7.5 7.5s3.357 7.5 7.5 7.5h6.646v23.184h-22.73z"/><path d="m421.898 405.151c6.136 0 11.128-4.992 11.128-11.128v-103.694c0-6.136-4.992-11.128-11.128-11.128h-68.202c-6.136 0-11.128 4.992-11.128 11.128v103.694c0 6.136 4.992 11.128 11.128 11.128zm-64.33-110.951h60.458v95.951h-22.729v-23.184h6.617c4.143 0 7.5-3.358 7.5-7.5s-3.357-7.5-7.5-7.5h-28.233c-4.143 0-7.5 3.358-7.5 7.5s3.357 7.5 7.5 7.5h6.616v23.184h-22.729z"/><path d="m499.596 426.011h-21.017v-250.658c6.316-2.699 11.753-6.338 16.252-10.934 12.257-12.518 17.694-31.208 17.11-58.814-.198-9.652-4.002-13.412-13.564-13.412h-19.644c-31.027-11.053-53.647-28.513-67.222-51.953-1.956-3.353-5.8-7.35-12.998-7.35h-284.657c-7.241 0-11.065 4.025-12.979 7.365-13.598 23.434-36.219 40.896-67.214 51.938h-19.643c-9.581 0-13.393 3.76-13.593 13.414-.563 27.622 4.886 46.315 17.146 58.829 4.397 4.487 9.69 8.059 15.819 10.737v109.657c0 4.142 3.357 7.5 7.5 7.5s7.5-3.358 7.5-7.5v-105.209c5.3.952 11.016 1.445 17.161 1.445h22.944v21.905c-11.171 3.255-19.36 13.58-19.36 25.788 0 14.812 12.05 26.861 26.86 26.861s26.86-12.05 26.86-26.861c0-12.208-8.189-22.533-19.36-25.788v-21.905h64.994v21.904c-11.172 3.255-19.361 13.58-19.361 25.788 0 14.812 12.05 26.861 26.861 26.861s26.86-12.05 26.86-26.861c0-12.208-8.189-22.533-19.36-25.788v-21.905h64.993v21.905c-11.171 3.255-19.36 13.58-19.36 25.788 0 14.812 12.05 26.861 26.86 26.861 14.812 0 26.861-12.05 26.861-26.861 0-12.208-8.189-22.533-19.361-25.788v-21.904h64.994v21.905c-11.171 3.255-19.36 13.58-19.36 25.788 0 14.812 12.05 26.861 26.86 26.861 14.812 0 26.861-12.05 26.861-26.861 0-12.208-8.189-22.533-19.361-25.788v-21.904h65.022v21.905c-11.171 3.255-19.36 13.58-19.36 25.788 0 14.812 12.05 26.861 26.86 26.861s26.86-12.05 26.86-26.861c0-12.208-8.189-22.533-19.36-25.788v-21.905h23.313c5.993 0 11.575-.47 16.765-1.375v246.32h-151.563v-135.116c0-6.73-5.476-12.206-12.205-12.206h-87.62c-6.729 0-12.205 5.476-12.205 12.206v135.115h-151.592v-106.57c0-4.142-3.357-7.5-7.5-7.5s-7.5 3.358-7.5 7.5v106.569h-21.017c-6.824.001-12.376 5.565-12.376 12.405v28.319c0 6.824 5.552 12.376 12.376 12.376h487.22c6.84 0 12.404-5.552 12.404-12.376v-28.319c0-6.84-5.564-12.404-12.404-12.404zm-391.738-197.253c0 6.541-5.32 11.861-11.86 11.861s-11.86-5.321-11.86-11.861 5.32-11.861 11.86-11.861 11.86 5.321 11.86 11.861zm79.995 0c0 6.541-5.32 11.861-11.86 11.861s-11.861-5.321-11.861-11.861 5.321-11.861 11.861-11.861 11.86 5.321 11.86 11.861zm79.994 0c0 6.541-5.321 11.861-11.861 11.861s-11.86-5.321-11.86-11.861 5.32-11.861 11.86-11.861 11.861 5.321 11.861 11.861zm79.994 0c0 6.541-5.321 11.861-11.861 11.861s-11.86-5.321-11.86-11.861 5.32-11.861 11.86-11.861 11.861 5.321 11.861 11.861zm80.021 0c0 6.541-5.32 11.861-11.86 11.861s-11.86-5.321-11.86-11.861 5.32-11.861 11.86-11.861 11.86 5.321 11.86 11.861zm-362.308-62.692c-8.523 0-15.829-.989-22.003-2.993-.165-.063-.33-.124-.5-.175-5.967-2.011-10.867-4.984-14.764-8.961-8.955-9.14-13.174-24.438-12.885-46.744h223.604c4.143 0 7.5-3.358 7.5-7.5s-3.357-7.5-7.5-7.5h-169.917c19.253-11.495 34.227-26.31 44.702-44.302h.066 284.656c.033 0 .065 0 .095.001 10.44 17.979 25.413 32.798 44.69 44.302h-169.652c-4.143 0-7.5 3.358-7.5 7.5s3.357 7.5 7.5 7.5h203.731c.008 0 .016.002.023.002.009 0 .017-.002.025-.002h19.542c.305 22.295-3.904 37.591-12.854 46.732-3.917 4.001-8.849 6.988-14.864 9.002-.326.082-.644.182-.951.304-6.066 1.892-13.195 2.835-21.484 2.835h-381.26zm149.431 127.624h82.029v132.321h-82.029zm282.015 170.42h-482v-23.099h482z"/></g></g></svg>