<svg id="Layer_1" enable-background="new 0 0 512 512" height="512" viewBox="0 0 512 512" width="512" xmlns="http://www.w3.org/2000/svg"><g><g><path d="m256.496 345.152c28.956 0 52.513-23.545 52.513-52.486 0-28.957-23.557-52.514-52.513-52.514-28.94 0-52.485 23.558-52.485 52.514 0 28.941 23.545 52.486 52.485 52.486zm0-90c20.685 0 37.513 16.829 37.513 37.514 0 20.67-16.828 37.486-37.513 37.486-20.669 0-37.485-16.816-37.485-37.486 0-20.686 16.816-37.514 37.485-37.514z"/><path d="m173.313 373.567c0 4.142 3.358 7.5 7.5 7.5h151.395c4.142 0 7.5-3.358 7.5-7.5s-3.358-7.5-7.5-7.5h-151.395c-4.142 0-7.5 3.358-7.5 7.5z"/><path d="m311.402 400.168h-109.783c-4.142 0-7.5 3.358-7.5 7.5s3.358 7.5 7.5 7.5h109.783c4.142 0 7.5-3.358 7.5-7.5s-3.358-7.5-7.5-7.5z"/><path d="m339.179 215.569c-15.781-31.738-20.351-61.237-13.35-85.718 7.276-.38 13.009-5.776 15.061-14.301l16.92-70.481c10.209-2.263 17.869-11.383 17.869-22.263-.001-12.575-10.232-22.806-22.808-22.806h-193.714c-12.591 0-22.835 10.231-22.835 22.807 0 10.882 7.672 20.002 17.895 22.264l16.895 70.484c2.051 8.522 7.783 13.917 15.06 14.297 7.001 24.48 2.431 53.98-13.351 85.72-48.887 98.391-64.938 138.768-48.109 263.516 3.371 24.914 12.988 32.912 39.575 32.912h183.426c26.587 0 36.204-7.998 39.577-32.917 16.827-124.744.777-165.121-48.111-263.514zm-152.171-100.682c-.237-.215-.88-1.046-1.311-2.835l-15.924-66.437h74.167c4.142 0 7.5-3.358 7.5-7.5s-3.358-7.5-7.5-7.5h-84.782c-4.32 0-7.835-3.502-7.835-7.807s3.513-7.808 7.834-7.808h193.715c4.305 0 7.807 3.502 7.807 7.807s-3.502 7.807-7.807 7.807h-79.169c-4.142 0-7.5 3.358-7.5 7.5s3.358 7.5 7.5 7.5h68.55l-15.947 66.43c-.434 1.801-1.072 2.633-1.304 2.845zm123.317 63.905c-15.585 7.568-31.063 10.169-52.532 1.117-22.972-9.684-40.984-7.869-55.858-2.428 3.289-16.88 3.221-32.886-.265-47.593h108.658c-3.575 15.088-3.554 31.542-.003 48.904zm65.196 272.882h-102.839c-4.142 0-7.5 3.358-7.5 7.5s3.358 7.5 7.5 7.5h101.094c-.424 3.399-.873 6.861-1.351 10.401-1.215 8.973-2.927 13.817-5.728 16.197-3.032 2.578-8.887 3.728-18.984 3.728h-183.426c-10.097 0-15.952-1.149-18.984-3.728-2.8-2.38-4.513-7.225-5.727-16.194-.478-3.542-.927-7.004-1.351-10.405h99.847c4.142 0 7.5-3.358 7.5-7.5s-3.358-7.5-7.5-7.5h-101.593c-10.86-101.089 4.92-139.153 49.774-229.426 4.416-8.881 8.02-17.635 10.824-26.215 16.4-8.457 32.342-11.807 54.89-2.301 11.725 4.943 22.155 6.892 31.539 6.891 11.683-.001 21.739-3.024 30.634-7.048 2.903 9.364 6.769 18.942 11.607 28.672 44.854 90.275 60.635 128.339 49.774 229.428z"/></g></g></svg>