<svg id="Layer_1" enable-background="new 0 0 516.282 516.282" height="512" viewBox="0 0 516.282 516.282" width="512" xmlns="http://www.w3.org/2000/svg"><g><g><path d="m234.281 183.956c-1.118-5.208-5.756-10.616-11.814-13.775-6.141-3.203-12.685-3.638-18.429-1.224-3.818 1.604-5.613 6.001-4.008 9.82 1.604 3.818 5.999 5.614 9.82 4.008 1.752-.736 3.687-.206 5.001.369 2.766 1.21 4.493 3.317 4.785 4.042.79 3.469 3.876 5.835 7.305 5.835.521 0 1.051-.055 1.582-.168 4.049-.869 6.627-4.857 5.758-8.907z"/><path d="m287.795 192.871c.519.108 1.036.161 1.546.161 3.44 0 6.532-2.382 7.311-5.862.297-.724 2.019-2.814 4.773-4.016 1.316-.574 3.253-1.104 5.008-.368 3.816 1.605 8.215-.189 9.819-4.008s-.189-8.215-4.009-9.82c-5.767-2.424-12.34-1.978-18.504 1.258-6.047 3.173-10.658 8.581-11.747 13.777-.849 4.054 1.749 8.029 5.803 8.878z"/><path d="m281.405 246.905c2.929-2.929 2.929-7.678-.001-10.606-2.928-2.93-7.677-2.929-10.606 0-3.379 3.379-7.874 5.241-12.657 5.241s-9.278-1.861-12.658-5.241c-2.929-2.929-7.678-2.929-10.606 0-2.929 2.929-2.929 7.678 0 10.606 6.212 6.213 14.475 9.634 23.264 9.634 8.79 0 17.051-3.421 23.264-9.634z"/><path d="m439.295 496.944-14.774-84.477c-10.041-57.471-61.02-76.064-101.993-91.008-10.589-3.844-11.354-5.317-11.319-12.784v-28.787c5.841-4.015 11.585-8.557 17.08-13.563 19.108-17.409 31.95-37.461 36.888-57.005 20.473-4.23 34.337-19.931 34.337-39.737 0-16.865-9.992-31.424-24.357-37.575.252-2.85-.275-5.354-.524-6.526l-15.801-74.919c-4.282-20.491-8.517-30.412-31.086-39.414-20.332-8.098-43.75-11.814-69.619-11.052-25.876-.765-49.286 2.953-69.593 11.054-22.55 8.994-26.796 18.913-31.109 39.403l-3.172 15.089c-.853 4.053 1.743 8.03 5.796 8.882 4.049.854 8.03-1.742 8.882-5.796l3.172-15.087c1.164-5.53 2.19-9.767 3.529-13.172 43.3 19.962 71.062 52.903 74.604 88.291h-93.947c.012-.06.025-.122.038-.185l5.772-27.407c.854-4.053-1.74-8.031-5.793-8.885-4.055-.854-8.031 1.741-8.885 5.793l-5.77 27.394c-.25 1.178-.777 3.682-.527 6.531-14.358 6.146-24.357 20.709-24.357 37.581 0 19.813 13.866 35.518 34.336 39.742 4.937 19.542 17.773 39.591 36.873 56.999 5.499 5.012 11.249 9.559 17.096 13.577v28.808c.035 7.431-.732 8.904-11.359 12.752-40.949 14.935-91.911 33.522-101.953 91.003l-14.774 84.471c-.686 3.899-1.16 9.605 2.625 14.113 3.892 4.636 10.118 5.231 15.107 5.231h326.843c4.989 0 11.215-.595 15.107-5.231 3.786-4.506 3.311-10.212 2.627-14.104zm-71.847-305.126v-46.706c9.943 3.325 17.064 13.057 17.064 24.471 0 10.851-6.583 19.555-17.088 23.53.01-.431.024-.864.024-1.295zm-235.679-22.234c0-11.43 7.141-21.173 17.064-24.484v46.718c0 .433.015.868.023 1.302-10.504-3.973-17.087-12.68-17.087-23.536zm212.381-115.938 15.807 74.944c.013.059.024.116.035.172h-93.975c3.543-35.39 31.312-68.329 74.624-88.288 1.334 3.405 2.354 7.641 3.509 13.172zm-104.375 15.891c-13.587-16.176-32.023-30.113-53.746-40.736 2.222-1.243 4.864-2.441 8.062-3.717 18.444-7.357 39.916-10.718 63.807-9.986.152.004.306.004.458 0 23.888-.732 45.368 2.63 63.836 9.986 3.197 1.275 5.838 2.473 8.059 3.715-21.734 10.622-40.177 24.559-53.768 40.736-7.884 9.383-14.034 19.418-18.355 29.856-4.322-10.435-10.472-20.472-18.353-29.854zm-41.693 185.701c-21.766-19.837-34.25-42.953-34.25-63.42v-48.057h188.616v48.057c0 3.042-.282 6.144-.824 9.284-.043.197-.075.396-.102.598-3.257 17.811-15.005 36.835-33.337 53.537-19.71 17.959-43.285 29.563-60.059 29.563-16.771 0-40.34-11.604-60.044-29.562zm99.396 63.37-39.348 52.174-39.324-52.169c.836-2.784 1.286-6.054 1.268-9.938v-19.741c13.417 6.96 26.687 10.866 38.053 10.866 11.373 0 24.654-3.911 38.082-10.878v19.718c-.019 3.898.432 7.177 1.269 9.968zm-98.64 16.952c3.764-1.363 7.315-2.803 10.4-4.72l39.498 52.398-16.778 22.247-48.446-64.236c5.137-1.97 10.275-3.846 15.326-5.689zm-49.837 165.722v-41.883c0-4.142-3.358-7.5-7.5-7.5s-7.5 3.358-7.5 7.5v41.883h-39.282c-1.504 0-2.511-.081-3.167-.172.031-.398.093-.917.209-1.582l14.775-84.479c6.418-36.739 33.096-55.045 62.602-67.945l53.425 70.838-62.852 83.34zm272.561 0h-39.282v-41.883c0-4.142-3.357-7.5-7.5-7.5s-7.5 3.358-7.5 7.5v41.883h-136.424l34.401-45.597c2.494-3.307 1.836-8.01-1.471-10.504-3.306-2.495-8.009-1.836-10.504 1.47l-41.216 54.631h-33.567l128.54-170.438c3.075 1.913 6.612 3.351 10.359 4.711 5.057 1.844 10.201 3.723 15.344 5.696l-57.743 76.595c-2.493 3.307-1.833 8.01 1.475 10.503 1.352 1.02 2.937 1.512 4.509 1.512 2.273 0 4.521-1.03 5.995-2.986l60.137-79.771c29.524 12.906 56.213 31.214 62.63 67.946l14.775 84.485c.116.661.179 1.178.209 1.574-.656.092-1.662.173-3.167.173z"/></g></g></svg>