<svg id="Layer_1" enable-background="new 0 0 512 512" height="512" viewBox="0 0 512 512" width="512" xmlns="http://www.w3.org/2000/svg"><g><path d="m425.749 72.624c-47.556 0-86.245 38.69-86.245 86.247s38.689 86.247 86.245 86.247 86.244-38.69 86.244-86.247-38.688-86.247-86.244-86.247zm0 157.493c-39.285 0-71.245-31.961-71.245-71.247s31.96-71.247 71.245-71.247c39.284 0 71.244 31.961 71.244 71.247s-31.96 71.247-71.244 71.247z"/><path d="m425.749 104.372c-30.051 0-54.498 24.448-54.498 54.499s24.447 54.499 54.498 54.499c30.05 0 54.497-24.448 54.497-54.499s-24.447-54.499-54.497-54.499zm0 93.997c-21.779 0-39.498-17.719-39.498-39.499s17.719-39.499 39.498-39.499c21.778 0 39.497 17.719 39.497 39.499s-17.719 39.499-39.497 39.499z"/><path d="m468.331 383.361-53.375 1.36c-4.141.105-7.412 3.548-7.307 7.688.104 4.076 3.44 7.31 7.494 7.309.064 0 .13-.001.195-.002l50.445-1.286v23.337h-383.881v-13.527l298.203-7.617c4.141-.106 7.412-3.548 7.306-7.689-.104-4.141-3.574-7.382-7.688-7.306l-58.553 1.496v-357.684c0-16.233-13.22-29.44-29.469-29.44h-262.255c-16.233 0-29.439 13.207-29.439 29.44v169.994c0 4.142 3.357 7.5 7.5 7.5s7.5-3.358 7.5-7.5v-169.994c0-7.962 6.478-14.44 14.439-14.44h262.255c7.979 0 14.469 6.478 14.469 14.44v358.067l-227.139 5.803c-6.802.147-12.129 5.533-12.129 12.26v47.367c0 6.672 5.293 12.069 12.1 12.288l227.168 5.789v11.545c0 7.962-6.49 14.44-14.469 14.44h-262.255c-7.962 0-14.439-6.478-14.439-14.44v-249.364c0-4.142-3.357-7.5-7.5-7.5s-7.5 3.358-7.5 7.5v249.365c0 16.233 13.206 29.44 29.439 29.44h262.255c16.249 0 29.469-13.207 29.469-29.44v-11.163l147.108 3.749c.132.004.264.006.396.006 3.116 0 6.066-1.202 8.347-3.408 2.392-2.315 3.764-5.543 3.764-8.856v-67.266c0-3.281-1.353-6.486-3.71-8.793-2.359-2.308-5.432-3.528-8.744-3.468zm-386.429 66.934v-13.527h383.882v23.309z"/><path d="m160.574 114.265c-4.143 0-7.5 3.358-7.5 7.5v10.29c0 4.142 3.357 7.5 7.5 7.5s7.5-3.358 7.5-7.5v-10.29c0-4.142-3.357-7.5-7.5-7.5z"/><path d="m132.708 132.951c-2.619-3.207-7.345-3.685-10.553-1.064-3.208 2.62-3.685 7.345-1.064 10.553l7.71 9.439c1.482 1.815 3.639 2.755 5.813 2.755 1.668 0 3.347-.554 4.739-1.691 3.208-2.62 3.685-7.345 1.064-10.553z"/><path d="m198.993 131.887c-3.208-2.621-7.934-2.143-10.553 1.064l-7.71 9.439c-2.62 3.208-2.144 7.933 1.064 10.553 1.393 1.138 3.071 1.691 4.739 1.691 2.175 0 4.331-.94 5.813-2.755l7.71-9.439c2.622-3.208 2.145-7.933-1.063-10.553z"/><path d="m160.574 284.259c-4.143 0-7.5 3.358-7.5 7.5v10.29c0 4.142 3.357 7.5 7.5 7.5s7.5-3.358 7.5-7.5v-10.29c0-4.142-3.357-7.5-7.5-7.5z"/><path d="m132.708 302.945c-2.619-3.207-7.345-3.685-10.553-1.064-3.208 2.62-3.685 7.345-1.064 10.553l7.71 9.439c1.482 1.815 3.639 2.755 5.813 2.755 1.668 0 3.347-.554 4.739-1.691 3.208-2.62 3.685-7.345 1.064-10.553z"/><path d="m198.993 301.881c-3.208-2.621-7.934-2.143-10.553 1.064l-7.71 9.439c-2.62 3.208-2.144 7.933 1.064 10.553 1.393 1.138 3.071 1.691 4.739 1.691 2.175 0 4.331-.94 5.813-2.755l7.71-9.439c2.622-3.208 2.145-7.933-1.063-10.553z"/><path d="m46.15 309.435c-3.686 4.446-8.272 9.979-9.191 18.235-.737 6.652 1.362 13.283 5.758 18.193 3.368 3.762 9.657 8.247 20.489 8.247h30.203.04 134.11c.009 0 .018.002.028.002.008 0 .016-.002.024-.002h30.331c10.841 0 17.128-4.48 20.494-8.239 4.394-4.906 6.491-11.54 5.754-18.205-.92-8.251-5.506-13.784-9.191-18.23-2.715-3.274-5.059-6.102-5.821-9.542-.5-2.269.283-4.139 1.83-7.52 2.192-4.794 5.507-12.038 1.086-21.394-.016-.032-.03-.064-.046-.096-4.055-8.274-11.209-10.254-16.433-11.7-3.938-1.09-6.247-1.811-7.932-3.947-1.437-1.828-1.54-3.856-1.611-7.578-.1-5.277-.251-13.25-8.375-19.815-7.242-5.709-14.556-4.389-19.896-3.426-4.021.726-6.416 1.078-8.865-.116-2.084-1.018-3.056-2.796-4.731-6.113-2.377-4.705-5.969-11.814-16.121-14.198-9.006-2.005-15.018 2.348-19.408 5.524-3.293 2.383-5.296 3.736-8.021 3.736-.025 0-.052 0-.079 0-.026 0-.053 0-.079 0-2.708 0-4.705-1.35-7.989-3.729-4.391-3.18-10.401-7.535-19.495-5.513-10.085 2.364-13.685 9.477-16.066 14.185-1.678 3.314-2.649 5.091-4.727 6.105-2.454 1.196-4.845.845-8.858.119-5.336-.964-12.644-2.284-19.899 3.418-.027.021-.054.042-.08.064-8.053 6.507-8.204 14.481-8.305 19.758-.07 3.722-.174 5.75-1.602 7.567-1.692 2.147-4.001 2.868-7.935 3.958-5.225 1.447-12.379 3.429-16.449 11.783-4.446 9.359-1.13 16.608 1.064 21.404 1.544 3.376 2.326 5.243 1.818 7.517-.765 3.446-3.11 6.274-5.824 9.548zm52.194 17.786c0-34.315 27.916-62.232 62.23-62.232 34.33 0 62.259 27.917 62.259 62.232 0 4.006-.393 7.985-1.153 11.889h-122.205c-.746-3.875-1.131-7.853-1.131-11.889zm-40.646-8.213c3.455-4.167 7.371-8.891 8.916-15.862 1.629-7.291-.942-12.912-2.82-17.016-1.976-4.319-2.534-5.824-1.188-8.661.948-1.947 2.254-2.533 6.937-3.831 4.598-1.273 10.894-3.017 15.719-9.137 4.608-5.868 4.726-12.047 4.812-16.559.09-4.729.236-6.34 2.691-8.341 1.712-1.326 3.162-1.284 7.928-.422 4.69.848 11.113 2.007 18.104-1.399 6.705-3.275 9.495-8.789 11.532-12.814 2.146-4.242 2.975-5.619 6.023-6.334 2.133-.475 3.411.18 7.354 3.037 3.838 2.78 9.086 6.582 16.788 6.582h.16c7.716 0 12.972-3.803 16.814-6.583 3.944-2.854 5.22-3.511 7.271-3.055 3.111.731 3.937 2.105 6.077 6.341 2.035 4.029 4.824 9.548 11.541 12.829 6.986 3.405 13.414 2.244 18.108 1.397 4.801-.867 6.234-.904 7.874.387 2.497 2.018 2.645 3.619 2.734 8.376.086 4.512.203 10.691 4.82 16.569 4.818 6.11 11.118 7.854 15.718 9.127 4.659 1.29 5.985 1.878 6.941 3.798 1.346 2.879.78 4.394-1.188 8.696-1.875 4.099-4.443 9.713-2.835 16.999 1.548 6.984 5.464 11.708 8.918 15.875 3.354 4.046 5.43 6.709 5.832 10.313.264 2.39-.491 4.835-2.02 6.543-2.403 2.683-6.395 3.246-9.32 3.246h-21.038c.611-3.923.93-7.896.93-11.889 0-42.586-34.658-77.232-77.259-77.232-42.585 0-77.23 34.646-77.23 77.232 0 4.013.313 7.985.913 11.889h-21.049c-2.921 0-6.907-.564-9.314-3.252-1.531-1.71-2.288-4.154-2.024-6.531.401-3.61 2.477-6.272 5.83-10.318z"/><path d="m46.146 139.444c-3.684 4.439-8.267 9.964-9.187 18.204-.738 6.661 1.364 13.301 5.769 18.219 3.369 3.763 9.656 8.249 20.479 8.249h194.735c10.83 0 17.117-4.482 20.484-8.241 4.4-4.915 6.502-11.558 5.764-18.234-.92-8.232-5.504-13.757-9.187-18.196-2.717-3.275-5.063-6.103-5.826-9.545-.5-2.269.283-4.139 1.83-7.52 2.192-4.794 5.507-12.038 1.086-21.394-.016-.032-.03-.064-.046-.096-4.051-8.267-11.197-10.251-16.415-11.7-3.941-1.094-6.254-1.818-7.957-3.985-1.429-1.813-1.532-3.834-1.604-7.545-.1-5.274-.251-13.245-8.375-19.81-7.234-5.704-14.541-4.392-19.876-3.434-4.022.723-6.42 1.073-8.885-.137-2.084-1.018-3.056-2.796-4.731-6.113-2.377-4.705-5.969-11.814-16.035-14.178-.034-.008-.069-.016-.104-.024-8.985-1.975-14.988 2.366-19.371 5.537-3.311 2.395-5.308 3.771-8.063 3.728-.037 0-.076 0-.113 0-2.765.02-4.729-1.331-8.029-3.721-4.383-3.174-10.389-7.519-19.376-5.544-.034.007-.067.015-.101.023-10.086 2.363-13.686 9.477-16.067 14.184-1.678 3.314-2.649 5.091-4.742 6.113-2.455 1.204-4.845.855-8.862.133-5.327-.957-12.63-2.271-19.88 3.426-.027.021-.054.042-.08.064-8.053 6.507-8.204 14.478-8.305 19.752-.07 3.711-.174 5.732-1.608 7.553-1.697 2.159-4.008 2.883-7.945 3.978-5.219 1.45-12.365 3.436-16.432 11.782-4.446 9.359-1.13 16.608 1.064 21.404 1.544 3.376 2.326 5.243 1.818 7.517-.765 3.448-3.111 6.276-5.827 9.551zm52.198 17.783c0-34.315 27.916-62.232 62.23-62.232 34.33 0 62.259 27.917 62.259 62.232 0 4.006-.393 7.985-1.153 11.889h-122.205c-.746-3.875-1.131-7.853-1.131-11.889zm-40.655-8.206c3.458-4.168 7.378-8.894 8.925-15.87 1.629-7.291-.942-12.912-2.82-17.016-1.976-4.319-2.534-5.824-1.188-8.661.948-1.946 2.252-2.533 6.931-3.833 4.602-1.279 10.905-3.03 15.717-9.153 4.616-5.857 4.733-12.034 4.819-16.544.09-4.726.236-6.335 2.691-8.336 1.711-1.326 3.163-1.283 7.921-.428 4.696.844 11.128 1.999 18.11-1.423 6.705-3.275 9.495-8.789 11.532-12.813 2.135-4.219 2.966-5.604 6.054-6.34 2.106-.45 3.395.218 7.309 3.053 3.834 2.777 9.075 6.573 16.764 6.573h.12c7.734.077 13.051-3.782 16.911-6.574 3.915-2.833 5.209-3.496 7.308-3.051 3.067.734 3.896 2.117 6.023 6.328 2.035 4.03 4.824 9.548 11.525 12.822 6.995 3.429 13.432 2.272 18.131 1.427 4.794-.861 6.229-.897 7.867.393 2.496 2.018 2.645 3.618 2.734 8.372.086 4.51.203 10.687 4.813 16.537 4.819 6.132 11.126 7.883 15.731 9.162 4.654 1.292 5.979 1.882 6.935 3.8 1.346 2.879.78 4.394-1.188 8.696-1.875 4.099-4.443 9.713-2.835 16.999 1.549 6.989 5.469 11.715 8.928 15.884 3.349 4.036 5.422 6.692 5.822 10.276.265 2.398-.494 4.854-2.03 6.569-2.404 2.685-6.39 3.248-9.31 3.248h-21.038c.611-3.923.93-7.896.93-11.889 0-42.586-34.658-77.232-77.259-77.232-42.585 0-77.23 34.646-77.23 77.232 0 4.013.313 7.985.913 11.889h-21.049c-2.915 0-6.896-.564-9.304-3.254-1.539-1.719-2.3-4.172-2.035-6.556.401-3.594 2.474-6.25 5.822-10.287z"/></g></svg>