<svg id="Layer_1" enable-background="new 0 0 512 512" height="512" viewBox="0 0 512 512" width="512" xmlns="http://www.w3.org/2000/svg"><g><g><path d="m161.426 172.614-2.183-2.466c-2.746-3.103-7.485-3.391-10.587-.646s-3.391 7.485-.646 10.587l2.183 2.466c1.482 1.675 3.546 2.53 5.62 2.53 1.767 0 3.541-.621 4.967-1.883 3.101-2.746 3.391-7.486.646-10.588z"/><path d="m82.445 274.514c1.482 1.675 3.545 2.529 5.619 2.529 1.767 0 3.541-.621 4.968-1.884 3.102-2.746 3.391-7.485.646-10.587l-3.713-4.195c-2.746-3.102-7.485-3.391-10.587-.646-3.102 2.746-3.391 7.485-.646 10.587z"/><path d="m371.413 172.578-2.211-2.466c-2.765-3.084-7.507-3.343-10.591-.578s-3.343 7.506-.578 10.591l2.211 2.466c1.481 1.652 3.53 2.494 5.587 2.494 1.783 0 3.572-.632 5.004-1.916 3.084-2.765 3.343-7.506.578-10.591z"/><path d="m292.483 274.535c1.481 1.661 3.536 2.508 5.6 2.508 1.776 0 3.56-.627 4.99-1.903 3.091-2.757 3.362-7.498.605-10.589l-3.742-4.195c-2.756-3.091-7.498-3.362-10.589-.605s-3.362 7.498-.605 10.589z"/><path d="m498.037 300.057h-9.478c2.54-3.5 4.547-7.388 5.971-11.621 5.395-16.044 2.492-36.23-8.172-56.838-1.904-3.679-6.429-5.119-10.108-3.214-3.679 1.904-5.117 6.43-3.214 10.108 8.653 16.72 11.306 33.182 7.277 45.164-.908 2.699-2.162 5.16-3.742 7.385l-57.658-64.808c-2.753-3.094-7.494-3.37-10.589-.618-3.095 2.753-3.371 7.494-.618 10.589l56.809 63.854h-29.443l-59.062-66.368 52.838-59.373 25.224 35.661c2.391 3.381 7.071 4.183 10.454 1.792 3.382-2.392 4.184-7.072 1.792-10.454l-44.873-63.441c-14.959-21.15-34.657-32.801-55.465-32.806-.005 0-.008 0-.013 0-20.81 0-40.52 11.65-55.5 32.807l-49.496 70.001-49.519-70.005c-14.978-21.155-34.686-32.803-55.497-32.803-.004 0-.009 0-.013 0-20.808.005-40.505 11.656-55.464 32.806l-56.212 79.458c-16.26 22.986-22.918 48.395-17.81 67.967 1.429 5.474 3.761 10.415 6.908 14.756h-19.4c-7.7.001-13.964 6.265-13.964 13.964v21.09c0 19.329 15.725 35.054 35.053 35.054h4.547v10.869c0 14.28 11.604 25.897 25.869 25.897h381.063c14.264 0 25.869-11.618 25.869-25.897v-10.869h4.519c19.344 0 35.081-15.725 35.081-35.054v-21.09c-.001-7.699-6.265-13.963-13.964-13.963zm-83.045 0h-98.043l49.022-55.085zm-92.28-153.516c.823-1.162 1.664-2.281 2.516-3.372l7.519 8.489c1.482 1.673 3.544 2.527 5.617 2.527 1.768 0 3.542-.621 4.97-1.886 3.101-2.746 3.388-7.486.642-10.587l-8.368-9.448c9.351-7.943 19.752-12.195 30.36-12.195h.01c15.802.003 31.152 9.403 43.222 26.468l10.757 15.208-53.985 60.663-53.999-60.678zm-56.964 97.941c1.482 1.665 3.539 2.513 5.604 2.513 1.774 0 3.556-.626 4.985-1.898 3.094-2.755 3.369-7.496.614-10.589l-9.163-10.291 13.195-18.661 23.344 26.226c1.482 1.665 3.539 2.514 5.604 2.514 1.774 0 3.555-.625 4.984-1.898 3.094-2.754 3.37-7.495.616-10.588l-25.658-28.826 13.208-18.679 52.85 59.387-59.061 66.366h-30.996c-7.744-4.104-12.754-10.331-14.896-18.536-3.173-12.149.063-28.284 8.49-44.092zm-46.903-70.182 32.989 46.637c-7.811 11.885-13.073 24.288-15.506 36.105l-27.407-30.809c-2.753-3.095-7.494-3.372-10.588-.619-3.095 2.753-3.372 7.494-.619 10.588l37.45 42.098c.279 2.406.71 4.748 1.301 7.01 1.428 5.47 3.761 10.407 6.907 14.746h-18.32l-59.055-66.359zm-13.873 125.757h-98.017l49.003-55.076zm-92.249-153.519c.817-1.156 1.652-2.269 2.499-3.354l7.505 8.474c1.482 1.673 3.544 2.527 5.617 2.527 1.768 0 3.542-.621 4.97-1.886 3.101-2.746 3.388-7.486.642-10.587l-8.361-9.44c9.344-7.946 19.742-12.201 30.35-12.203h.01c15.807 0 31.169 9.401 43.253 26.468l10.745 15.191-53.996 60.687-53.993-60.671zm-63.274 90.892 6.279 7.052c1.482 1.665 3.539 2.513 5.604 2.513 1.774 0 3.556-.626 4.985-1.898 3.094-2.755 3.369-7.496.614-10.589l-9.162-10.29 13.208-18.671 23.327 26.233c1.482 1.667 3.54 2.516 5.607 2.516 1.772 0 3.552-.625 4.981-1.896 3.095-2.752 3.373-7.493.621-10.588l-25.643-28.837 13.2-18.659 52.847 59.383-59.041 66.358h-31.02c-7.738-4.105-12.745-10.335-14.887-18.544-3.171-12.152.061-28.285 8.48-44.083zm447.551 97.68c0 11.058-9.008 20.054-20.081 20.054h-196.187c-4.142 0-7.5 3.358-7.5 7.5s3.358 7.5 7.5 7.5h176.668v10.869c0 6.009-4.875 10.897-10.869 10.897h-381.062c-5.993 0-10.869-4.889-10.869-10.897v-10.869h187.156c4.142 0 7.5-3.358 7.5-7.5s-3.358-7.5-7.5-7.5h-206.703c-11.057 0-20.053-8.996-20.053-20.054v-20.054h249.052c.012 0 .024.002.036.002.009 0 .019-.002.028-.002h203.71c.009 0 .019.002.028.002.012 0 .024-.002.036-.002h29.11z"/></g></g></svg>