<svg id="Layer_1" enable-background="new 0 0 511.986 511.986" height="512" viewBox="0 0 511.986 511.986" width="512" xmlns="http://www.w3.org/2000/svg"><g><path d="m477.411 408.695-443.186 10.318c-6.776.151-12.286 5.736-12.286 12.458v49.21c0 6.773 5.372 12.245 12.286 12.458l443.205 10.319c.087.001.174.002.26.002 3.221 0 6.264-1.248 8.594-3.531 2.392-2.342 3.764-5.598 3.764-8.931v-69.846c0-3.333-1.372-6.589-3.764-8.931-2.393-2.342-5.527-3.609-8.873-3.526zm-2.364 15.059v24.823h-438.108v-14.623zm-438.108 54.445v-14.623h438.107v24.823z"/><path d="m94.323 240.404h.033c4.142-.018 7.485-3.39 7.468-7.532l-.029-6.718c-.018-4.131-3.372-7.468-7.5-7.468-.011 0-.022 0-.033 0-4.142.018-7.485 3.39-7.468 7.532l.029 6.718c.018 4.132 3.372 7.468 7.5 7.468z"/><path d="m146.105 295.729c-2.813 3.041-2.629 7.786.411 10.599l4.932 4.563c1.443 1.335 3.27 1.995 5.092 1.995 2.017 0 4.029-.809 5.507-2.406 2.813-3.041 2.629-7.786-.411-10.599l-4.932-4.563c-3.04-2.813-7.786-2.629-10.599.411z"/><path d="m94.02 296.14c-3.04 2.813-3.225 7.558-.411 10.599 1.478 1.597 3.489 2.406 5.507 2.406 1.822 0 3.649-.66 5.092-1.995l4.932-4.563c3.04-2.813 3.225-7.558.411-10.599-2.813-3.04-7.558-3.225-10.599-.411z"/><path d="m250.931 248.658c1.441 1.325 3.26 1.979 5.075 1.979 2.025 0 4.044-.815 5.523-2.423 2.804-3.049 2.604-7.794-.444-10.598l-4.932-4.535c-3.05-2.804-7.794-2.604-10.598.444-2.804 3.049-2.604 7.794.444 10.598z"/><path d="m249.061 307.075h.065l6.69-.057c4.142-.035 7.471-3.421 7.436-7.563-.034-4.142-3.397-7.497-7.563-7.436l-6.69.057c-4.142.035-7.471 3.421-7.436 7.563.035 4.12 3.386 7.436 7.498 7.436z"/><path d="m142.424 259.647c-4.112 0-7.463 3.316-7.498 7.437-.035 4.142 3.294 7.528 7.436 7.563l6.718.057h.064c4.112 0 7.463-3.316 7.498-7.437.035-4.142-3.294-7.528-7.436-7.563l-6.718-.057c-.021 0-.042 0-.064 0z"/><path d="m188.883 273.938h.065c4.142-.035 7.471-3.421 7.436-7.563l-.057-6.718c-.035-4.12-3.386-7.436-7.498-7.436-.021 0-.044 0-.065 0-4.142.035-7.471 3.421-7.436 7.563l.057 6.718c.035 4.121 3.386 7.436 7.498 7.436z"/><path d="m82.16 271.798c1.461 1.461 3.371 2.19 5.282 2.19 1.92 0 3.842-.736 5.31-2.204 2.929-2.929 2.915-7.692-.014-10.621s-7.678-2.929-10.606 0c-2.929 2.929-2.929 7.678 0 10.606z"/><path d="m135.875 235.401c1.461 1.461 3.371 2.19 5.282 2.19 1.92 0 3.842-.736 5.31-2.204 2.929-2.929 2.915-7.692-.014-10.621s-7.678-2.929-10.606 0c-2.929 2.929-2.929 7.678 0 10.606z"/><path d="m203.171 310.59h.028c4.142 0 7.486-3.358 7.486-7.5s-3.372-7.5-7.514-7.5-7.5 3.358-7.5 7.5 3.358 7.5 7.5 7.5z"/><path d="m228.027 274.435c1.461 1.461 3.371 2.19 5.282 2.19 1.92 0 3.842-.736 5.31-2.204 2.929-2.929 2.915-7.692-.014-10.621s-7.678-2.929-10.606 0c-2.929 2.929-2.929 7.678 0 10.606z"/><path d="m206.064 237.201c1.822 0 3.649-.66 5.092-1.995l4.932-4.564c3.041-2.813 3.224-7.559.411-10.599-2.814-3.04-7.559-3.225-10.599-.411l-4.932 4.564c-3.041 2.813-3.224 7.559-.411 10.599 1.479 1.598 3.489 2.406 5.507 2.406z"/><path d="m380.587 254.034c-15.154 0-27.483 12.342-27.483 27.513s12.329 27.513 27.483 27.513c15.171 0 27.513-12.342 27.513-27.513s-12.342-27.513-27.513-27.513zm0 40.026c-6.884 0-12.483-5.613-12.483-12.513s5.6-12.513 12.483-12.513c6.899 0 12.513 5.613 12.513 12.513s-5.614 12.513-12.513 12.513z"/><path d="m92.086 142.022c6.791 5.625 15.151 8.627 23.861 8.627 1.173 0 2.354-.055 3.537-.165.039-.004.078-.01.118-.014 2.28 5.844 6.009 11.047 10.969 15.158 6.776 5.616 15.122 8.611 23.813 8.611 1.19 0 2.389-.057 3.589-.17 9.96-.925 18.964-5.682 25.353-13.394 6.383-7.706 9.389-17.435 8.462-27.407-1.945-20.547-20.257-35.714-40.814-33.804-.005 0-.009 0-.014.001-.037.004-.074.01-.111.013-6.008-15.172-21.557-25.167-38.34-23.598-9.972.925-18.982 5.68-25.372 13.391-6.388 7.709-9.387 17.444-8.445 27.397.925 9.961 5.682 18.965 13.394 25.354zm55.408-26.602c.186-.05.366-.111.545-.174 1.386-.415 2.83-.703 4.324-.845 12.343-1.147 23.325 7.955 24.491 20.27.555 5.975-1.249 11.813-5.079 16.437-3.83 4.623-9.224 7.474-15.201 8.029-5.98.569-11.815-1.229-16.431-5.056-4.618-3.827-7.466-9.229-8.022-15.227-1.007-10.625 5.618-20.241 15.373-23.434zm-48.807-16.579c3.829-4.621 9.229-7.471 15.214-8.026 9.68-.904 18.657 4.61 22.539 13.123-11.376 6.272-18.995 18.225-19.395 31.658-5.603.266-11.037-1.519-15.39-5.126-4.623-3.83-7.474-9.224-8.029-15.203-.565-5.971 1.232-11.805 5.061-16.426z"/><path d="m46.504 133.165c-4.142 0-7.5 3.358-7.5 7.5v196.527c0 4.142 3.358 7.5 7.5 7.5h418.979c4.143 0 7.5-3.358 7.5-7.5v-282.162c0-4.142-3.357-7.5-7.5-7.5h-418.979c-4.142 0-7.5 3.358-7.5 7.5v50.996c0 4.142 3.358 7.5 7.5 7.5s7.5-3.358 7.5-7.5v-43.496h162.473v124.918h-162.473v-46.784c0-4.142-3.358-7.499-7.5-7.499zm256.772 196.526v-127.243h47.474c-5.3 5.496-10.317 12.453-14.906 20.775-10.162 18.428-16.729 41.043-16.729 57.615 0 22.396 9.761 38.789 23.73 48.853zm77.254-3.16c-22.354 0-46.414-14.299-46.414-45.692 0-14.007 5.974-34.25 14.863-50.371 9.74-17.662 21.24-27.792 31.551-27.792 10.321 0 21.824 10.129 31.561 27.791 8.885 16.116 14.854 36.359 14.854 50.372-.001 31.393-24.06 45.692-46.415 45.692zm77.452 3.16h-39.768c13.969-10.064 23.73-26.457 23.73-48.853 0-16.577-6.562-39.191-16.717-57.614-4.588-8.323-9.604-15.28-14.906-20.776h47.66v127.243zm-226.505-267.161h226.506v124.918h-226.506zm56.799 139.918v127.243h-234.272v-127.243z"/><path d="m511.985 31.378c-.209-12.601-10.63-22.853-23.23-22.853h-465.523c-12.601 0-23.022 10.251-23.231 22.853-.001.041-.001.082-.001.124v329.188c0 .042 0 .083.001.125.209 12.601 10.63 22.853 23.228 22.853l217.1.085h.003c4.141 0 7.499-3.356 7.5-7.497.001-4.142-3.355-7.501-7.497-7.503l-217.103-.085c-4.449 0-8.131-3.607-8.232-8.051v-329.041c.101-4.444 3.783-8.051 8.232-8.051h465.523c4.448 0 8.131 3.606 8.231 8.05v329.07c-.101 4.429-3.783 8.023-8.234 8.023l-213.784.085c-4.143.001-7.499 3.361-7.497 7.503.002 4.141 3.359 7.497 7.5 7.497h.003l213.781-.085c12.601 0 23.021-10.239 23.23-22.825.001-.042.001-.083.001-.125v-329.216c0-.042 0-.083-.001-.124z"/><path d="m403.434 77.634c-7.065 0-13.895 2.251-19.561 6.316-5.521-3.969-12.282-6.316-19.585-6.316-7.059 0-13.883 2.248-19.547 6.306-5.518-3.963-12.274-6.306-19.571-6.306-7.073 0-13.907 2.248-19.574 6.307-5.518-3.963-12.274-6.307-19.572-6.307-18.546 0-33.635 15.089-33.635 33.636v27.411c0 18.546 15.089 33.635 33.635 33.635 7.3 0 14.058-2.345 19.578-6.311 5.677 4.062 12.509 6.311 19.568 6.311 7.296 0 14.051-2.343 19.569-6.305 5.661 4.058 12.485 6.305 19.548 6.305 7.302 0 14.063-2.347 19.583-6.315 5.664 4.064 12.493 6.315 19.563 6.315 18.546 0 33.635-15.089 33.635-33.635v-27.411c0-18.547-15.089-33.636-33.634-33.636zm-98.774 61.047c0 4.666-1.736 8.925-4.58 12.198-.019.021-.037.041-.056.062-3.418 3.898-8.419 6.376-13.999 6.376-10.275 0-18.635-8.36-18.635-18.635v-27.412c0-10.276 8.359-18.636 18.635-18.636 5.582 0 10.584 2.479 14.003 6.38.022.025.044.05.067.074 2.835 3.27 4.565 7.524 4.565 12.182zm39.146 0c0 4.659-1.73 8.913-4.567 12.184-.019.021-.038.042-.057.062-3.418 3.906-8.425 6.389-14.011 6.389-3.385 0-6.679-.945-9.551-2.666 2.576-4.754 4.04-10.194 4.04-15.97v-27.41c0-5.779-1.466-11.221-4.044-15.977 2.866-1.716 6.16-2.659 9.555-2.659 5.582 0 10.584 2.479 14.002 6.38.022.025.044.05.067.074 2.835 3.27 4.565 7.524 4.565 12.182v27.411zm39.117 0c0 10.275-8.359 18.635-18.635 18.635-3.384 0-6.669-.941-9.528-2.655 2.579-4.756 4.046-10.2 4.046-15.981v-27.41c0-5.78-1.466-11.223-4.045-15.979 2.86-1.715 6.145-2.657 9.527-2.657 10.275 0 18.635 8.36 18.635 18.636zm39.145 0c0 10.275-8.359 18.635-18.635 18.635-3.393 0-6.685-.946-9.549-2.669 2.574-4.753 4.039-10.192 4.039-15.967v-27.41c0-5.774-1.464-11.212-4.038-15.965 2.865-1.723 6.158-2.671 9.548-2.671 10.275 0 18.635 8.36 18.635 18.636z"/></g></svg>