<svg id="Layer_1" enable-background="new 0 0 512 512" height="512" viewBox="0 0 512 512" width="512" xmlns="http://www.w3.org/2000/svg"><g><path d="m482.56 9.476h-453.12c-16.233 0-29.44 13.207-29.44 29.441v372.285c0 16.234 13.207 29.441 29.44 29.441h37.9c4.143 0 7.5-3.358 7.5-7.5s-3.357-7.5-7.5-7.5h-37.9c-7.963 0-14.44-6.478-14.44-14.441v-372.285c0-7.963 6.478-14.441 14.44-14.441h453.12c7.963 0 14.44 6.478 14.44 14.441v372.285c0 7.963-6.478 14.441-14.44 14.441h-108.466v-20.013h90.326c6.932 0 12.57-5.639 12.57-12.57v-336c0-6.948-5.639-12.6-12.57-12.6h-190.63c-4.143 0-7.5 3.358-7.5 7.5s3.357 7.5 7.5 7.5h188.2v331.17h-87.896v-26.576c12.44-6.687 21.961-18.129 26.113-31.879 17.332-2.242 30.734-9.198 38.058-19.904 4.613-6.743 9.014-18.314 3.774-35.149-4.453-14.248-2.227-17.952 1.814-24.678 3.584-5.965 8.045-13.389 9.136-27.737.028-.378.028-.759 0-1.138-1.091-14.33-5.549-21.753-9.132-27.717-4.045-6.734-6.272-10.444-1.816-24.704 5.24-16.818.849-28.385-3.757-35.126-7.305-10.691-20.678-17.648-37.978-19.91-6.563-22.284-27.191-38.602-51.571-38.602-19.734 0-37.008 10.695-46.359 26.587-9.396-15.705-26.569-26.247-46.164-26.247-19.665 0-36.888 10.618-46.262 26.417-9.374-15.799-26.597-26.417-46.262-26.417-24.254 0-44.8 16.149-51.472 38.256-17.35 2.258-30.757 9.224-38.069 19.932-4.602 6.74-8.984 18.303-3.736 35.111 4.44 14.25 2.21 17.959-1.838 24.694-3.585 5.965-8.048 13.39-9.139 27.726-.028.379-.028.759 0 1.138 1.092 14.354 5.556 21.779 9.144 27.746 4.044 6.726 6.271 10.432 1.834 24.671-5.254 16.826-.861 28.398 3.749 35.143 7.32 10.709 20.722 17.667 38.056 19.909 4.152 13.751 13.673 25.193 26.113 31.879v26.576h-88.35v-331.171h187.81c4.143 0 7.5-3.358 7.5-7.5s-3.357-7.5-7.5-7.5h-190.21c-6.947 0-12.6 5.652-12.6 12.6v336c0 6.931 5.652 12.57 12.6 12.57h90.751v20.013h-36.352c-4.143 0-7.5 3.358-7.5 7.5s3.357 7.5 7.5 7.5h36.352v36.523c0 13.983 11.376 25.359 25.358 25.359s25.358-11.376 25.358-25.359v-36.523h41.807v36.523c0 13.983 11.376 25.359 25.358 25.359s25.358-11.376 25.358-25.359v-36.523h41.806v36.523c0 13.983 11.376 25.359 25.358 25.359s25.358-11.376 25.358-25.359v-36.523h108.468c16.233 0 29.44-13.207 29.44-29.441v-372.285c0-16.234-13.207-29.441-29.44-29.441zm-80.072 122.171c10.835 2.108 19.151 6.601 23.411 12.836 3.982 5.829 4.596 13.299 1.824 22.196-6 19.196-2.427 27.4 3.276 36.895 3 4.995 6.101 10.156 6.987 20.564-.888 10.422-3.989 15.584-6.99 20.58-5.701 9.487-9.272 17.686-3.276 36.869 2.772 8.908 2.155 16.382-1.835 22.214-4.263 6.231-12.57 10.718-23.389 12.823-.014-19.649-10.628-36.856-26.416-46.223 15.798-9.374 26.417-26.598 26.417-46.263 0-19.787-10.752-37.099-26.712-46.433 15.859-9.275 26.567-26.428 26.703-46.058zm-192.537 119.836c4.617 7.781 11.136 14.3 18.917 18.917-7.781 4.617-14.3 11.136-18.917 18.917-4.617-7.781-11.136-14.3-18.917-18.917 7.781-4.616 14.3-11.136 18.917-18.917zm-46.262 11.417c-21.373 0-38.762-17.389-38.762-38.763s17.389-38.763 38.762-38.763 38.762 17.389 38.762 38.763-17.388 38.763-38.762 38.763zm53.762-38.762c0-21.374 17.389-38.763 38.762-38.763s38.762 17.389 38.762 38.763-17.389 38.762-38.762 38.762-38.762-17.388-38.762-38.762zm85.024 27.346c4.617 7.781 11.136 14.3 18.917 18.917-7.78 4.617-14.3 11.136-18.917 18.917-4.617-7.781-11.136-14.3-18.917-18.917 7.78-4.617 14.3-11.137 18.917-18.917zm7.5-27.346c0-21.374 17.388-38.763 38.761-38.763s38.762 17.389 38.762 38.763-17.39 38.762-38.763 38.762-38.76-17.388-38.76-38.762zm38.76-131.629c21.373 0 38.762 17.389 38.762 38.763s-17.389 38.763-38.762 38.763-38.761-17.389-38.761-38.763 17.388-38.763 38.761-38.763zm-46.162 66.279c4.669 7.804 11.26 14.324 19.114 18.917-7.91 4.626-14.538 11.209-19.212 19.087-4.617-7.781-11.136-14.3-18.917-18.917 7.837-4.65 14.392-11.232 19.015-19.087zm-46.36-65.939c21.373 0 38.762 17.389 38.762 38.763s-17.389 38.763-38.762 38.763-38.762-17.389-38.762-38.763 17.389-38.763 38.762-38.763zm-27.345 85.026c-7.781 4.617-14.3 11.136-18.917 18.917-4.617-7.781-11.136-14.3-18.917-18.917 7.781-4.617 14.3-11.136 18.917-18.917 4.617 7.781 11.136 14.3 18.917 18.917zm-65.179-85.026c21.373 0 38.762 17.389 38.762 38.763s-17.389 38.763-38.762 38.763-38.762-17.389-38.762-38.763 17.389-38.763 38.762-38.763zm-53.76 223.775c-10.819-2.104-19.124-6.592-23.383-12.822-3.984-5.831-4.595-13.302-1.813-22.212 5.979-19.186 2.404-27.383-3.299-36.867-3.003-4.996-6.107-10.159-6.995-20.585.888-10.41 3.99-15.573 6.992-20.568 5.705-9.492 9.282-17.694 3.301-36.888-2.778-8.898-2.171-16.362 1.806-22.186 4.253-6.23 12.562-10.723 23.392-12.837.017 19.645 10.63 36.849 26.416 46.216-15.798 9.374-26.417 26.598-26.417 46.263s10.618 36.889 26.417 46.263c-15.789 9.367-26.403 26.574-26.417 46.223zm64.119 160.542c0 5.712-4.646 10.359-10.358 10.359s-10.358-4.647-10.358-10.359v-107.752c3.354.658 6.815 1.012 10.358 1.012s7.005-.35 10.358-1.008zm-10.359-121.74c-21.373 0-38.762-17.389-38.762-38.763s17.389-38.763 38.762-38.763 38.762 17.389 38.762 38.763-17.388 38.763-38.762 38.763zm67.165 70.217h-41.807v-20.013h41.807zm0-35.013h-41.807v-26.576c8.656-4.654 15.899-11.61 20.903-20.045 5.005 8.435 12.247 15.391 20.903 20.045v26.576zm35.717 86.536c0 5.712-4.646 10.359-10.358 10.359s-10.358-4.647-10.358-10.359v-107.747c3.353.658 6.815 1.008 10.358 1.008s7.005-.35 10.358-1.008zm-10.358-121.74c-21.373 0-38.762-17.389-38.762-38.763s17.389-38.763 38.762-38.763 38.762 17.389 38.762 38.763-17.389 38.763-38.762 38.763zm67.164 70.217h-41.806v-20.013h41.806zm0-35.013h-41.806v-26.576c8.656-4.654 15.899-11.61 20.903-20.045 5.004 8.434 12.247 15.39 20.902 20.044v26.577zm35.717 86.536c0 5.712-4.646 10.359-10.358 10.359s-10.358-4.647-10.358-10.359v-78.978c0-.02.003-.038.003-.058s-.003-.038-.003-.058v-28.653c3.353.658 6.815 1.008 10.358 1.008 3.544 0 7.005-.354 10.358-1.012zm-10.359-121.74c-21.373 0-38.761-17.389-38.761-38.763s17.388-38.763 38.761-38.763 38.762 17.389 38.762 38.763-17.389 38.763-38.762 38.763z"/></g></svg>