<svg id="Layer_1" enable-background="new 0 0 512 512" height="512" viewBox="0 0 512 512" width="512" xmlns="http://www.w3.org/2000/svg"><g><g><path d="m232.843 154.205c0-14.874-12.101-26.975-26.974-26.975h-43.71c-14.874 0-26.974 12.101-26.974 26.975s12.101 26.975 26.974 26.975h43.71c14.874-.001 26.974-12.101 26.974-26.975zm-82.658 0c0-6.491 5.483-11.975 11.974-11.975h43.71c6.491 0 11.974 5.484 11.974 11.975s-5.483 11.975-11.974 11.975h-43.71c-6.491-.001-11.974-5.485-11.974-11.975z"/><path d="m299.356 238.918h-43.71c-14.874 0-26.974 12.101-26.974 26.975s12.101 26.975 26.974 26.975h43.71c14.874 0 26.974-12.101 26.974-26.975s-12.101-26.975-26.974-26.975zm0 38.95h-43.71c-6.491 0-11.974-5.484-11.974-11.975s5.483-11.975 11.974-11.975h43.71c6.491 0 11.974 5.484 11.974 11.975s-5.483 11.975-11.974 11.975z"/><path d="m139.356 265.893c0-14.874-12.101-26.975-26.974-26.975h-43.71c-14.874 0-26.974 12.101-26.974 26.975s12.101 26.975 26.974 26.975h43.71c14.874 0 26.974-12.101 26.974-26.975zm-82.658 0c0-6.491 5.483-11.975 11.974-11.975h43.71c6.491 0 11.974 5.484 11.974 11.975s-5.483 11.975-11.974 11.975h-43.71c-6.491 0-11.974-5.484-11.974-11.975z"/><path d="m498.037 314.294h-6.635c10.559-15.033 14.698-33.568 11.629-52.464-1.49-9.19-6.073-12.627-15.298-11.491-2.237.268-4.437.644-6.604 1.099-2.888-12.277-9.419-23.479-18.885-32.178-11.747-10.795-26.961-16.74-42.839-16.74h-52.503c13.699-11.639 22.415-28.974 22.415-48.316 0-34.944-28.441-63.373-63.399-63.373h-28.63c-4.142 0-7.5 3.358-7.5 7.5s3.358 7.5 7.5 7.5h28.63c26.688 0 48.399 21.7 48.399 48.373 0 25.162-19.301 45.892-43.874 48.182 13.603-11.638 22.251-28.914 22.251-48.182 0-4.142-3.358-7.5-7.5-7.5s-7.5 3.358-7.5 7.5c0 25.757-20.213 46.873-45.599 48.316h-1.16c13.699-11.639 22.414-28.974 22.414-48.316 0-4.142-3.358-7.5-7.5-7.5s-7.5 3.358-7.5 7.5c0 25.757-20.224 46.873-45.626 48.316h-5.868c13.699-11.639 22.415-28.974 22.415-48.316 0-19.376-8.754-36.739-22.505-48.373h15.912c4.142 0 7.5-3.358 7.5-7.5s-3.358-7.5-7.5-7.5h-56.807-43.71c-34.943 0-63.371 28.429-63.371 63.373 0 19.342 8.712 36.677 22.405 48.316h-8.81-43.71c-34.943 0-63.371 28.429-63.371 63.373 0 19.388 8.753 36.762 22.503 48.401h-13.843c-7.699 0-13.963 6.264-13.963 13.963v21.09c0 19.329 15.725 35.054 35.053 35.054h4.547v10.897c0 14.264 11.604 25.869 25.869 25.869h381.063c14.264 0 25.869-11.605 25.869-25.869v-10.897h4.519c19.344 0 35.081-15.725 35.081-35.054v-21.09c-.001-7.699-6.265-13.963-13.964-13.963zm-9.638-48.917c2.178 15.178-1.444 29.938-10.253 41.684-1.925 2.567-4.134 4.987-6.568 7.233h-30.969c.967-10.084 4.565-19.473 10.584-27.48 6.587-8.759 15.59-15.199 26.047-18.785.078-.023.152-.055.229-.081 3.494-1.181 7.149-2.046 10.93-2.571zm-75.484 48.917c-3.524-3.137-6.542-6.722-8.991-10.707-6.875-11.101-8.973-24.425-5.968-37.693 13.232 3.253 24.226 11.071 31.09 22.154.722 1.163 1.404 2.404 2.05 3.696-3.072 7.077-4.937 14.659-5.532 22.551h-12.649zm53.849-58.28c-10.623 4.662-19.854 11.83-26.995 21.073-9.391-13.383-23.567-22.648-40.318-26.24-8.725-1.859-13.402 1.038-15.628 9.686-4.589 17.794-1.979 35.889 7.334 50.928.592.964 1.219 1.904 1.861 2.833h-52.776c13.756-11.639 22.513-29.012 22.513-48.401 0-19.376-8.754-36.739-22.505-48.373h79.154c22.908.001 42.716 16.513 47.36 38.494zm-211.118 58.28c-26.672 0-48.371-21.712-48.371-48.401 0-26.673 21.699-48.373 48.371-48.373 0 0 35.874.056 36.962 0h6.748c26.688 0 48.399 21.7 48.399 48.373 0 26.688-21.712 48.401-48.399 48.401zm-40.877-96.773c-13.745 11.634-22.495 28.996-22.495 48.373 0 19.388 8.753 36.762 22.503 48.401h-61.508c13.756-11.639 22.513-29.012 22.513-48.401 0-19.376-8.754-36.739-22.505-48.373zm-100.981-63.316c0-26.673 21.699-48.373 48.371-48.373h43.71c26.688 0 48.399 21.7 48.399 48.373 0 25.757-20.225 46.873-45.626 48.316h-49.255c-25.387-1.443-45.599-22.559-45.599-48.316zm-93.487 111.688c0-26.673 21.699-48.373 48.371-48.373h43.71c26.688 0 48.399 21.7 48.399 48.373 0 26.688-21.712 48.401-48.399 48.401h-43.71c-26.672 0-48.371-21.712-48.371-48.401zm476.699 83.455c0 11.058-9.008 20.054-20.081 20.054h-201.998c-4.142 0-7.5 3.358-7.5 7.5s3.358 7.5 7.5 7.5h182.479v10.897c0 5.993-4.875 10.869-10.869 10.869h-381.062c-5.993 0-10.869-4.876-10.869-10.869v-10.897h185.682c4.142 0 7.5-3.358 7.5-7.5s-3.358-7.5-7.5-7.5h-205.229c-11.057 0-20.053-8.996-20.053-20.054v-20.054h395.152.006.009 86.833z"/></g></g></svg>