<svg id="Layer_1" enable-background="new 0 0 512 512" height="512" viewBox="0 0 512 512" width="512" xmlns="http://www.w3.org/2000/svg"><g><g><path d="m160.135 86.519c-14.701 0-26.662-11.961-26.662-26.663s11.961-26.662 26.662-26.662 26.661 11.96 26.661 26.662-11.96 26.663-26.661 26.663zm0-38.325c-6.431 0-11.662 5.231-11.662 11.662s5.231 11.663 11.662 11.663c6.43 0 11.661-5.232 11.661-11.663s-5.232-11.662-11.661-11.662z"/></g><g><path d="m335.873 122.182c-3.398-3.117-7.619-2.746-11.687-2.391-24.21 2.062-45.997 16.038-61.348 39.353-15.704 23.852-24.005 55.967-24.005 92.874v95.018c0 10.263 8.361 18.612 18.64 18.612h20.777c1.973 0 3.64 1.667 3.64 3.64v13.606 100.404c0 15.827 12.863 28.703 28.675 28.703 15.811 0 28.674-12.876 28.674-28.703v-100.405-248.833c.004-4.714.007-8.786-3.366-11.878zm-57.622 228.465h-20.777c-1.973 0-3.64-1.654-3.64-3.612v-95.018c0-33.966 7.446-63.229 21.533-84.625 12.498-18.983 29.809-30.497 48.872-32.538v240.539h-27.349v-6.106c.001-10.278-8.361-18.64-18.639-18.64zm45.988 132.65c0 7.556-6.134 13.703-13.674 13.703s-13.675-6.147-13.675-13.703v-92.904h27.349z"/><path d="m180.401 0h-118.23c-21.868 0-29.655 22.178-32.585 30.521-17.119 48.608-25.788 97.848-25.767 146.35.021 48.383 8.691 97.388 25.77 145.648 2.948 8.345 10.78 30.514 32.582 30.514h87.459v39.725c0 5.637-.13 15.909-.13 15.909-.055 1.553.172 4.244-.559 5.661-.625 1.213-1.711 2.123-2.716 3.011-2.578 2.281-5.257 4.437-7.896 6.646-11.373 9.466-17.896 23.397-17.896 38.222 0 27.456 22.337 49.793 49.792 49.793 27.439 0 49.764-22.337 49.764-49.793v-116.674-217.759c0-4.142-3.357-7.5-7.5-7.5s-7.5 3.358-7.5 7.5v210.258h-103.077c-7.95 0-13.292-5.942-18.44-20.514-33.03-93.341-33.029-188.225.001-282.008 5.147-14.568 10.489-20.51 18.439-20.51h78.489c13.558 0 24.588 11.03 24.588 24.588v53.575c0 4.142 3.357 7.5 7.5 7.5s7.5-3.358 7.5-7.5v-53.575c0-21.829-17.759-39.588-39.588-39.588zm-15.706 401.447c-.03-2.485-.065-5.351-.065-8.689v-39.725h40.359v109.174c0 19.185-15.595 34.793-34.764 34.793-19.185 0-34.792-15.608-34.792-34.793 0-10.356 4.553-20.085 12.506-26.705 1.026-.858 1.979-1.648 2.861-2.379 13.216-10.954 14.125-13.026 13.895-31.676zm-95.368-370.927c-17.119 48.609-25.789 97.848-25.767 146.351.022 48.383 8.692 97.388 25.771 145.648 1.264 3.577 3.43 9.692 7.203 15.514h-14.363c-7.95 0-13.292-5.942-18.44-20.514-33.029-93.34-33.028-188.224.006-282.022 5.044-14.367 10.558-20.497 18.434-20.497h14.362c-3.774 5.823-5.941 11.94-7.206 15.52z"/><path d="m500.681 190.749c4.143 0 7.5-3.358 7.5-7.5v-168.439c.003-4.885.006-8.744-3.22-11.821-3.188-3.042-7.195-2.852-10.442-2.696-30.66 1.556-62.951 14.436-86.377 34.454-30.894 26.4-47.223 64.597-47.223 110.46v191.254c0 12.201 9.938 22.127 22.155 22.127h56.675v38.082c0 3.324.035 6.172.066 8.638.077 6.142.128 10.199-.579 11.829-.633 1.458-3.211 3.594-7.481 7.131-.866.718-1.802 1.493-2.799 2.326-11.047 9.201-17.383 22.718-17.383 37.086 0 26.643 21.675 48.319 48.317 48.319 26.627 0 48.29-21.676 48.29-48.319v-112.592-133.2c0-4.142-3.357-7.5-7.5-7.5s-7.5 3.358-7.5 7.5v125.7h-77.482l.273-194.542c.098-62.339 36.898-82.563 77.209-95.464v129.667c.001 4.142 3.358 7.5 7.501 7.5zm-40.79 306.251c-18.371 0-33.317-14.947-33.317-33.319 0-9.902 4.367-19.218 11.993-25.569.989-.827 1.907-1.587 2.758-2.292 12.706-10.525 13.715-12.821 13.49-30.7-.03-2.413-.065-5.199-.065-8.45v-38.082h38.432v105.093c-.001 18.372-14.935 33.319-33.291 33.319zm-27.026-428.441c-21.406 19.304-31.839 45.624-31.894 80.464l-.273 194.565h-17.625c-3.879 0-7.155-3.264-7.155-7.127v-191.253c0-96.366 75.517-126.833 117.262-129.806v22.47c-20.542 6.323-43.01 15.081-60.315 30.687z"/></g></g></svg>