<svg id="Layer_1" enable-background="new 0 0 512 512" height="512" viewBox="0 0 512 512" width="512" xmlns="http://www.w3.org/2000/svg"><g><g><path d="m149.042 146.178c-1.912 0-3.821-.729-5.283-2.19l-.028-.028c-2.929-2.929-2.929-7.678 0-10.606 2.93-2.929 7.678-2.929 10.607 0s2.942 7.692.014 10.621c-1.468 1.466-3.39 2.203-5.31 2.203z"/></g><g><path d="m157.453 114.946h-.028c-4.143 0-7.5-3.358-7.5-7.5s3.357-7.5 7.5-7.5 7.515 3.358 7.515 7.5-3.344 7.5-7.487 7.5z"/></g><g><path d="m110.349 147.113c-1.912 0-3.821-.729-5.283-2.19l-.028-.028c-2.929-2.929-2.929-7.678 0-10.606 2.93-2.929 7.678-2.929 10.607 0s2.942 7.692.014 10.621c-1.469 1.467-3.39 2.203-5.31 2.203z"/></g><g><path d="m337.971 112.458c-1.918 0-3.835-.729-5.296-2.19-2.929-2.929-2.943-7.664-.015-10.592l.028-.028c2.93-2.929 7.678-2.929 10.607 0s2.929 7.678 0 10.606c-1.468 1.468-3.397 2.204-5.324 2.204z"/></g><g><path d="m293.665 123.486c-1.918 0-3.835-.729-5.296-2.19-2.929-2.929-2.943-7.664-.015-10.592l.028-.028c2.93-2.929 7.678-2.929 10.607 0s2.929 7.678 0 10.606c-1.468 1.468-3.396 2.204-5.324 2.204z"/></g><g><path d="m371.47 136.986c-4.143 0-7.5-3.344-7.5-7.486v-.028c0-4.142 3.357-7.5 7.5-7.5s7.5 3.358 7.5 7.5-3.358 7.514-7.5 7.514z"/></g><g><path d="m269.986 239.712-.028.028c-2.929 2.929-2.914 7.664.015 10.592 1.461 1.461 3.378 2.19 5.296 2.19 1.928 0 3.856-.736 5.325-2.204 2.929-2.929 2.929-7.678 0-10.606-2.93-2.928-7.678-2.928-10.608 0z"/><path d="m307.658 289.263-.028.028c-2.929 2.929-2.914 7.664.015 10.592 1.461 1.461 3.378 2.19 5.296 2.19 1.928 0 3.856-.736 5.325-2.204 2.929-2.929 2.929-7.678 0-10.606-2.93-2.929-7.678-2.929-10.608 0z"/><path d="m307.829 246.459-.028.028c-2.929 2.929-2.914 7.664.015 10.592 1.461 1.461 3.378 2.19 5.296 2.19 1.928 0 3.856-.736 5.325-2.204 2.929-2.929 2.929-7.678 0-10.606-2.93-2.929-7.678-2.929-10.608 0z"/><path d="m499.482 344.158h-15.453c7.239-6.766 13.05-14.946 17.181-24.354 7.077-16.117 8.854-35.407 5.004-54.317-5.886-28.912-25.141-57.993-57.177-74.206 6.689-26.733.386-57.55-17.135-82.008-21.555-30.09-56.084-46.661-97.226-46.661-30.68 0-57.906 9.358-78.699 26.714-20.926-17.498-47.968-26.714-78.681-26.714-13.883 0-27.123 1.894-39.353 5.628-3.962 1.209-6.192 5.402-4.982 9.363 1.209 3.962 5.405 6.193 9.363 4.982 10.809-3.3 22.574-4.974 34.972-4.974 26.494 0 49.747 7.666 67.783 22.205-1.616 1.791-3.183 3.636-4.688 5.546-17.909 22.738-25.765 51.349-21.697 77.894-11.295 3.23-21.414 7.894-30.34 13.625-19.108-12.206-42.347-18.641-67.582-18.641-16.263 0-30.868 2.574-43.799 7.084-6.663-30.778 7.146-66.367 34.748-87.264 3.302-2.5 3.952-7.204 1.452-10.506-2.499-3.303-7.204-3.953-10.507-1.453-17.635 13.353-30.546 31.46-37.336 52.364-5.741 17.674-6.532 36.165-2.371 52.807-32.044 16.213-51.303 45.301-57.189 74.221-3.849 18.91-2.069 38.199 5.009 54.314 4.132 9.406 9.944 17.586 17.184 24.351h-15.474c-6.886 0-12.489 5.615-12.489 12.517v35.094c0 6.902 5.603 12.518 12.489 12.518h20.194v32.611c0 6.887 5.603 12.489 12.489 12.489h73.105c6.902 0 12.518-5.603 12.518-12.489v-32.611h106.566c4.143 0 7.5-3.358 7.5-7.5s-3.357-7.5-7.5-7.5h-222.361v-30.129h482v30.129h-224.573c-4.143 0-7.5 3.358-7.5 7.5s3.357 7.5 7.5 7.5h108.777v32.611c0 6.887 5.603 12.489 12.489 12.489h73.105c6.902 0 12.518-5.603 12.518-12.489v-32.611h20.166c6.902 0 12.518-5.615 12.518-12.518v-35.094c0-6.902-5.615-12.517-12.518-12.517zm-383.686 90.23h-68.112v-30.101h68.112zm375.72-165.908c6.85 33.646-6.609 63.169-34.319 75.678h-108.38c5.597-5.232 10.342-11.308 14.111-18.149 9.02 1.042 18.67 1.56 28.272 1.56 17.292 0 34.396-1.653 47.234-4.828 11.006-2.713 18.929-8.441 23.538-17.008 9.037-16.703 4.093-38.665-4.813-53.017-13.188-21.282-36.613-33.002-65.959-33.002-13.347 0-25.826 2.538-36.536 7.372-5.019-7.372-11.062-14.292-18.117-20.476 15.776-8.866 34.104-13.369 54.653-13.369 58.716 0 92.692 37.788 100.316 75.239zm-301.499 75.678c-27.712-12.509-41.171-42.035-34.32-75.686 7.623-37.447 41.59-75.231 100.289-75.231 58.711 0 92.685 37.793 100.31 75.249 6.85 33.643-6.607 63.162-34.312 75.668zm-47.072-32.59c-22.425 2.07-48.753.805-65.812-3.391-6.892-1.705-11.322-4.751-13.935-9.573-6.135-11.382-2.039-27.668 4.36-37.982 14.001-22.543 39.35-25.91 53.213-25.91 10.639 0 20.499 1.863 28.94 5.416-4.062 8.241-6.975 16.803-8.716 25.351-3.212 15.791-2.49 31.839 1.95 46.089zm228.048-46.071c-1.741-8.554-4.657-17.121-8.722-25.367 8.454-3.553 18.309-5.416 28.928-5.416 13.877 0 39.241 3.365 53.211 25.907 6.41 10.33 10.512 26.619 4.36 37.989-2.596 4.825-7.021 7.864-13.933 9.568-16.994 4.203-43.314 5.467-65.789 3.393 4.438-14.247 5.16-30.289 1.945-46.074zm-118.818-150.852c18.809-23.88 48.108-37.032 82.501-37.032 36.172 0 66.37 14.346 85.032 40.396 14.487 20.222 20.06 45.339 15.32 67.325-12.938-4.515-27.554-7.092-43.829-7.092-25.234 0-48.472 6.435-67.58 18.64-17.832-11.446-40.419-18.64-67.634-18.64-7.928 0-15.459.618-22.599 1.766-2.998-22.022 3.903-46.463 18.789-65.363zm-231.706 153.84c7.623-37.453 41.594-75.244 100.304-75.244 20.551 0 38.88 4.504 54.657 13.371-7.053 6.183-13.094 13.102-18.112 20.473-10.695-4.834-23.178-7.372-36.546-7.372-29.316 0-52.74 11.718-65.957 32.998-8.896 14.334-13.836 36.285-4.813 53.025 4.643 8.568 12.559 14.288 23.539 17.005 12.893 3.17 30.02 4.821 47.304 4.821 9.595 0 19.229-.517 28.223-1.556 3.77 6.843 8.516 12.919 14.115 18.152h-108.38c-27.717-12.506-41.181-42.027-34.334-75.673zm443.847 165.903h-68.112v-30.101h68.112z"/></g></g></svg>