<svg id="Layer_1" enable-background="new 0 0 512 512" height="512" viewBox="0 0 512 512" width="512" xmlns="http://www.w3.org/2000/svg"><g><path d="m498.037 296.14h-6.07c1.187-4.458 1.805-9.072 1.805-13.816 0-18.201-9.16-34.296-23.106-43.939 13.893-6.28 25.918-16.529 34.855-29.981 5.646-8.586 4.603-14.269-3.695-20.248-9.466-6.889-19.879-11.625-30.693-14.106 7.912-16.035 10.24-34.425 6.506-52.877-2.014-10.067-6.752-13.37-16.93-11.775-22.703 3.633-42.138 15.617-54.725 33.745-5.505 7.933-9.506 16.862-11.832 26.266-12.086-6.753-26.201-12.515-41.907-17.084-2.828-2.765-6.434-5.503-11.029-8.109-40.437-22.932-133.625-22.931-171.917.001-4.518 2.706-8.018 5.558-10.714 8.438-14.539 4.302-27.732 9.628-39.213 15.871-3.639 1.979-4.985 6.532-3.007 10.171 1.36 2.502 3.936 3.919 6.596 3.919 1.21 0 2.438-.293 3.576-.912 7.167-3.897 15.101-7.415 23.683-10.53-.042.741-.056 1.461-.041 2.153v67.61c0 14.968 12.189 27.145 27.172 27.145 14.967 0 27.144-12.177 27.144-27.145v-43.541c0-6.696 5.46-12.145 12.172-12.145s12.173 5.448 12.173 12.145v23.528c0 14.983 12.177 27.173 27.144 27.173 14.983 0 27.172-12.189 27.172-27.173v-13.524c0-6.696 5.448-12.145 12.144-12.145 6.712 0 12.173 5.448 12.173 12.145v13.522c0 14.983 12.189 27.173 27.172 27.173 14.967 0 27.144-12.189 27.144-27.173v-47.677c0-.67-.027-1.367-.084-2.085 39.561 14.337 63.55 36.713 63.767 59.901-22.208 6.469-38.487 26.994-38.487 51.262 0 4.735.624 9.349 1.821 13.816h-269.352c-15.816-17.432-23.312-35.121-26.993-43.813-.825-1.948-1.477-3.487-2.072-4.709-8.974-18.535-.693-34.233 7.834-44.139 2.702-3.14 2.348-7.875-.791-10.577-3.139-2.704-7.875-2.35-10.577.79-10.05 11.675-15.222 24.374-15.367 37.156-8.282 1.192-15.89 5.107-21.323 11.189-5.252 5.882-7.953 13.123-7.872 20.858-10.731 5.408-17.802 16.515-17.802 28.868 0 1.479.107 2.937.301 4.377h-10.83c-7.698.001-13.962 6.252-13.962 13.936v21.118c0 19.329 15.725 35.054 35.053 35.054h4.547v10.869c0 14.265 11.604 25.869 25.869 25.869h381.063c14.264 0 25.869-11.604 25.869-25.869v-10.869h4.519c19.344 0 35.081-15.725 35.081-35.054v-21.118c-.001-7.684-6.265-13.935-13.964-13.935zm-151.245-75.217c0 6.712-5.448 12.173-12.144 12.173-6.712 0-12.172-5.461-12.172-12.173v-13.523c0-14.968-12.19-27.145-27.173-27.145-14.967 0-27.144 12.177-27.144 27.145v13.522c0 6.712-5.46 12.173-12.172 12.173-6.696 0-12.144-5.461-12.144-12.173v-23.528c0-14.968-12.189-27.145-27.173-27.145-14.983 0-27.172 12.177-27.172 27.145v43.541c0 6.696-5.448 12.145-12.144 12.145-6.712 0-12.172-5.448-12.172-12.145v-67.693c0-.061-.001-.121-.002-.183-.142-5.814 3.838-11.189 11.829-15.975 16.66-9.978 46.848-14.958 77.333-14.958 30.695 0 61.693 5.051 79.477 15.136 8.612 4.884 12.978 10.259 12.974 15.979v47.682zm60.882-42.953c1.561-9.52 5.128-18.341 10.633-26.275 10.218-14.717 26.08-24.47 44.647-27.467 3.407 16.956.625 33.769-7.807 47.824-5.271-.117-10.573.283-15.849 1.236-9.069 1.642-17.627 4.807-25.536 9.38-1.935-1.601-3.966-3.168-6.088-4.698zm17.387 15.652c5.331-2.622 10.984-4.5 16.907-5.573 17.647-3.186 35.735 1.136 50.97 12.188-10.424 15.633-25.874 25.993-43.599 29.193-.255.049-.51.084-.765.127-2.657-.411-5.377-.626-8.147-.628-.591-12.268-5.799-24.242-15.366-35.307zm8.705 50.889c.109-.017.218-.036.326-.058 2.047-.339 4.146-.524 6.288-.524 21.17 0 38.393 17.224 38.393 38.395 0 4.816-.857 9.445-2.542 13.816h-71.676c-1.701-4.391-2.567-9.02-2.567-13.816-.001-18.915 13.75-34.668 31.778-37.813zm-381.474 30.537c3.817-1.034 6.176-4.854 5.39-8.73-1.391-6.856 1.229-11.555 3.671-14.289 3.015-3.375 7.449-5.609 12.253-6.321.845 2.839 1.935 5.664 3.291 8.464.43.882 1.042 2.328 1.751 4.004 3.309 7.815 9.447 22.3 21.328 37.965h-59.92c-.373-1.419-.564-2.881-.564-4.377-.001-7.802 5.263-14.675 12.8-16.716zm444.708 56.145c0 11.058-9.008 20.054-20.081 20.054h-202.168c-4.142 0-7.5 3.357-7.5 7.5s3.358 7.5 7.5 7.5h182.649v10.869c0 5.993-4.875 10.869-10.869 10.869h-381.062c-5.993 0-10.869-4.876-10.869-10.869v-10.869h185.342c4.142 0 7.5-3.357 7.5-7.5s-3.358-7.5-7.5-7.5h-204.889c-11.057 0-20.053-8.996-20.053-20.054v-20.053h482z"/></g></svg>