<svg id="Layer_1" enable-background="new 0 0 512 512" height="512" viewBox="0 0 512 512" width="512" xmlns="http://www.w3.org/2000/svg"><g><g><path d="m410.759 325.191c-13.307 0-26.233-4.817-36.909-13.861-6.201-5.262-6.768-10.702-1.786-17.123.004-.005.007-.01.011-.015 9.825-12.603 23.678-20.43 39.006-22.039 15.339-1.584 30.502 3.244 42.709 13.586 6.2 5.261 6.768 10.701 1.787 17.123-9.846 12.629-23.703 20.446-39.032 22.026-1.933.203-3.864.303-5.786.303zm-25.246-23.728c8.686 6.587 19.061 9.599 29.479 8.506 10.438-1.076 19.979-6.147 27.134-14.362-8.683-6.585-19.065-9.611-29.494-8.533-10.421 1.093-19.967 6.175-27.119 14.389z"/></g><g><path d="m482.56 21.041h-453.12c-16.233 0-29.44 13.207-29.44 29.44v282.282c0 16.234 13.207 29.441 29.44 29.441h212.032c4.143 0 7.5-3.357 7.5-7.5s-3.357-7.5-7.5-7.5h-212.032c-7.963 0-14.44-6.479-14.44-14.441v-282.282c0-7.963 6.478-14.44 14.44-14.44h453.12c7.963 0 14.44 6.478 14.44 14.44v282.282c0 7.963-6.478 14.441-14.44 14.441h-206.476c-4.143 0-7.5 3.357-7.5 7.5s3.357 7.5 7.5 7.5h206.476c16.233 0 29.44-13.207 29.44-29.441v-282.282c0-16.233-13.207-29.44-29.44-29.44z"/><path d="m94.946 182.214c1.462 1.461 3.371 2.189 5.283 2.189 1.92 0 3.842-.736 5.31-2.204 2.929-2.929 2.915-7.691-.014-10.621-2.93-2.928-7.678-2.928-10.607 0-2.929 2.93-2.929 7.678 0 10.607z"/><path d="m498.883 388.48-486.154 11.312c-7.138.204-12.729 5.888-12.729 12.939v53.974c0 7.054 5.592 12.737 12.769 12.94l159.818 3.714c4.147.065 7.576-3.183 7.672-7.324s-3.183-7.575-7.324-7.672l-157.935-3.67v-17.475h482v28.689l-287.753-6.694c-.06-.001-.119-.002-.178-.002-4.062 0-7.4 3.244-7.495 7.325-.097 4.142 3.183 7.576 7.323 7.673l290.019 6.747c.082.001.164.002.245.002 3.354 0 6.52-1.299 8.939-3.674 2.479-2.432 3.899-5.811 3.899-9.27v-76.595c0-3.459-1.421-6.838-3.899-9.27-2.478-2.43-5.731-3.725-9.217-3.669zm-483.883 43.739v-17.476l482-11.215v28.69h-482z"/><path d="m118.223 319.371c7.566 2.565 15.366 3.839 23.14 3.839 10.72 0 21.389-2.424 31.306-7.229 15.396-7.459 27.391-19.894 34.28-35.347 2.617.084 5.231.133 7.842.133 8.261 0 16.495-.448 24.678-1.298l4.486 10.012c3.999 8.929 11.259 15.777 20.443 19.284 4.277 1.633 8.725 2.447 13.156 2.447 5.087 0 10.153-1.073 14.916-3.211l63.97-28.626c18.488-8.245 26.815-30.009 18.559-48.525l-4.055-9.052c3.573-3.066 7.092-6.239 10.547-9.531 12.66 18.57 39.07 36.46 64.43 41 .78.14 2.17.38 3.83.38 2.64 0 5.94-.61 8.54-3.22 4.44-4.46 3.25-11.13 2.8-13.61-3.43-19.58-9.72-33.61-20.57-45.42 10.85-11.79 17.13-25.81 20.57-45.37.45-2.51 1.64-9.18-2.8-13.64-4.24-4.26-10.36-3.19-12.39-2.83-25.68 4.57-52.44 22.86-64.9 41.69-16.681-14.449-36.537-28.314-51.659-38.243l19.558-30.513c1.323-2.063 1.554-4.645.617-6.911s-2.922-3.932-5.315-4.46l-107.8-23.782c-18.41-4.07-33.722-1.071-45.509 8.919-8.08 6.849-14.127 16.911-17.663 29.294-5.112.852-10.213 1.877-15.304 3.038 1.133-16.338-3.948-32.519-14.571-46.004-5.59-7.077-11.083-7.841-18.363-2.56-14.748 10.681-24.319 25.992-27.108 43.223-13.715-6.489-29.367-7.55-44.524-2.906-8.173 2.493-10.865 7.295-8.727 15.584 3.392 13.02 10.478 24.197 20.322 32.365-15.697 11.824-24.515 27.141-24.515 43.116 0 17.803 10.95 34.788 30.18 47.041-6.302 34.62 13.745 69.419 47.603 80.923zm273.967-137.813c8.21-13.84 30.28-31.64 53.87-36.75-3.46 18.64-9.66 30.59-21.22 41.02-1.58 1.42-2.48 3.44-2.48 5.56 0 2.13.9 4.15 2.47 5.57 11.56 10.45 17.77 22.41 21.23 41.05-23.5-5.12-45.49-22.81-53.77-36.6-2.24-3.73-3.48-7.17-3.48-10.01 0-2.79 1.2-6.18 3.38-9.84zm-304.705 87.909c-2.473-7.281-3.492-15.097-2.82-23.006 8.289 4.432 16.653 8.444 25.07 12.028zm28.62 32.804c-9.083-4.5-16.579-11.252-21.991-19.35l34.311-16.928zm14.206 4.816 12.313-36.256 16.88 34.255c-9.211 3.134-19.252 3.951-29.193 2.001zm42.652-8.624-11.561-23.461c9.754 2.097 19.521 3.616 29.27 4.571-4.437 7.709-10.55 14.115-17.709 18.89zm177.358-32.782-63.986 28.633c-5.256 2.359-11.146 2.516-16.587.438-5.443-2.078-9.742-6.127-12.104-11.402l-2.687-5.997c37.474-6.447 72.648-21.993 103.922-45.793l2.425 5.412c4.884 10.951-.039 23.828-10.983 28.709zm-149.729-177.981c8.021-6.798 18.981-8.722 32.574-5.714l97.301 21.466-13.926 21.726c-37.155-17.906-77.225-25.48-119.131-22.5-2.526.179-5.05.398-7.573.652 2.295-5.621 5.697-11.343 10.755-15.63zm14.338 29.538c33.72 0 66.59 7.4 96.88 22.31 15.9 10.08 42.57 27.89 62.7 45.98-.46 2-.7 3.96-.7 5.87 0 2.13.3 4.33.87 6.57-63.972 63.221-148.776 82.887-233.495 56.21 14.754-18.062 22.769-39.962 22.769-62.768 0-22.76-7.983-44.617-22.679-62.659 24.562-7.654 49.329-11.513 73.655-11.513zm-102.433-10.451c1.836-13.257 8.927-25.155 20.03-33.671 8.354 11.216 11.936 24.597 10.097 37.858-.075.544-.182 1.095-.278 1.643-9.863 2.87-19.674 6.331-29.421 10.357-1.027-5.341-1.187-10.758-.428-16.187zm-52.79 7.342c11.95-3.152 24.13-1.728 34.5 4.071 1.097.614 2.141 1.256 3.131 1.92.307 3.035.836 6.053 1.578 9.049-6.831 3.231-13.625 6.751-20.378 10.551-8.979-5.915-15.572-14.852-18.831-25.591zm-4.267 77.279c0-13.45 9.16-26.22 25.78-35.95.331-.194.664-.38.996-.572.075-.043.151-.083.224-.129 14.303-8.278 28.868-15.198 43.556-20.745 14.836 16.133 22.958 36.34 22.958 57.398 0 21.087-8.143 41.321-23.018 57.465-14.986-5.711-29.93-12.874-44.716-21.518-16.62-9.729-25.78-22.499-25.78-35.949z"/><path d="m201.687 240.286c2.026 0 4.282-.604 6.812-1.796.008-.003.016-.007.023-.01 14.977-7.118 25.995-19.387 31.027-34.55 5.024-15.168 3.533-31.595-4.194-46.244-3.89-7.396-9.004-9.103-16.616-5.516-14.944 7.135-25.956 19.396-31.015 34.542-5.032 15.188-3.54 31.616 4.194 46.245 2.592 4.928 5.726 7.329 9.769 7.329zm.269-48.839c3.521-10.538 11.003-19.235 21.163-24.688 4.898 10.463 5.687 21.901 2.192 32.45-3.498 10.54-10.969 19.229-21.159 24.678-4.903-10.449-5.692-21.888-2.196-32.44z"/><path d="m268.088 213.483c1.128.605 2.342.892 3.538.892 2.675 0 5.264-1.434 6.616-3.956 7.857-14.65 7.856-37.578-.004-52.197-1.961-3.648-6.508-5.017-10.157-3.054-3.648 1.961-5.016 6.509-3.054 10.157 5.53 10.286 5.528 27.689-.004 38.004-1.958 3.65-.585 8.196 3.065 10.154z"/><path d="m300.975 200.598c-1.447 3.881.526 8.2 4.408 9.646.863.322 1.748.475 2.618.475 3.042 0 5.903-1.864 7.028-4.883 4.264-11.436 4.262-29.33-.002-40.736-1.45-3.881-5.774-5.848-9.651-4.399-3.88 1.451-5.85 5.771-4.399 9.651 3.006 8.043 3.005 22.175-.002 30.246z"/></g></g></svg>