<svg id="Layer_1" enable-background="new 0 0 512 512" height="512" viewBox="0 0 512 512" width="512" xmlns="http://www.w3.org/2000/svg"><g><g><path d="m437.016 74.979c-48.355-48.351-112.646-74.979-181.03-74.979-53.219 0-104.245 16.179-147.563 46.786-3.383 2.39-4.188 7.07-1.797 10.453 2.391 3.384 7.07 4.188 10.453 1.797 40.772-28.808 88.805-44.036 138.907-44.036 132.895 0 241.014 108.105 241.014 240.985 0 132.896-108.119 241.015-241.014 241.015-132.88 0-240.986-108.119-240.986-241.015 0-66.379 27.786-130.477 76.232-175.858 3.023-2.832 3.178-7.578.346-10.601-2.831-3.022-7.578-3.178-10.6-.346-25.292 23.692-45.203 51.712-59.178 83.282-14.466 32.675-21.8 67.505-21.8 103.523 0 68.385 26.628 132.676 74.98 181.031 48.35 48.354 112.632 74.984 181.006 74.984 68.386 0 132.677-26.63 181.031-74.983 48.353-48.354 74.983-112.646 74.983-181.032 0-68.373-26.63-132.655-74.984-181.006z"/><path d="m445.969 146.307c-6.432-11.147-17.307-17.378-27.823-23.403-6.598-3.779-12.829-7.35-17.273-11.793-4.433-4.444-7.999-10.665-11.774-17.251-6.036-10.53-12.277-21.419-23.429-27.854-11.129-6.434-23.661-6.392-35.783-6.347-7.605.025-14.783.051-20.852-1.576-6.079-1.629-12.292-5.241-18.869-9.064-10.481-6.094-21.319-12.395-34.181-12.395s-23.69 6.301-34.161 12.394c-6.573 3.824-12.781 7.437-18.86 9.065s-13.259 1.601-20.867 1.576c-12.114-.046-24.647-.086-35.792 6.344-11.147 6.432-17.378 17.306-23.403 27.823-3.78 6.597-7.35 12.828-11.799 17.278-4.45 4.449-10.681 8.02-17.279 11.799-10.516 6.025-21.391 12.256-27.823 23.403-6.43 11.145-6.386 23.674-6.344 35.791.027 7.604.052 14.788-1.576 20.867s-5.241 12.287-9.066 18.86c-6.093 10.472-12.393 21.299-12.393 34.16 0 12.862 6.301 23.7 12.395 34.181 3.824 6.578 7.436 12.79 9.065 18.872 1.627 6.066 1.602 13.247 1.575 20.85-.042 12.12-.086 24.653 6.344 35.777 6.438 11.158 17.326 17.398 27.856 23.434 6.586 3.775 12.808 7.342 17.246 11.77 4.45 4.449 8.02 10.681 11.799 17.278 6.025 10.517 12.256 21.391 23.403 27.822 11.145 6.432 23.684 6.406 35.796 6.361 7.6-.021 14.784-.042 20.862 1.587 6.079 1.629 12.286 5.235 18.857 9.054 10.473 6.085 21.303 12.377 34.165 12.377s23.702-6.293 34.185-12.379c6.576-3.817 12.787-7.423 18.868-9.052 6.065-1.629 13.243-1.604 20.845-1.587 12.12.047 24.657.069 35.782-6.361 11.158-6.438 17.399-17.326 23.435-27.856 3.775-6.586 7.341-12.807 11.762-17.238 4.443-4.434 10.665-8 17.251-11.775 10.53-6.035 21.418-12.275 27.853-23.429 6.433-11.13 6.398-23.664 6.364-35.786-.021-7.601-.042-14.78 1.587-20.849 1.628-6.078 5.234-12.29 9.052-18.865 6.086-10.482 12.379-21.322 12.379-34.185 0-12.861-6.292-23.69-12.377-34.163-3.818-6.571-7.425-12.778-9.053-18.857s-1.608-13.26-1.587-20.862c.033-12.121.068-24.652-6.362-35.796zm14.379 109.678c0 8.823-5.028 17.484-10.351 26.653-4.142 7.134-8.424 14.511-10.568 22.513-2.146 7.996-2.122 16.525-2.099 24.774.03 10.6.058 20.611-4.354 28.243-4.416 7.652-13.114 12.638-22.323 17.916-7.146 4.096-14.534 8.331-20.399 14.183-5.839 5.853-10.074 13.24-14.169 20.386-5.278 9.209-10.264 17.908-17.922 22.326-7.628 4.408-17.647 4.385-28.238 4.351-8.251-.019-16.779-.046-24.771 2.099-8.004 2.145-15.381 6.427-22.515 10.568-9.169 5.323-17.83 10.351-26.653 10.351-8.821 0-17.471-5.026-26.629-10.347-7.13-4.144-14.504-8.428-22.511-10.572-7.178-1.923-14.776-2.103-22.216-2.103-.858 0-1.715.002-2.569.004-10.602.044-20.611.058-28.258-4.354-7.641-4.408-12.616-13.093-17.884-22.287-4.102-7.16-8.344-14.564-14.214-20.435-5.853-5.839-13.241-10.074-20.387-14.17-9.209-5.278-17.908-10.264-22.326-17.921-4.405-7.622-4.37-17.629-4.333-28.224.029-8.253.059-16.788-2.087-24.786-2.146-8.01-6.437-15.39-10.586-22.527-5.329-9.166-10.362-17.823-10.362-26.642 0-8.814 5.031-17.462 10.358-26.616 4.151-7.134 8.443-14.511 10.59-22.523 2.146-8.012 2.116-16.547 2.087-24.801-.037-10.595-.072-20.602 4.336-28.242 4.409-7.641 13.093-12.616 22.288-17.884 7.16-4.103 14.564-8.345 20.428-14.208 5.864-5.864 10.106-13.269 14.208-20.429 5.268-9.194 10.244-17.879 17.885-22.287 7.64-4.408 17.648-4.379 28.242-4.336 8.253.026 16.788.059 24.801-2.088 8.012-2.146 15.388-6.438 22.522-10.589 9.155-5.327 17.802-10.358 26.618-10.358 8.818 0 17.476 5.033 26.642 10.362 7.137 4.149 14.517 8.439 22.523 10.585 8.001 2.147 16.537 2.114 24.789 2.088 10.589-.043 20.601-.073 28.229 4.336 7.652 4.415 12.638 13.114 17.917 22.323 4.096 7.146 8.331 14.533 14.176 20.392 5.864 5.864 13.268 10.106 20.428 14.209 9.194 5.268 17.879 10.243 22.288 17.884 4.411 7.646 4.383 17.657 4.354 28.258-.023 8.249-.047 16.779 2.098 24.785 2.145 8.008 6.43 15.381 10.573 22.512 5.318 9.159 10.344 17.808 10.344 26.628z"/><path d="m245.781 104.149c1.919 0 3.839-.732 5.303-2.196 4.656-4.655 12.233-4.657 16.89 0 2.93 2.928 7.677 2.929 10.607-.001 2.929-2.929 2.928-7.678 0-10.606-10.506-10.504-27.598-10.504-38.103 0-2.929 2.93-2.929 7.678 0 10.607 1.464 1.464 3.384 2.196 5.303 2.196z"/><path d="m298.445 395.084c-3.927-1.313-8.178.808-9.491 4.736-2.085 6.237-8.876 9.629-15.138 7.559-3.935-1.299-8.175.835-9.475 4.768s.834 8.175 4.768 9.475c2.8.926 5.646 1.365 8.448 1.365 11.297 0 21.859-7.148 25.624-18.412 1.313-3.929-.807-8.178-4.736-9.491z"/><path d="m382.869 158.058c3.178.144 6.11 1.519 8.256 3.872 2.15 2.358 3.25 5.414 3.099 8.604-.196 4.137 2.999 7.65 7.136 7.847.122.006.242.009.362.009 3.979 0 7.295-3.128 7.486-7.145.342-7.199-2.143-14.097-6.997-19.421-4.85-5.32-11.48-8.429-18.668-8.751-4.121-.219-7.643 3.018-7.829 7.155-.187 4.139 3.016 7.644 7.155 7.83z"/><path d="m323.252 118.437h.029c4.142 0 7.486-3.357 7.486-7.5s-3.373-7.5-7.515-7.5-7.5 3.357-7.5 7.5 3.358 7.5 7.5 7.5z"/><path d="m224.916 413.164c-2.929 2.93-2.929 7.678 0 10.607l.028.028c1.461 1.461 3.371 2.189 5.282 2.189 1.92 0 3.842-.736 5.31-2.204 2.929-2.929 2.915-7.691-.014-10.621-2.929-2.927-7.678-2.927-10.606.001z"/><path d="m341.514 253.31c.902-4.042-1.644-8.051-5.687-8.953-4.044-.897-8.052 1.644-8.953 5.688-10.306 46.194-31.455 69.255-70.716 77.107-15.347 3.073-31.651-1.598-45.914-13.144-13.833-11.201-23.689-27.233-27.041-43.988-6.455-32.252 10.557-56.846 53.538-77.396 12.442-5.948 22.528-20.636 27.387-31.412 7.192-15.982 26.152-18.865 40.725-14.777 16.224 4.55 33.95 19.641 30.517 47.188-.334 2.652-.661 5.311-.988 7.972-.606 4.927-1.233 10.021-1.896 14.992-.547 4.105 2.337 7.878 6.443 8.426 4.103.549 7.878-2.337 8.425-6.443.673-5.046 1.305-10.179 1.916-15.143.326-2.646.651-5.291.984-7.938 4.317-34.641-17.657-56.851-41.35-63.495-25.135-7.051-49.172 2.437-58.451 23.06-4.111 9.117-12.363 20.302-20.181 24.039-49.477 23.657-69.684 54.363-61.776 93.872 4.025 20.128 15.802 39.338 32.311 52.703 14.123 11.436 30.077 17.417 45.96 17.417 4.127 0 8.251-.404 12.335-1.222 58.128-11.63 74.577-53.433 82.412-88.553z"/><path d="m108.241 198.963c.242.023.481.035.72.035 3.822-.001 7.088-2.908 7.458-6.79.625-6.562 6.482-11.385 13.055-10.763 4.121.394 7.785-2.631 8.177-6.755.393-4.123-2.632-7.784-6.755-8.177-14.797-1.41-28 9.478-29.409 24.272-.394 4.124 2.631 7.785 6.754 8.178z"/><path d="m149.06 205.583c-2.929 2.93-2.929 7.678 0 10.607l.028.028c1.461 1.461 3.371 2.189 5.282 2.189 1.92 0 3.842-.736 5.31-2.204 2.929-2.929 2.915-7.691-.014-10.621-2.928-2.927-7.677-2.927-10.606.001z"/><path d="m398.255 333.709c-2.929 2.93-2.929 7.678 0 10.607l.028.028c1.461 1.461 3.371 2.189 5.282 2.189 1.92 0 3.842-.736 5.31-2.204 2.929-2.929 2.915-7.691-.014-10.621-2.928-2.927-7.677-2.927-10.606.001z"/><path d="m231.124 372.686c-2.929 2.93-2.929 7.678 0 10.607l.028.028c1.461 1.461 3.371 2.189 5.282 2.189 1.92 0 3.842-.736 5.31-2.204 2.929-2.929 2.915-7.691-.014-10.621-2.929-2.927-7.678-2.927-10.606.001z"/><path d="m278.252 217.394c-10.366-6.911-22.805-9.367-35.023-6.916-12.206 2.437-22.729 9.482-29.634 19.84-6.911 10.365-9.367 22.804-6.917 35.016 4.415 22.135 23.94 37.491 45.725 37.491 3.015 0 6.074-.295 9.142-.905 25.207-5.062 41.603-29.687 36.549-54.884-2.435-12.209-9.482-22.736-19.842-29.642zm-19.649 69.816c-2.082.415-4.154.614-6.2.614-14.774-.002-28.021-10.415-31.017-25.433-1.662-8.288.003-16.725 4.689-23.753 4.683-7.024 11.819-11.802 20.096-13.452.002-.001.005-.001.007-.002 2.095-.42 4.198-.628 6.287-.628 6.175 0 12.214 1.815 17.466 5.317 7.024 4.683 11.801 11.819 13.454 20.103 3.429 17.098-7.694 33.802-24.782 37.234z"/><path d="m191.905 344.668c-12.484-13.523-28.611-16.334-49.299-8.598-11.43 4.279-11.984 15.141-11.189 24.151l.017.183c.532 5.796 1.134 12.364 6.07 19.821 6.72 10.168 14.287 12.583 21.692 12.583 3.487 0 6.939-.536 10.25-1.05 3.401-.528 6.918-1.074 10.772-1.2 8.734-.3 15.593-4.896 18.819-12.609 4.255-10.173 1.259-24.166-7.125-33.273-.001-.002-.004-.005-.007-.008zm-6.705 27.493c-.958 2.288-2.601 3.308-5.484 3.406-4.752.155-8.906.8-12.571 1.369-9.638 1.493-12.547 1.947-17.129-4.986-2.854-4.313-3.168-7.735-3.644-12.916l-.015-.158c-.468-5.303.121-7.338.396-7.967.122-.279.195-.447 1.11-.79 5.77-2.157 10.84-3.247 15.362-3.247 7.025 0 12.726 2.63 17.656 7.968 4.91 5.338 6.065 13.146 4.319 17.321z"/><path d="m352.804 324.009c-.005-.002-.01-.005-.015-.008-14.674-8.109-36.431 5.073-43.386 17.592-3.878 7.017-4.62 16.352-1.983 24.973 2.943 9.624 9.791 17.594 19.284 22.442 4.75 2.422 9.016 3.366 12.782 3.366 6.181 0 11.015-2.546 14.424-5.283 5.892-4.729 9.663-11.597 12.694-17.115l.625-1.136c7.886-14.234-1.594-37.702-14.425-44.831zm1.301 37.568-.648 1.178c-7.3 13.292-11.407 17.241-19.934 12.892-7.483-3.821-10.524-9.434-11.759-13.469-1.733-5.668-.74-10.602.759-13.314 3.534-6.361 13.93-12.363 20.117-12.363 1.121 0 2.104.197 2.883.625 6.643 3.694 11.857 18.54 8.582 24.451z"/><path d="m143.429 311.112c7.864-14.411 9.565-30.637 4.789-45.688s-15.509-27.335-30.205-34.582c-7.46-3.702-12.58-2.089-16.599 5.235-.004.007-.008.015-.012.021-7.845 14.405-9.535 30.629-4.76 45.673 4.756 15.056 15.48 27.344 30.239 34.62 2.546 1.236 4.817 1.861 6.863 1.861 3.957.002 7.068-2.341 9.685-7.14zm-32.487-33.867c-3.299-10.397-2.388-21.618 2.542-31.845 9.923 5.521 17.138 14.166 20.436 24.562 3.298 10.393 2.377 21.612-2.568 31.846-9.92-5.52-17.124-14.162-20.41-24.563z"/><path d="m170.676 180.676c.477.037.948.055 1.418.055 10.591 0 19.505-9.052 26.726-16.387 1.071-1.087 2.096-2.129 3.058-3.065 12.072-11.707 12.006-38.356 3.488-51.153-.003-.004-.005-.008-.008-.013-1.932-2.889-5.833-6.503-13.45-7.312-13.208-1.401-32.352 6.537-40.656 14.588-11.774 11.488-9.944 34.158 4.341 53.89 4.173 5.788 9.248 8.95 15.083 9.397zm-8.966-52.534c4.987-4.836 18.192-10.508 26.908-10.508.191 0 .38.003.566.009 2.507.074 3.553.654 3.707.813 4.775 7.204 4.827 25.961-1.464 32.062-1.043 1.015-2.146 2.134-3.296 3.303-4.503 4.574-12.058 12.222-16.309 11.899-1.526-.116-3.051-1.812-4.07-3.226-9.416-13.005-12.119-28.423-6.042-34.352z"/><path d="m401.543 231.805c-4.964-6.472-10.376-7.288-17.002-2.597-13.162 9.227-21.695 22.713-24.026 37.96-2.362 15.241 1.695 30.671 11.445 43.479 2.864 3.724 5.878 5.573 9.198 5.573 2.426 0 5.015-.988 7.827-2.956 13.159-9.225 21.692-22.721 24.026-37.988 2.364-15.258-1.705-30.691-11.458-43.459-.004-.004-.007-.008-.01-.012zm-3.358 41.189c-1.591 10.406-7.167 19.726-15.789 26.488-6.165-9.068-8.667-19.637-7.056-30.032 1.586-10.375 7.152-19.677 15.787-26.456 6.167 9.051 8.669 19.607 7.058 30z"/></g></g></svg>