<svg id="Layer_1" enable-background="new 0 0 512 512" height="512" viewBox="0 0 512 512" width="512" xmlns="http://www.w3.org/2000/svg"><g><g><path d="m139.6 68.793c-3.138 2.704-3.489 7.439-.785 10.577 1.483 1.721 3.578 2.604 5.685 2.604 1.734 0 3.477-.599 4.893-1.819 7.591-6.542 18.277-23.975 4.394-43.116-8.502-11.741-3.563-16.573.796-20.837.523-.511.983-.966 1.354-1.362 2.83-3.024 2.672-7.771-.352-10.601-3.025-2.83-7.771-2.674-10.601.353-.243.259-.548.553-.891.888-2.485 2.432-7.112 6.957-9.048 13.884-2.324 8.315-.106 17.223 6.596 26.478 8.855 12.206-.186 21.294-2.041 22.951z"/><path d="m82.586 68.797c-3.135 2.707-3.482 7.443-.775 10.578 1.483 1.718 3.576 2.599 5.68 2.599 1.736 0 3.481-.6 4.898-1.823 7.576-6.541 18.243-23.97 4.389-43.112-8.502-11.741-3.563-16.573.796-20.837.522-.511.983-.966 1.354-1.362 2.831-3.024 2.673-7.771-.352-10.601s-7.77-2.674-10.601.353c-.243.259-.548.553-.89.888-2.485 2.432-7.112 6.957-9.048 13.884-2.324 8.315-.106 17.223 6.591 26.472 8.839 12.212-.189 21.304-2.042 22.961z"/><path d="m413.973 68.793c-3.138 2.704-3.489 7.439-.784 10.577 1.483 1.721 3.577 2.604 5.684 2.604 1.734 0 3.477-.599 4.893-1.819 7.591-6.542 18.277-23.975 4.395-43.116-8.502-11.742-3.563-16.573.796-20.837.522-.511.982-.966 1.354-1.361 2.83-3.024 2.673-7.771-.351-10.601-3.025-2.832-7.771-2.674-10.601.351-.243.26-.548.554-.89.889-2.485 2.431-7.112 6.956-9.048 13.883-2.325 8.316-.107 17.224 6.595 26.479 8.853 12.206-.188 21.294-2.043 22.951z"/><path d="m356.959 68.797c-3.135 2.707-3.482 7.443-.775 10.578 1.483 1.718 3.576 2.599 5.68 2.599 1.736 0 3.481-.6 4.898-1.823 7.576-6.541 18.243-23.97 4.389-43.112-8.502-11.741-3.562-16.573.796-20.837.522-.511.982-.965 1.354-1.361 2.83-3.024 2.673-7.771-.351-10.601-3.025-2.832-7.771-2.674-10.601.351-.243.26-.548.554-.89.889-2.485 2.431-7.112 6.956-9.049 13.883-2.324 8.316-.106 17.224 6.591 26.473 8.839 12.212-.189 21.304-2.042 22.961z"/><path d="m485.146 180.672h-18.109c.521-6.302.802-12.2-3.059-16.4-3.897-4.24-9.374-4.24-16.955-4.24h-10.167c.312-7.607-1.728-15.266-5.961-21.688-5.272-7.997-13.273-13.369-22.885-15.471-5.649-18.037-21.318-26.259-35.362-26.338-.07-.001-.137-.001-.207-.001-14.118 0-29.907 8.18-35.752 26.346-4.01.898-7.739 2.405-11.112 4.453-1.508-1.184-3.055-2.276-4.643-3.284-10.085-32.885-10.637-67.711-10.967-88.739-.024-1.525-.047-2.972-.072-4.332-.076-4.088-3.411-7.361-7.499-7.361h-92.822c-4.092 0-7.429 3.28-7.499 7.372l-.062 4.004c-.226 15.37-.592 40.141-5.298 65.645-1.177.203-2.424.512-3.768.953-19.75 6.549-35.386 20.045-44.083 38.018-12.498-12.075-29.182-18.793-47.346-18.986-9.155-.08-13.248 3.747-13.715 12.868-.479 9.167.746 18.164 3.568 26.542h-26.394c-7.581 0-13.057 0-16.955 4.24-3.861 4.2-3.579 10.099-3.059 16.4h-18.138c-14.791-.001-26.825 12.033-26.825 26.824 0 14.808 12.034 26.854 26.825 26.854h29.237c11.267 33.027 30.306 62.976 55.865 87.188 12.777 12.104 26.848 22.417 41.872 30.836-4.78 36.401-16.56 64.406-42.128 100.368h-16.144c-15.726 0-28.52 12.794-28.52 28.521v15.495c0 7.183 5.843 13.026 13.025 13.026h351.935c7.182 0 13.025-5.844 13.025-13.026v-15.495c0-15.727-12.807-28.521-28.549-28.521h-16.115c-25.555-35.944-37.342-63.946-42.152-100.354 15.033-8.421 29.112-18.74 41.896-30.85 25.559-24.211 44.603-54.159 55.869-87.188h29.204c14.807 0 26.854-12.047 26.854-26.854.001-14.791-12.046-26.825-26.853-26.825zm-458.321 38.68c-6.52 0-11.825-5.318-11.825-11.854 0-6.521 5.305-11.825 11.825-11.825h19.858c1.19 8.013 2.817 15.916 4.859 23.68h-24.717zm299.933-72.839c2.602-3.907 7.594-8.73 16.605-9.517 3.327-.29 6.061-2.744 6.707-6.021 2.832-14.358 13.791-19.441 22.371-19.441h.123c8.503.049 19.368 5.147 22.004 19.358.614 3.313 3.364 5.811 6.722 6.104 7.356.643 13.423 4.053 17.083 9.604 2.615 3.966 3.805 8.734 3.47 13.431h-98.898c-.185-4.639 1.135-9.495 3.813-13.518zm-15.647-10.925c.056.029.108.064.164.092 1.178.668 2.275 1.369 3.299 2.098-.099.143-.206.278-.302.423-4.359 6.548-6.535 14.255-6.348 21.83h-55.998c.55-.88 1.095-1.747 1.6-2.548 1.765-2.801 3.59-5.696 5.316-8.636 1.78-3.03 3.248-5.671 4.542-8.001 3.521-6.337 5.304-9.428 7.333-10.448 2.68-1.348 8.892-1.256 18.038-.669 10.158.66 17.099 2.911 22.356 5.859zm-100.455-25.554c-.109-.29-.226-.554-.339-.83 2.07-9.89 3.474-19.7 4.441-29.015h82.453c1.209 11.655 3.11 24.07 6.168 36.557-4.222-1.006-8.744-1.666-13.659-1.986-25.928-1.662-29.731 1.317-39.447 18.8-1.254 2.256-2.676 4.814-4.366 7.691-1.607 2.737-3.368 5.531-5.071 8.233-2.766 4.389-4.879 7.743-6.264 10.546h-22.513c5.261-15.962 4.836-33.395-1.403-49.996zm84.362-71.417c.126 7.574.332 16.622.954 26.573h-79.971c.637-10.091.841-19.181.959-26.573zm-132.79 107.792c6.781-14.201 19.083-24.947 34.673-30.322 5.347 14.774 5.025 30.261-.857 43.944h-38.313c.914-4.696 2.412-9.256 4.497-13.622zm-59.5-10.757c14.638.491 27.912 6.337 37.49 16.538 1.087 1.162 2.11 2.372 3.075 3.611-.301 1.4-.548 2.812-.768 4.231h-35.055c-3.361-7.475-4.99-15.798-4.742-24.38zm279.368 317.091h-102.562c-4.142 0-7.5 3.357-7.5 7.5s3.358 7.5 7.5 7.5h136.909c7.471 0 13.549 6.065 13.549 13.521v13.521h-347.985v-13.521c0-7.455 6.065-13.521 13.52-13.521h146.264c4.142 0 7.5-3.357 7.5-7.5s-3.358-7.5-7.5-7.5h-111.887c21.617-32.182 32.913-59.904 38.014-93.146 27.316 12.68 57.263 19.385 88.081 19.385 30.81 0 60.75-6.701 88.061-19.375 5.125 33.249 16.427 60.968 38.036 93.136zm69.908-272.304c-.605 7.184-1.579 14.242-2.877 21.167h-172.691c-4.142 0-7.5 3.357-7.5 7.5s3.358 7.5 7.5 7.5h169.3c-22.878 86.127-99.059 147.377-189.736 147.377s-166.857-61.249-189.735-147.377h173.042c4.142 0 7.5-3.357 7.5-7.5s-3.358-7.5-7.5-7.5h-176.434c-1.298-6.925-2.272-13.983-2.877-21.168-.195-2.306-.3-4.089-.316-5.337 1.46-.069 387.344-.069 387.344-.069 1.841 0 3.837 0 5.297.069-.017 1.248-.122 3.031-.317 5.338zm33.142 38.913h-24.684c.733-2.787 1.417-5.591 2.041-8.413.047-.187.088-.377.12-.569 1.061-4.853 1.959-9.755 2.695-14.697h19.827c6.536 0 11.854 5.305 11.854 11.825.001 6.536-5.317 11.854-11.853 11.854z"/></g></g></svg>