<svg id="Layer_1" enable-background="new 0 0 512 512" height="512" viewBox="0 0 512 512" width="512" xmlns="http://www.w3.org/2000/svg"><g><g><path d="m122.672 155.146c42.774 0 77.573-34.799 77.573-77.573s-34.799-77.573-77.573-77.573-77.573 34.799-77.573 77.572c0 42.775 34.799 77.574 77.573 77.574zm0-140.146c34.503 0 62.573 28.069 62.573 62.572s-28.07 62.573-62.573 62.573-62.573-28.07-62.573-62.573 28.07-62.572 62.573-62.572z"/><path d="m122.672 122.15c24.58 0 44.578-19.998 44.578-44.578s-19.998-44.577-44.578-44.577-44.577 19.997-44.577 44.577 19.997 44.578 44.577 44.578zm0-74.155c16.309 0 29.578 13.269 29.578 29.577 0 16.31-13.269 29.578-29.578 29.578s-29.577-13.268-29.577-29.578c0-16.308 13.268-29.577 29.577-29.577z"/><path d="m295.586 155.146c42.789 0 77.601-34.799 77.601-77.573s-34.812-77.573-77.601-77.573c-42.774 0-77.573 34.799-77.573 77.572 0 42.775 34.799 77.574 77.573 77.574zm0-140.146c34.518 0 62.601 28.069 62.601 62.572s-28.083 62.573-62.601 62.573c-34.503 0-62.573-28.07-62.573-62.573s28.07-62.572 62.573-62.572z"/><path d="m295.586 122.15c24.596 0 44.605-19.998 44.605-44.578s-20.01-44.577-44.605-44.577c-24.58 0-44.577 19.997-44.577 44.577s19.997 44.578 44.577 44.578zm0-74.155c16.324 0 29.605 13.269 29.605 29.577 0 16.31-13.281 29.578-29.605 29.578-16.309 0-29.577-13.269-29.577-29.578 0-16.308 13.268-29.577 29.577-29.577z"/><path d="m484.006 270.567h-12.995v-83.436c0-9.543-7.307-17.308-16.287-17.308h-181.475c-4.143 0-7.5 3.357-7.5 7.5s3.357 7.5 7.5 7.5h181.475c.454 0 1.287.876 1.287 2.308v307.561c0 1.409-.845 2.308-1.287 2.308h-181.475c-4.143 0-7.5 3.357-7.5 7.5s3.357 7.5 7.5 7.5h181.475c8.98 0 16.287-7.765 16.287-17.308v-83.436h12.995c15.436 0 27.994-12.559 27.994-27.995v-84.728c0-15.42-12.559-27.966-27.994-27.966zm12.994 112.695c0 7.165-5.829 12.995-12.994 12.995h-12.995v-110.69h12.995c7.165 0 12.994 5.816 12.994 12.967z"/><path d="m171.766 343.116c3.015-2.199 6.232-1.981 8.402-1.413 3.493.917 6.5 3.325 7.85 6.287 1.258 2.762 3.981 4.393 6.83 4.393 1.04 0 2.097-.218 3.105-.677 3.77-1.718 5.433-6.165 3.716-9.935-3.219-7.065-9.833-12.515-17.693-14.577-7.399-1.94-15.071-.556-21.047 3.803-3.347 2.44-4.081 7.133-1.64 10.479 2.437 3.345 7.128 4.082 10.477 1.64z"/><path d="m158.684 374.151c4.662-1.249 7.704.05 9.041 3.856 1.084 3.087 3.981 5.018 7.077 5.018.824 0 1.663-.137 2.484-.426 3.908-1.372 5.964-5.652 4.592-9.561-3.294-9.383-12.941-17.16-27.073-13.378-4.001 1.071-6.376 5.184-5.306 9.185 1.072 4.002 5.184 6.375 9.185 5.306z"/><path d="m302.438 324.539c.584.14 1.168.206 1.743.206 3.394 0 6.47-2.319 7.29-5.765.494-2.072 4.163-3.951 7.727-3.189 4.042.857 8.034-1.723 8.896-5.775.862-4.051-1.724-8.034-5.775-8.896-11.349-2.409-23.006 4.171-25.439 14.387-.961 4.028 1.528 8.072 5.558 9.032z"/><path d="m312.946 349.983c-.721 4.078 2.003 7.969 6.082 8.689.44.078.88.115 1.313.115 3.57 0 6.734-2.559 7.377-6.197.873-4.946 7.571-6.044 9.604-6.263 4.118-.443 7.098-4.141 6.654-8.26-.443-4.118-4.132-7.091-8.26-6.654-12.255 1.319-20.98 8.435-22.77 18.57z"/><path d="m331.975 375.945c-1.473 3.871.471 8.204 4.342 9.678.878.334 1.78.492 2.667.492 3.022 0 5.871-1.841 7.011-4.834 1.804-4.739 6.506-7.27 12.923-6.969 4.162.201 7.654-2.99 7.854-7.128s-2.99-7.654-7.128-7.854c-12.941-.622-23.53 5.739-27.669 16.615z"/><path d="m238.609 497h-181.361c-.393 0-1.287-.872-1.287-2.308v-307.56c0-1.499.914-2.308 1.287-2.308h181.361c4.142 0 7.5-3.357 7.5-7.5s-3.358-7.5-7.5-7.5h-181.361c-8.98 0-16.287 7.765-16.287 17.308v83.436h-12.995c-15.421-.001-27.966 12.545-27.966 27.966v84.728c0 15.437 12.545 27.995 27.966 27.995h12.995v83.436c0 9.543 7.307 17.308 16.287 17.308h181.361c4.142 0 7.5-3.357 7.5-7.5s-3.358-7.501-7.5-7.501zm-197.648-100.743h-12.995c-7.149 0-12.966-5.83-12.966-12.995v-84.728c0-7.15 5.817-12.967 12.966-12.967h12.995z"/><path d="m81.525 217.859v246.077c0 4.143 3.358 7.5 7.5 7.5h333.951c4.143 0 7.5-3.357 7.5-7.5v-246.077c0-4.143-3.357-7.5-7.5-7.5h-333.951c-4.142 0-7.5 3.358-7.5 7.5zm95.414 238.578h-32.707v-36.827c3.001 1.389 6.133 2.44 9.347 3.091 1.801.366 3.662.538 5.573.538 5.586 0 11.599-1.476 17.788-3.87v37.068zm47.707 0h-32.708v-44.27c6.275-3.498 20.066-12.416 20.066-12.416 4.648-3.029 8.865-6.52 12.641-10.402v67.088zm95.415 0h-32.707v-75.09c7.583 13.218 18.837 27.234 32.707 36.205zm47.708 0h-32.708v-31.804c4.934 1.464 10.047 2.199 15.124 2.199 6.048 0 12.036-1.019 17.584-3.004zm15-41.479c16.749-15.186 15.299-45.807 14.452-54.846-1.434-15.306-7.612-23.551-14.452-31.693v-103.06h32.707v231.077h-32.707zm-47.708-189.599h32.708v82.944c-3.509-5.979-7.019-13.361-10.39-23.059-5.217-15.013-12.961-26.09-22.318-32.393zm-47.707 0h32.707v21.746c-1.307-.165-2.628-.263-3.968-.272-.079 0-.156-.001-.235-.001-10.03 0-19.896 4.464-28.504 12.386zm-6.772 71.908c7.705-21.218 21.865-35.434 35.274-35.434.044 0 .088.001.132.001 11.232.078 20.9 10.141 27.223 28.334 8.696 25.025 18.598 36.711 26.554 46.101 7.121 8.405 11.419 13.478 12.521 25.242 1.345 14.35-.376 34.063-9.655 42.399-9.332 8.405-25.259 10.368-37.859 4.667-17.699-8.031-31.604-27.496-38.714-43.035-.001 0-.001-.001-.001-.001-1.066-2.328-2.168-4.679-3.28-7.05-9.541-20.343-19.404-41.378-12.195-61.224zm-40.936 69.655c5.17-11.832 7.651-25.353 7.109-39.869-.849-22.585-3.149-39.785-7.109-52.29v-49.404h32.707v53.642c-2.196 4.076-4.172 8.465-5.871 13.145-7.261 19.991-1.784 39.547 5.871 57.622v106.668h-32.707zm-47.707-141.563h32.708v26.541c-1.093-.691-2.223-1.298-3.404-1.799-9.875-4.188-19.803-3.347-29.304.534zm-47.707 0h32.707v33.964c-12.818 9.526-24.2 23.158-32.707 35.017zm-2.148 100.261c.001-.002.001-.003.002-.005 14.9-27.127 43.159-63.214 65.741-63.214 2.603 0 5.131.479 7.554 1.508 5.31 2.255 14.5 13.53 16.385 63.704.957 25.655-9.231 47.368-27.96 59.576 0 0-14.461 9.478-22.456 13.678-.232.105-.457.222-.676.35-8.875 4.597-17.978 8.031-24.115 6.782-12.003-2.428-22.791-13.75-25.65-26.923-4.033-18.579 3.129-40.829 11.175-55.456zm-45.559-100.261h32.707v92.506c-.108.195-.208.375-.292.529-9.354 17.007-17.6 43.238-12.689 65.863 2.008 9.248 6.673 17.731 12.982 24.428v47.751h-32.708z"/><path d="m191.608 312.248c1.491-.712 3.203-.755 4.468-.112 1.012.514 1.628 1.424 1.884 2.783.679 3.602 3.826 6.112 7.362 6.111.46 0 .929-.042 1.398-.131 4.07-.768 6.748-4.689 5.98-8.76-1.128-5.981-4.621-10.732-9.835-13.38-5.406-2.744-12.028-2.762-17.715-.051-3.738 1.783-5.324 6.26-3.541 9.998 1.784 3.74 6.259 5.326 9.999 3.542z"/></g></g></svg>