<svg id="Layer_1" enable-background="new 0 0 512.02 512.02" height="512" viewBox="0 0 512.02 512.02" width="512" xmlns="http://www.w3.org/2000/svg"><g><g><path d="m235.187 132.181c-4.883 4.884-1.81 12.111-.165 15.979 11.07 26.193 29.356 52.457 52.877 75.95 23.577 23.576 49.839 41.871 75.952 52.908 2.314.977 5.815 2.454 9.299 2.454 2.361 0 4.714-.68 6.683-2.653 4.874-4.887 1.802-12.11.157-15.979-11.072-26.164-29.356-52.426-52.876-75.946-23.542-23.544-49.805-41.829-75.933-52.873-3.882-1.649-11.11-4.724-15.994.16zm81.321 63.319c20.252 20.254 36.338 42.551 46.845 64.871-22.259-10.478-44.551-26.571-64.85-46.871-20.244-20.22-36.324-42.502-46.829-64.833 22.283 10.487 44.57 26.569 64.834 46.833z"/><path d="m194.357 198.87c-4.604 4.594-2.096 11.289-.891 14.51 8.27 22.063 22.798 43.897 42.021 63.151 19.244 19.216 41.078 33.744 63.143 42.014 1.814.68 4.733 1.773 7.758 1.773 2.341 0 4.745-.655 6.749-2.663 4.597-4.606 2.071-11.305.863-14.51-8.275-22.08-22.804-43.906-42.017-63.119-19.211-19.213-41.037-33.742-63.104-42.014-3.218-1.213-9.916-3.735-14.522.858zm67.02 51.762c15.759 15.76 28.059 33.317 35.885 51.159-17.691-7.807-35.633-20.354-51.167-35.866-15.52-15.545-28.069-33.489-35.876-51.18 17.836 7.825 35.397 20.125 51.158 35.887z"/><path d="m140.588 252.648c-4.588 4.589-2.084 11.275-.88 14.492 8.288 22.11 22.817 43.947 42.018 63.147 19.2 19.2 41.035 33.729 63.147 42.019 1.813.679 4.731 1.772 7.754 1.771 2.336 0 4.735-.652 6.735-2.652 4.588-4.589 2.084-11.275.88-14.49-8.287-22.111-22.817-43.947-42.017-63.147-19.201-19.202-41.036-33.732-63.148-42.02-3.213-1.203-9.9-3.707-14.489.88zm67.03 51.745c15.749 15.749 28.047 33.312 35.878 51.166-17.855-7.832-35.416-20.13-51.164-35.879-15.748-15.748-28.046-33.312-35.877-51.165 17.854 7.831 35.415 20.129 51.163 35.878z"/><path d="m307.163 96.637c-4.422 4.423-2.611 10.803-1.737 13.879 6.169 21.608 18.698 42.299 36.233 59.835 17.536 17.535 38.225 30.064 59.843 36.236 1.543.438 3.926 1.114 6.476 1.114 2.516 0 5.196-.658 7.392-2.854 4.422-4.423 2.61-10.803 1.737-13.879-6.168-21.608-18.698-42.298-36.233-59.833-17.534-17.535-38.224-30.064-59.842-36.237-3.067-.87-9.448-2.682-13.869 1.739zm63.104 45.104c14.577 14.578 25.27 31.481 31.112 49.115-17.639-5.845-34.538-16.536-49.114-31.111-14.577-14.578-25.269-31.48-31.111-49.115 17.639 5.845 34.538 16.536 49.113 31.111z"/><path d="m444.445 140.623c1.099.259 2.866.674 4.846.674 2.386 0 5.08-.604 7.28-2.816 4.025-4.046 2.665-9.7 2.089-12.095-4.045-17.023-13.244-33.082-26.6-46.439v-.001c-13.358-13.356-29.416-22.556-46.418-26.596-2.416-.581-8.069-1.941-12.116 2.085s-2.711 9.703-2.133 12.158c4.096 17.067 13.293 33.121 26.597 46.424 13.302 13.305 29.355 22.502 46.455 26.606zm-22.992-50.071c9.969 9.97 17.203 21.624 21.138 33.99-12.398-3.962-24.059-11.195-33.995-21.132-9.786-9.785-17.158-21.697-21.122-33.994 12.353 3.932 24.008 11.166 33.979 21.136z"/><path d="m496.138 15.871c-14.432-14.448-39.211-19.062-73.647-13.717-5.63.874-11.517 2.038-17.587 3.446l-139.778 15.75c-4.116.464-7.077 4.177-6.613 8.293.432 3.831 3.677 6.661 7.443 6.661.28 0 .564-.016.849-.048l71.764-8.086c-3.615 1.581-7.234 3.208-10.85 4.901-58.31 27.297-112.629 67.318-156.773 114.603l-1.308-21.709c-4.089-67.08-3.655-78.338 35.521-82.763l26.379-2.973c4.116-.464 7.077-4.177 6.613-8.293-.463-4.116-4.174-7.074-8.292-6.613l-26.381 2.974c-18.687 2.11-38.828 7.102-46.518 28.118-5.648 15.437-4.314 37.327-2.294 70.462l2.201 36.518c-15.19 17.715-28.955 36.305-40.985 55.519-2.198 3.511-1.134 8.139 2.377 10.337 3.51 2.2 8.139 1.135 10.337-2.376 12.116-19.35 26.053-38.047 41.467-55.821.063-.069.123-.139.184-.21 44.736-51.523 101.963-95.225 163.832-124.187 58.206-27.243 127.607-44.051 151.453-20.179 23.865 23.841 7.06 93.244-20.184 151.452-24.756 52.913-66.758 113.691-123.713 163.456-.361.26-2.933 2.544-3.904 3.374-37.148 31.748-80.483 58.745-129.409 75.923-18.378 6.455-26.312 5.683-43.512-11.916l-61.622-61.623c-17.53-17.134-18.303-25.068-11.855-43.454 5.58-15.888 12.404-31.704 20.284-47.011 1.896-3.683.447-8.205-3.236-10.101-3.682-1.896-8.205-.447-10.101 3.235-8.193 15.916-15.292 32.37-21.1 48.908-8.802 25.098-5.175 38.918 15.463 59.089l8.414 8.414-91.819 91.795c-12.298 12.336-12.298 32.408.008 44.751 5.964 5.965 13.912 9.25 22.38 9.25s16.416-3.285 22.381-9.25l91.782-91.812 8.353 8.354c13.491 13.804 24.128 20.018 37.154 20.018 6.516-.001 13.629-1.556 21.995-4.494 47.305-16.609 93.514-43.894 135.292-79.69l36.544 2.202c15.504.945 28.545 1.74 39.616 1.74 12.59 0 22.633-1.028 30.847-4.034 21.016-7.69 26.007-27.831 28.118-46.521l22.7-201.452c1.406-6.062 2.568-11.942 3.441-17.566 5.347-34.436.732-59.216-13.711-73.644zm-452.739 476.293c-3.131 3.131-7.313 4.855-11.773 4.855s-8.642-1.725-11.765-4.848c-6.477-6.496-6.477-17.066-.009-23.555l91.81-91.786 23.52 23.521zm425.405-185.313c-4.425 39.18-15.682 39.614-82.763 35.524l-21.729-1.31c3.75-3.504 7.465-7.07 11.13-10.713 42.994-42.739 78.781-93.248 103.493-146.065 1.694-3.619 3.322-7.241 4.904-10.858z"/></g></g></svg>