<svg id="Layer_1" enable-background="new 0 0 512 512" height="512" viewBox="0 0 512 512" width="512" xmlns="http://www.w3.org/2000/svg"><g><g><path d="m64.984 203.555c-2.929 2.93-2.929 7.678 0 10.607l.028.028c1.461 1.461 3.371 2.189 5.282 2.189 1.92 0 3.842-.736 5.31-2.204 2.929-2.929 2.915-7.691-.014-10.621-2.928-2.927-7.677-2.927-10.606.001z"/><path d="m433.631 154.174c-2.929 2.93-2.929 7.678 0 10.607l.028.028c1.462 1.461 3.371 2.189 5.283 2.189 1.92 0 3.842-.736 5.31-2.204 2.929-2.929 2.915-7.691-.014-10.621-2.929-2.927-7.677-2.927-10.607.001z"/><path d="m431.363 248.146c-2.929 2.93-2.929 7.678 0 10.607l.028.028c1.462 1.461 3.371 2.189 5.283 2.189 1.92 0 3.842-.736 5.31-2.204 2.929-2.929 2.915-7.691-.014-10.621-2.929-2.927-7.677-2.927-10.607.001z"/><path d="m192.431 266.202c-2.929 2.93-2.929 7.678 0 10.607l.028.028c1.461 1.461 3.371 2.189 5.282 2.189 1.92 0 3.842-.736 5.31-2.204 2.929-2.929 2.915-7.691-.014-10.621-2.929-2.927-7.678-2.927-10.606.001z"/><path d="m196.855 169.217h.028c4.142 0 7.486-3.357 7.486-7.5s-3.372-7.5-7.514-7.5-7.5 3.357-7.5 7.5 3.358 7.5 7.5 7.5z"/><path d="m314.15 214.809c-2.929 2.93-2.929 7.678 0 10.607l.028.028c1.462 1.461 3.371 2.189 5.283 2.189 1.92 0 3.842-.736 5.31-2.204 2.929-2.929 2.915-7.691-.014-10.621-2.929-2.927-7.677-2.927-10.607.001z"/><path d="m319.471 153.796c2.929-2.929 2.915-7.691-.014-10.621-2.93-2.928-7.678-2.928-10.607 0-2.929 2.93-2.929 7.678 0 10.607l.028.028c1.462 1.461 3.371 2.189 5.283 2.189 1.92.001 3.842-.735 5.31-2.203z"/><g><path d="m50.587 377.311h-21.09c-7.994 0-14.497-6.504-14.497-14.498v-292.176c0-7.994 6.503-14.497 14.497-14.497h195.619c4.142 0 7.5-3.357 7.5-7.5s-3.358-7.5-7.5-7.5h-195.619c-16.265 0-29.497 13.232-29.497 29.497v292.176c0 16.266 13.232 29.498 29.497 29.498h21.09c4.142 0 7.5-3.357 7.5-7.5s-3.358-7.5-7.5-7.5z"/><path d="m482.503 41.14h-219.374c-4.143 0-7.5 3.357-7.5 7.5s3.357 7.5 7.5 7.5h219.374c7.994 0 14.497 6.503 14.497 14.497v292.176c0 7.994-6.503 14.498-14.497 14.498h-82.926v-36.25c4.913-1.792 9.616-4.2 13.895-7.306 6.767-4.927 9.328-10.796 10.045-16.034.25.003.491.006.718.009.214.001.423.002.636.002 22.536-.001 40.735-7.145 49.991-19.646 5.083-6.865 9.997-18.726 4.54-36.239-4.44-14.233-2.216-17.941 1.822-24.674 3.58-5.969 8.035-13.397 9.127-27.745.028-.378.028-.759 0-1.138-1.092-14.334-5.547-21.756-9.126-27.72-4.039-6.729-6.264-10.435-1.823-24.672 5.457-17.512.543-29.372-4.54-36.237-9.256-12.502-27.453-19.646-50.006-19.646-.211 0-.423.001-.635.002-2.142.017-5.39.023-9.578.032-1.406.003-2.919.006-4.53.01-4.308-10.571-9.291-14.697-26.142-14.697h-14.854c-13.233 0-20.62 5.388-24.485 9.907-1.268 1.483-2.348 3.106-3.237 4.833h-48.129c-.751-1.438-1.637-2.813-2.673-4.099-5.526-6.862-14.505-10.642-25.282-10.642h-14.853c-16.871 0-21.846 4.136-26.158 14.734-17.97-.02-35.355-.022-51.284-.022-.881-1.707-1.951-3.312-3.205-4.781-3.865-4.53-11.252-9.931-24.491-9.931h-14.854c-16.826 0-21.832 4.117-26.146 14.655 0 0-11.819-.002-12.031-.002-22.537 0-40.736 7.145-49.992 19.646-5.083 6.866-9.997 18.726-4.54 36.239 4.44 14.235 2.215 17.941-1.823 24.67-3.58 5.964-8.035 13.386-9.125 27.72-.029.379-.029.759 0 1.138 1.091 14.348 5.546 21.776 9.126 27.745 4.038 6.732 6.262 10.44 1.821 24.676-5.457 17.512-.542 29.371 4.541 36.237 9.066 12.245 26.72 19.331 48.617 19.618.718 5.255 3.279 11.138 10.057 16.055 4.277 3.108 8.978 5.517 13.889 7.31v36.243h-29.634c-4.142 0-7.5 3.357-7.5 7.5s3.358 7.5 7.5 7.5h29.634v56.196c0 12.326 10.028 22.354 22.354 22.354s22.354-10.027 22.354-22.354v-56.196h75.284v56.196c0 12.326 10.028 22.354 22.354 22.354s22.354-10.027 22.354-22.354v-56.196h75.283v56.196c0 12.326 10.04 22.354 22.382 22.354 12.326 0 22.354-10.027 22.354-22.354v-56.196h82.926c16.265 0 29.497-13.232 29.497-29.498v-292.176c-.002-16.265-13.234-29.497-29.499-29.497zm-69.939 247.698c.002-.002.004-.004.005-.006 7.372-7.599 6.059-19.321 5.273-26.323-.223-1.993-.46-3.808-.683-5.504-.821-6.254-1.317-10.028-.121-15.549 1.914-8.845-.696-15.504-2.604-20.366-2.106-5.372-2.742-6.993.438-11.042 5.05-6.525 8.787-22.584 2.439-34.704-3.81-8.284-3.637-9.013.114-24.8l.431-1.814c2.579-10.917.541-24.155-2.386-33.682 3.836-.008 6.845-.015 8.852-.031.19-.001.378-.002.568-.002 17.718 0 31.519 4.934 37.913 13.571 4.388 5.926 5.153 13.613 2.275 22.847-5.979 19.174-2.412 27.37 3.282 36.856 2.998 4.995 6.097 10.156 6.984 20.57-.888 10.428-3.988 15.596-6.987 20.597-5.691 9.488-9.258 17.687-3.279 36.854 2.878 9.235 2.112 16.923-2.275 22.849-6.396 8.639-20.194 13.572-37.853 13.572-.187 0-.377-.001-.563-.002-.769-.011-1.694-.018-2.751-.023-1.909-5.296-5.143-9.145-8.54-13.177l-.362-.431c-.063-.075-.13-.154-.197-.234.01-.009.019-.017.027-.026zm-310.864.263-.337.4c-3.835 4.52-6.791 8.267-8.588 13.227-17.955.126-31.966-4.848-38.423-13.569-4.387-5.926-5.152-13.613-2.275-22.847 5.979-19.17 2.413-27.367-3.278-36.856-3-5.001-6.099-10.169-6.987-20.597.887-10.414 3.985-15.575 6.984-20.57 5.693-9.486 9.262-17.683 3.282-36.854-2.877-9.235-2.112-16.923 2.275-22.849 6.396-8.638 20.194-13.571 37.956-13.571.19 0 6.637.002 6.637.002-2.93 9.523-4.977 22.783-2.394 33.718l.43 1.813c3.751 15.789 3.925 16.522.138 24.805-6.371 12.172-2.612 28.222 2.477 34.739 3.147 4.006 2.512 5.627.405 10.999-1.907 4.862-4.518 11.521-2.608 20.345 1.186 5.561.691 9.359-.129 15.654-.218 1.673-.45 3.459-.669 5.418-.786 7.015-2.101 18.754 5.245 26.326.006.007.013.014.02.021.009.009.018.018.026.026-.065.074-.127.148-.187.22zm187.505-127.928c2.842-4.46 6.735-10.567 6.651-19.075-.04-3.483-.285-6.683-.522-9.776-.425-5.548-.792-10.339.182-14.9.169-.772.292-1.546.391-2.319h42.675c.058.647.13 1.295.232 1.944.299 1.843.092 10.129-.045 15.613-.081 3.223-.162 6.488-.196 9.438-.101 8.503 3.732 14.579 6.53 19.016 3.436 5.447 3.852 6.554 1.981 9.738-1.005 1.715-2.083 3.247-3.125 4.729-2.019 2.87-4.106 5.837-5.446 9.783-4.119 12.171.95 18.439 4.306 22.587 3.389 4.189 6.589 8.147-1.023 26.202-7.862 18.665-6.224 33.887 5.153 47.886.289.489 1.677 3.515-4.015 9.016-3.737 3.604-6.751 7.592-8.857 11.59h-33.724c-2.105-3.996-5.118-7.983-8.853-11.586-5.701-5.509-4.306-8.535-4.019-9.021 11.177-13.802 12.701-30.637 4.527-50.039l-.541-1.282c-2.514-5.959-4.33-10.265-4.291-11.979.025-1.154 1.79-3.823 4.233-7.517l.749-1.135c10.775-16.398.687-31.161-3.622-37.466-.494-.724-.944-1.377-1.308-1.958-1.829-2.922-1.644-3.808 1.977-9.489zm-119.872-.073c2.792-4.431 6.617-10.499 6.534-19.002-.035-3.011-.119-6.352-.202-9.639-.137-5.438-.345-13.653-.061-15.456.103-.644.175-1.287.234-1.93 13.542 0 28.086.003 43.098.017-2.926 9.486-4.955 22.68-2.367 33.634l.435 1.842c3.723 15.772 3.896 16.504.107 24.786-6.371 12.172-2.612 28.222 2.477 34.739 3.147 4.006 2.512 5.627.405 10.999-1.906 4.862-4.518 11.521-2.603 20.368 1.196 5.52.7 9.294-.121 15.548-.223 1.696-.46 3.51-.683 5.501-.786 7.017-2.1 18.759 5.279 26.331.009.009.017.018.025.026-.067.081-7.159 8.512-9.095 13.789-11.202.016-22.092.018-32.445.019-2.099-3.999-5.108-7.995-8.84-11.614-5.7-5.508-4.307-8.534-4.019-9.021 11.355-14.011 12.982-29.229 5.125-47.881-7.595-18.049-4.395-22.009-1.006-26.2 3.354-4.151 8.424-10.423 4.286-22.598-1.338-3.942-3.42-6.916-5.435-9.792-1.034-1.477-2.103-3.004-3.109-4.72-1.872-3.186-1.456-4.293 1.981-9.746zm-24.766 287.407c0 4.055-3.299 7.354-7.354 7.354s-7.354-3.299-7.354-7.354v-103.89c2.948.357 5.899.54 8.813.54 1.987 0 3.955-.083 5.895-.24zm-19.909-120.131c-.279-.09-.564-.163-.855-.22-5.071-1.387-9.887-3.535-14.018-6.537-4.112-2.982-4.936-6.179-3.271-12.638.811-3.098 2.539-5.357 6.311-9.804l.344-.408c3.132-3.715 8.962-10.628-.569-20.389-2.408-2.501-1.522-10.404-1.097-14.206.131-1.172.267-2.273.402-3.328 3.458 2.701 7.357 4.917 11.806 6.742.932.382 1.895.563 2.843.563 2.953 0 5.752-1.756 6.942-4.656 1.571-3.833-.262-8.214-4.094-9.785-7.938-3.255-13.212-8.155-17.477-16.26-.631-3.992.546-7.07 2.042-10.884 2.48-6.324 5.876-14.985-2.561-25.724-1.613-2.066-4.517-11.964-.945-18.631.074-.138.143-.276.208-.418 6.029-13.159 4.944-17.725.908-34.714l-.427-1.799c-2.03-8.593.213-20.992 3.152-28.863.88-2.345 4.858-13.775 5.976-14.685 1.116-.91 4.545-1.371 10.19-1.371h14.854c5.952 0 10.476 1.614 13.081 4.667 2.1 2.461 2.97 5.965 2.387 9.628-.474 3.011-.354 8.87-.12 18.181.082 3.218.164 6.488.199 9.422.04 4.076-1.937 7.212-4.225 10.843-.909 1.442-1.936 3.074-2.848 4.895-.036.06-.077.104-.112.169-3.496 6.5-10.904 10.83-20.952 15.331-3.78 1.693-5.472 6.131-3.779 9.911 1.248 2.784 3.983 4.436 6.849 4.436 1.024 0 2.066-.211 3.062-.657 5.211-2.334 10.727-4.99 15.701-8.502 1.258 2.12 2.504 3.908 3.609 5.485 1.603 2.288 2.868 4.096 3.519 6.013 1.479 4.351.923 5.038-1.749 8.344-6.444 7.974-11.382 17.143-1.152 41.451 5.791 13.747 4.946 22.912-3.017 32.693-3.788 4.655-7.551 16.744 5.303 29.166 3.77 3.655 6.215 7.641 7.171 10.511.02.066.044.13.065.195.226.716.359 1.361.388 1.905.22 4.215-2.456 7.864-7.952 10.847-2.864 1.554-6.282 2.762-10.023 3.584-.128.023-.254.05-.379.08-7.86 1.66-17.101 1.612-25.69-.583zm34.909 48.935v-35.312c3.009-.973 5.814-2.153 8.336-3.522 9.272-5.032 14.708-12.318 15.654-20.805 8.798-.001 17.956-.004 27.347-.016.712 5.261 3.271 11.162 10.06 16.104 4.276 3.104 8.976 5.511 13.886 7.302v36.248h-75.283zm84.244-49.152c-5.074-1.386-9.892-3.532-14.025-6.532-3.484-2.536-4.604-5.224-3.862-9.895.043-.198.384-1.99.58-2.75.795-3.038 6.655-10.214 6.655-10.214.554-.657 1.193-1.417 1.816-2.272h16.362c4.142 0 7.5-3.357 7.5-7.5s-3.358-7.5-7.5-7.5h-16.128c-.697-1.004-1.546-2.04-2.589-3.113-.003-.004-.007-.008-.011-.011-2.428-2.487-1.542-10.396-1.117-14.197.211-1.889.437-3.608.648-5.217.888-6.767 1.656-12.61-.091-20.675-.956-4.415.308-7.638 1.908-11.718 2.48-6.324 5.876-14.986-2.561-25.724-1.613-2.066-4.517-11.964-.945-18.631.074-.138.143-.276.208-.418.987-2.153 1.779-4.073 2.403-5.857h15.185c4.142 0 7.5-3.357 7.5-7.5s-3.358-7.5-7.5-7.5h-13.743c-.521-3.723-1.542-8.053-2.902-13.815l-.434-1.84c-2.044-8.651.2-21.022 3.153-28.863.888-2.364 1.621-4.473 2.267-6.333 1.39-4.001 2.591-7.456 3.699-8.358.764-.622 3.149-1.364 10.171-1.364h14.853c6.147 0 10.978 1.794 13.6 5.05 1.936 2.403 2.646 5.616 1.941 8.847-1.432 6.712-.945 13.064-.475 19.209.219 2.855.445 5.809.479 8.792.04 4.04-1.973 7.196-4.302 10.852-3.62 5.679-9.09 14.261-2.038 25.514.455.727 1.015 1.55 1.636 2.459 4.943 7.234 8.338 13.356 3.479 20.754l-.733 1.108c-2.595 3.924-4.398 6.947-5.483 9.667h-14.652c-4.142 0-7.5 3.357-7.5 7.5s3.358 7.5 7.5 7.5h15.307c.898 2.521 2.095 5.421 3.577 8.933l.538 1.275c6.037 14.332 5.269 25.404-2.42 34.848-3.788 4.655-7.554 16.744 5.315 29.181 3.659 3.53 6.076 7.379 7.094 10.222.068.256.148.506.242.751.172.6.278 1.147.303 1.616.215 4.221-2.467 7.874-7.972 10.858-2.856 1.549-6.263 2.755-9.993 3.576-.156.027-.31.06-.463.097-7.855 1.651-17.086 1.595-25.664-.6-.265-.087-.538-.157-.816-.212zm20.748 120.348c0 4.055-3.299 7.354-7.354 7.354s-7.354-3.299-7.354-7.354v-103.896c2.954.358 5.911.541 8.83.541 1.981 0 3.944-.083 5.878-.238zm15-71.196v-35.309c3.01-.973 5.817-2.151 8.34-3.519 9.287-5.036 14.733-12.333 15.678-20.839h27.273c.942 8.499 6.39 15.8 15.681 20.839 2.516 1.364 5.312 2.54 8.312 3.511v35.317zm105.018 71.196c0 4.055-3.299 7.354-7.354 7.354-4.07 0-7.382-3.299-7.382-7.354v-103.595c1.942.156 3.913.239 5.903.239 2.919 0 5.877-.183 8.832-.542v103.898zm-20.606-119.574c-.071-.016-.142-.031-.214-.045-3.762-.821-7.199-2.032-10.076-3.593-5.505-2.984-8.187-6.638-7.973-10.841.026-.48.133-1.04.312-1.655.087-.229.162-.462.226-.7 1.015-2.853 3.435-6.713 7.106-10.255 12.864-12.433 9.099-24.521 5.303-29.186-7.977-9.771-8.828-18.935-3.037-32.682 10.251-24.315 5.312-33.486-1.137-41.46-2.676-3.308-3.232-3.996-1.763-8.339.644-1.896 1.908-3.693 3.509-5.969 1.118-1.589 2.38-3.391 3.646-5.526 3.212 2.269 6.514 4.09 9.528 5.607 1.081.544 2.232.803 3.366.803 2.744 0 5.387-1.512 6.705-4.13 1.862-3.699.373-8.208-3.327-10.071-8.224-4.14-12.825-7.944-15.387-12.721-.064-.119-.138-.23-.208-.344-.89-1.749-1.882-3.322-2.761-4.716-2.29-3.63-4.267-6.765-4.22-10.838.034-2.888.114-6.085.193-9.24.236-9.437.354-15.376-.142-18.373-.575-3.666.303-7.18 2.408-9.642 2.606-3.047 7.132-4.657 13.087-4.657h14.854c7.021 0 9.406.742 10.171 1.364 1.108.902 2.31 4.357 3.699 8.357.647 1.861 1.38 3.97 2.263 6.321 2.943 7.884 5.188 20.282 3.158 28.871l-.428 1.801c-4.038 16.998-5.124 21.566.942 34.731.063.137.13.271.2.403 3.558 6.639.647 16.572-.931 18.612-8.451 10.757-5.055 19.418-2.575 25.742 1.495 3.813 2.672 6.889 2.043 10.876-4.292 8.113-9.575 13.017-17.506 16.269-3.832 1.571-5.665 5.952-4.094 9.785 1.189 2.901 3.989 4.656 6.942 4.656.947 0 1.911-.181 2.843-.563 4.458-1.828 8.364-4.051 11.831-6.762.136 1.062.274 2.169.406 3.35.392 3.496 1.309 11.681-1.128 14.206-9.493 9.766-3.669 16.674-.54 20.385l.352.418c3.764 4.468 5.494 6.74 6.275 9.794 1.688 6.457.868 9.648-3.244 12.642-4.138 3.004-8.962 5.153-14.042 6.539-.272.054-.539.123-.8.205-8.638 2.216-17.942 2.258-25.835.571z"/></g></g></g></svg>