<svg id="Layer_1" enable-background="new 0 0 512 512" height="512" viewBox="0 0 512 512" width="512" xmlns="http://www.w3.org/2000/svg"><g><g><path d="m498.475 296.254c-.552-11.386-5.055-21.747-12.156-29.755v-10.049c0-32.399-7.814-62.271-22.611-86.731 4.505-.8 8.739-2.039 12.626-3.704 7.39 4.723 16.699 7.794 27.788 7.793.143 0 .29 0 .433-.001 4.143-.03 7.476-3.412 7.446-7.554-.029-4.124-3.382-7.446-7.499-7.446-.116-.001-.241.001-.363.001-5.007 0-9.505-.878-13.453-2.359 2.758-2.771 5.076-5.904 6.887-9.367 5.207-9.957 5.107-20.788-.261-28.267-4.521-6.297-12.082-9.168-20.799-7.905-12.736.903-20.992 9.93-20.579 22.566.215 6.589 2.916 14.142 7.931 20.915-3.07.736-6.369 1.185-9.855 1.334-14.865-18.824-33.995-32.649-55.957-40.271-3.917-1.358-8.187.714-9.545 4.627-1.357 3.913.714 8.187 4.627 9.545 20.426 7.088 37.558 19.908 50.541 36.986.406.814.956 1.541 1.616 2.154 16.44 22.685 25.755 52.506 26.006 86.29-6.421-3.144-13.632-4.916-21.251-4.916-9.497 0-18.358 2.752-25.848 7.485-7.64-15.471-21.961-26.628-39.241-30.328-3.027-31.572-28.056-48.129-52.832-48.221-24.739.092-49.779 16.653-52.806 48.229-14.554 3.144-27.235 11.662-35.453 23.812-3.137-.64-6.384-.977-9.707-.977-2.076 0-4.137.136-6.176.394-.819-5.31-2.191-10.606-4.158-15.815-3.409-9.007-8.526-11.453-17.678-8.435-19.698 6.523-35.28 19.974-43.926 37.883-12.471-12.045-29.094-18.743-47.177-18.931-9.144-.087-13.22 3.74-13.725 12.868-.71 13.745 2.382 26.849 8.806 38.128h-76.559v-20.762c0-16.685 1.321-16.884 9.913-18.18l13.78-2.07c18.9-2.85 25.353-16.548 25.089-28.434-.862-35.362 15.158-39.994 33.709-45.358 13.097-3.787 27.94-8.08 30.613-25.715.995-6.634.913-12.645.841-17.947-.167-12.26.605-12.391 3.491-12.878 5.126-.883 9.344 4.117 15.667 12.44 2.416 3.18 4.914 6.469 7.683 9.289 2.512 2.558 5.027 5.288 7.69 8.179 12.356 13.415 26.362 28.62 44.186 29.298 9.966.385 19.907-3.922 29.524-12.787l25.883-19.44c25.019-18.79 52.524-28.449 79.459-27.95.049.001.096.001.144.001 4.076 0 7.419-3.267 7.496-7.359.077-4.142-3.218-7.562-7.358-7.64-.766-.014-1.529-.021-2.294-.021-29.592 0-59.435 10.683-86.454 30.976l-26.192 19.673c-.213.159-.416.33-.61.512-6.777 6.317-12.98 9.255-19.026 9.049-11.588-.441-22.841-12.657-33.724-24.472-2.625-2.851-5.34-5.798-8.019-8.525-2.103-2.142-4.211-4.917-6.442-7.854-6.979-9.187-15.668-20.611-30.122-18.155-16.322 2.759-16.124 17.273-15.979 27.872.067 4.961.138 10.091-.675 15.505-1.126 7.43-6.365 9.614-19.948 13.542-19.279 5.575-45.682 13.21-44.538 60.117.167 7.535-3.98 11.994-12.325 13.252l-13.78 2.07c-19.287 2.909-22.681 12.963-22.681 33.013v20.762h-4.604c-7.7-.003-13.964 6.261-13.964 13.96v21.118c0 19.328 15.725 35.053 35.052 35.053l4.549.001v10.868c0 14.265 11.604 25.869 25.868 25.869h381.063c14.264 0 25.868-11.604 25.868-25.869v-10.868l4.52-.001c19.344 0 35.081-15.725 35.081-35.053v-21.118c-.001-7.552-6.03-13.707-13.526-13.941zm-20.724-170.393c.245-.015.489-.04.731-.078.731-.116 1.413-.173 2.043-.173 2.124 0 3.667.653 4.6 1.952 1.596 2.223 2.012 7.104-.846 12.569-1.547 2.958-3.734 5.553-6.457 7.734-4.368-4.74-6.747-10.251-6.897-14.88-.154-4.705 1.888-6.836 6.826-7.124zm5.689 170.371h-66.815c1.236-17.35 15.748-31.092 33.421-31.092 17.659 0 32.159 13.742 33.394 31.092zm-196.154-55.028c3.82-.395 6.725-3.612 6.729-7.453.024-27.162 19.802-39.606 38.11-39.675 18.352.068 38.113 12.513 38.138 39.675.004 3.843 2.911 7.062 6.734 7.454 16.323 1.674 29.831 12.067 35.405 26.879-6.32 7.765-10.291 17.51-10.812 28.149h-61.937v-10.143l24.565-14.026c3.598-2.054 4.849-6.635 2.794-10.231-2.053-3.597-6.635-4.847-10.231-2.794l-17.128 9.78v-18.971c0-4.143-3.357-7.5-7.5-7.5s-7.5 3.357-7.5 7.5v18.977l-17.159-9.788c-3.599-2.053-8.178-.8-10.23 2.799-2.053 3.598-.8 8.178 2.799 10.23l24.591 14.027v10.141h-42.066c-.827-16.901-10.353-31.544-24.179-39.565 7.003-8.643 17.336-14.272 28.877-15.465zm-19.733 55.028h-47.322c.564-1.043 1.11-2.095 1.621-3.164 4.148-8.707 6.446-18.016 6.917-27.499 1.77-.284 3.571-.428 5.39-.428 17.659-.001 32.16 13.741 33.394 31.091zm-57.475-55.443c5.603 15.416 4.982 31.66-1.763 45.819-1.617 3.383-3.587 6.605-5.86 9.624h-32.429c-.083-8.77 1.8-17.396 5.564-25.274 6.73-14.126 18.96-24.815 34.488-30.169zm-93.834 19.476c14.567.484 27.789 6.317 37.352 16.505 1.092 1.167 2.109 2.366 3.059 3.584-1.119 5.194-1.667 10.515-1.627 15.878h-26.734c-8.196-9.848-12.439-22.465-12.05-35.967zm380.756 71.048c0 11.057-9.009 20.053-20.082 20.053l-202.083.028c-4.143.001-7.5 3.359-7.499 7.501.001 4.143 3.359 7.5 7.501 7.499l182.563-.026v10.865c0 5.993-4.875 10.869-10.868 10.869h-381.063c-5.993 0-10.868-4.876-10.868-10.869v-10.865l185.596.026h.001c4.142 0 7.499-3.357 7.5-7.499.001-4.143-3.356-7.5-7.499-7.501l-205.146-.028c-11.058 0-20.053-8.996-20.053-20.053v-20.081h482z"/><path d="m113.203 208.67c-4.13 0-7.485 3.342-7.499 7.476l-.028 8.589c-.014 4.142 3.333 7.511 7.476 7.524h.025c4.13 0 7.485-3.342 7.499-7.476l.028-8.589c.014-4.142-3.333-7.511-7.476-7.524-.007 0-.016 0-.025 0z"/></g></g></svg>