<svg id="Layer_1" enable-background="new 0 0 511.996 511.996" height="512" viewBox="0 0 511.996 511.996" width="512" xmlns="http://www.w3.org/2000/svg"><g><path d="m480.138 237.018c5.46-11.77 8.157-24.889 7.843-38.423 0-.009 0-.019-.001-.027-.279-10.41-4.444-14.538-14.851-14.724-13.622-.242-26.634 2.54-38.285 8.009-4.371-4.853-9.91-8.588-16.053-10.785-1.708-4.863-4.316-9.227-7.602-12.939l68.147-120.865c1.565-2.794 1.923-6.037 1.006-9.133-.916-3.093-3.075-5.725-5.901-7.211l-55.746-29.542c-2.857-1.503-6.261-1.791-9.334-.792-3.061.994-5.524 3.116-6.922 5.949l-75.532 151.509c-6.682 2.81-12.533 7.425-16.801 13.333-14.428-10.625-32.215-16.922-51.396-16.922-.712 0-1.42.024-2.129.041 6.271-12.5 11.609-26.57 16.448-43.269 1.984-6.854 1.604-12.22-1.162-16.403-3.697-5.592-10.034-6.359-13.079-6.729l-.386-.048c-15.206-1.831-53.922 13.963-75.87 41.507-10.223-9.735-24.014-14.759-37.738-14.81-15.64.058-31.394 6.592-41.819 19.236-21.043-10.642-46.982-11.273-72.312-1.536-.372.143-.756.278-1.139.415-2.962 1.057-8.478 3.024-9.41 8.87-.998 6.252 4.544 10.546 6.63 12.162l.004.004c11.153 8.626 20.927 19.605 29.118 32.668-6.934 9.636-10.939 21.545-10.939 34.569 0 4.732.723 9.473 2.146 14.172-8.875 3.92-15.087 12.797-15.087 23.102 0 13.508 10.645 24.574 23.981 25.244 2.797 77.609 49.028 147.078 119.775 179.671v35.698c0 7.155 5.823 12.977 12.98 12.977h146.54c7.173 0 13.009-5.821 13.009-12.977v-35.698c70.73-32.586 116.951-102.055 119.747-179.671 13.336-.67 23.981-11.736 23.981-25.244.001-9.003-4.743-16.917-11.861-21.388zm-7.277-38.175c.041.001.082.001.122.002.001.037.002.075.003.114.28 12.178-2.355 23.908-7.65 34.2h-53.938c2.945-5.27 6.582-10.086 10.879-14.396 13.107-13.197 31.072-20.273 50.584-19.92zm-8.185-156.119-65.545 116.25c-2.59-1.265-5.329-2.268-8.193-2.943-3.905-.856-7.146-1.066-9.537-1.055l64.776-122.056zm-50.244-26.628 18.491 9.8-71.288 134.324c-5.027-2.892-10.673-4.645-16.488-5.11-.003-.005-.007-.01-.01-.015zm-72.397 153.876c5.512 0 10.895 1.887 15.158 5.313 2.737 2.2 6.637 2.207 9.381.013 4.358-3.483 9.615-5.325 15.202-5.325 11.222 0 21.167 7.904 23.648 18.795.64 2.81 2.833 5.004 5.642 5.646 3.865.883 7.453 2.737 10.436 5.318-3.482 2.536-6.78 5.353-9.859 8.452-7.199 7.22-12.873 15.609-16.944 24.977h-49.441c-1.893-19.979-10.62-38.026-23.803-51.788 4.389-6.957 12.17-11.401 20.58-11.401zm-83.326-.517c36.78 0 67.383 27.95 71.483 63.704h-24.465c-.336-1.915-.767-3.803-1.328-5.638-2.194-7.308-6.221-14.09-11.643-19.611-9.025-9.196-21.116-14.261-34.047-14.261-6.602 0-12.97 1.306-18.816 3.81-3.291-7.677-8.155-14.464-14.266-19.959 10.157-5.282 21.416-8.045 33.082-8.045zm-14.692 42.626c4.458-2.25 9.456-3.432 14.692-3.432 8.871 0 17.16 3.469 23.343 9.769 3.725 3.793 6.484 8.432 7.992 13.454.13.424.233.857.345 1.287h-47.241c1.017-3.978 1.541-7.995 1.541-12.025-.001-3.087-.237-6.107-.672-9.053zm12.562-109.145.405.05c.612.074 1.621.196 2.283.364.01.601-.083 1.762-.646 3.703-5.809 20.047-12.313 35.976-20.357 49.812-9.397 2.26-18.343 6.101-26.56 11.403-4.111-1.936-8.505-3.431-13.142-4.403-.793-8.383-3.122-15.717-6.564-21.996 18.718-26.259 55.287-40.054 64.581-38.933zm-150.798 67.398c.025-27.788 20.27-40.52 39.014-40.589 18.799.069 39.044 12.801 39.069 40.589.003 3.844 2.912 7.063 6.735 7.454 22.649 2.321 39.089 20.551 39.089 43.346 0 4-.747 8.029-2.226 12.025h-75.14v-9.558l25.163-14.329c3.599-2.05 4.855-6.63 2.806-10.229-2.049-3.6-6.627-4.856-10.229-2.807l-17.74 10.102v-19.612c0-4.143-3.358-7.5-7.5-7.5s-7.5 3.357-7.5 7.5v19.612l-17.741-10.102c-3.598-2.049-8.179-.794-10.229 2.807-2.049 3.6-.793 8.179 2.806 10.229l25.164 14.329v9.558h-75.155c-1.487-4.029-2.238-8.058-2.238-12.025 0-22.796 16.451-41.025 39.117-43.346 3.823-.392 6.732-3.61 6.735-7.454zm-66.033-25.228c25.487-8.646 44.772-3.278 55.47 1.808-.006.015-.01.032-.016.046-2.098 5.06-3.531 10.693-4.118 16.904-9.287 1.944-17.627 5.942-24.581 11.5-7.735-11.697-16.699-21.837-26.755-30.258zm299.398 305.871h-55.531c-4.142 0-7.5 3.357-7.5 7.5s3.358 7.5 7.5 7.5h49.658v31.019h-142.529v-31.019h57.807c4.142 0 7.5-3.357 7.5-7.5s-3.358-7.5-7.5-7.5h-63.68c-47.772-21.08-83.857-60.127-101.674-107.17h357.599c-17.813 47.047-53.889 86.095-101.65 107.17zm127.592-182.293h-176.294c-4.142 0-7.5 3.357-7.5 7.5s3.358 7.5 7.5 7.5h162.562c-.604 15.483-3.074 30.613-7.231 45.124h-367.56c-4.159-14.511-6.629-29.641-7.234-45.124h184.399c4.142 0 7.5-3.357 7.5-7.5s-3.358-7.5-7.5-7.5h-198.131c-5.658 0-10.262-4.61-10.262-10.276 0-5.65 4.604-10.248 10.262-10.248h409.489c.312 0 .62.02.925.047.119.011.247.029.371.044 5.047.64 8.965 4.946 8.965 10.157.001 5.665-4.602 10.276-10.261 10.276z"/></g></svg>