<svg id="Layer_1" enable-background="new 0 0 512 512" height="512" viewBox="0 0 512 512" width="512" xmlns="http://www.w3.org/2000/svg"><g><g><path d="m490.069 445.244c-5.026-17.688-16.623-33.515-32.648-44.563-3.742-2.585-7.632-4.831-11.638-6.769 3.802-2.344 7.452-4.988 10.887-7.927 14.794-12.688 24.661-29.654 27.782-47.771.461-2.672 1.232-7.144-1.822-10.729-.034-.04-.068-.079-.103-.118-3.081-3.466-7.552-3.418-10.284-3.384-18.37.354-36.632 7.535-51.424 20.222-8.786 7.537-15.858 16.612-20.818 26.615-6.804-29.571-6.591-45.477.642-75.908 10.066-2.693 17.501-11.888 17.501-22.791 0-10.916-7.436-20.123-17.502-22.819-7.456-31.351-7.456-47.276 0-78.627 10.066-2.696 17.502-11.903 17.502-22.819 0-13.024-10.584-23.62-23.593-23.62h-29.948c-4.142 0-7.5 3.357-7.5 7.5s3.358 7.5 7.5 7.5h29.948c4.738 0 8.593 3.867 8.593 8.62 0 4.754-3.855 8.621-8.593 8.621h-92.027c-4.739 0-8.594-3.867-8.594-8.621 0-4.753 3.855-8.62 8.571-8.62l28.296.084h.023c4.131 0 7.487-3.344 7.5-7.478.012-4.143-3.335-7.51-7.478-7.522l-28.319-.084c-13.01 0-23.594 10.596-23.594 23.62 0 10.916 7.436 20.123 17.503 22.819 7.456 31.351 7.456 47.276 0 78.627-10.066 2.696-17.503 11.903-17.503 22.819 0 10.903 7.436 20.098 17.502 22.791 7.453 31.36 7.453 47.292 0 78.653-10.066 2.693-17.502 11.888-17.502 22.791 0 10.916 7.436 20.123 17.503 22.819 7.834 32.943 7.443 48.837-1.187 83.513-.558 2.24-.053 4.611 1.369 6.431 1.421 1.818 3.601 2.881 5.909 2.881h92.027c2.308 0 4.488-1.063 5.909-2.881 1.421-1.819 1.926-4.19 1.369-6.431-8.63-34.676-9.022-50.57-1.187-83.513.144-.039.283-.092.426-.133 6.124 10.525 14.679 19.739 25.079 26.926 14.168 9.769 30.58 14.982 46.804 14.982 2.143 0 4.283-.091 6.413-.274 2.73-.218 7.291-.581 9.994-4.564 2.679-3.904 1.451-8.252.712-10.868zm-59.485-89.653c11.195-9.603 24.717-15.364 38.377-16.437-3.134 13.375-10.873 25.853-22.05 35.438-8.745 7.481-19.094 12.71-29.743 15.113-1.017-3.45-2.789-6.578-5.146-9.176 4.076-9.404 10.42-17.954 18.562-24.938zm-45.523-184.113c-6.616 29.444-6.617 47.579-.001 77.022h-73.046c6.616-29.444 6.615-47.579-.001-77.022zm-91.131 100.643c0-4.754 3.855-8.621 8.594-8.621h92.027c4.738 0 8.593 3.867 8.593 8.621 0 4.738-3.855 8.593-8.593 8.593h-92.027c-4.739 0-8.594-3.855-8.594-8.593zm91.131 100.643h-73.049c6.615-29.457 6.614-47.595 0-77.05h73.049c-6.614 29.455-6.615 47.593 0 77.05zm-.001 124.236h-73.046c6.617-29.445 6.617-47.577 0-77.022h73.046c-6.617 29.445-6.617 47.577 0 77.022zm9.49-92.022h-92.027c-4.739 0-8.594-3.867-8.594-8.621 0-4.738 3.855-8.593 8.594-8.593h92.027c4.738 0 8.593 3.854 8.593 8.593 0 2.666-1.213 5.052-3.114 6.635-.122.086-.238.176-.354.268-1.432 1.073-3.203 1.718-5.125 1.718zm40.117 28.645c-8.919-6.163-16.177-14.104-21.226-23.158 1.219-1.631 2.226-3.425 2.995-5.342 3.372-.576 6.728-1.372 10.038-2.398 7.921 2.042 15.458 5.489 22.426 10.302 12.115 8.353 21.123 19.939 25.657 32.9-13.742.344-27.768-3.948-39.89-12.304z"/><path d="m240.416 115.644c0-10.916-7.436-20.123-17.503-22.819-7.834-32.943-7.443-48.837 1.187-83.513.558-2.24.053-4.611-1.369-6.431-1.421-1.818-3.601-2.881-5.909-2.881h-92.026c-2.308 0-4.488 1.063-5.909 2.881-1.421 1.819-1.926 4.19-1.369 6.431 8.63 34.676 9.021 50.57 1.187 83.513-1.764.473-3.448 1.144-5.025 1.991-6.583-9.695-15.292-18.128-25.586-24.685-17.046-10.83-36.828-15.487-55.655-13.124-2.768.331-7.393.883-9.976 4.966-2.588 4.062-1.131 8.481-.271 11.095 5.873 18.098 18.488 34.024 35.519 44.846 1.131.719 2.278 1.401 3.433 2.066-2.252 1.713-4.437 3.546-6.544 5.495-14.255 13.186-23.436 30.434-25.849 48.544-.34 2.489-.97 7.112 2.205 10.607 2.487 2.761 5.785 3.231 8.417 3.231.77 0 1.483-.04 2.102-.075 18.244-1.029 36.144-8.86 50.411-22.056 9.222-8.554 16.289-18.732 20.807-29.839 1.853 1.112 3.873 1.969 6.008 2.542 7.454 31.365 7.455 47.295.002 78.659-10.066 2.693-17.502 11.888-17.502 22.791 0 10.916 7.436 20.123 17.503 22.819 7.458 31.36 7.456 47.286-.007 78.656-10.063 2.695-17.496 11.889-17.496 22.789 0 10.916 7.436 20.122 17.503 22.818 7.456 31.351 7.456 47.277 0 78.627-10.066 2.696-17.503 11.903-17.503 22.819 0 13.009 10.584 23.593 23.594 23.593h92.026c13.01 0 23.594-10.584 23.594-23.593 0-10.916-7.436-20.123-17.503-22.819-7.456-31.35-7.456-47.276 0-78.627 10.066-2.696 17.503-11.902 17.503-22.818 0-10.9-7.433-20.094-17.496-22.789-7.463-31.37-7.465-47.296-.007-78.656 10.066-2.696 17.503-11.903 17.503-22.819 0-10.903-7.436-20.098-17.502-22.791-7.452-31.362-7.452-47.292 0-78.653 10.067-2.693 17.503-11.889 17.503-22.791zm-158.722 39.078c-10.764 9.956-23.959 16.188-37.498 17.774 2.612-13.388 9.834-26.062 20.59-36.01 3.868-3.578 8.04-6.673 12.429-9.246 6.891 2.315 13.983 3.732 21.078 4.218-3.711 8.611-9.341 16.532-16.599 23.264zm19.532-38.124c-12.191-.474-24.513-4.375-35.467-11.343-13.083-8.313-22.988-20.175-28.188-33.686 14.416-1.037 29.376 2.896 42.472 11.218 9.605 6.117 17.531 14.162 23.131 23.417-1.265 2.893-1.972 6.085-1.972 9.44 0 .319.011.637.024.954zm33.06-101.598h73.046c-6.617 29.445-6.617 47.577 0 77.022h-73.046c6.616-29.445 6.616-47.577 0-77.022zm91.13 473.407c0 4.738-3.855 8.593-8.594 8.593h-92.026c-4.739 0-8.594-3.854-8.594-8.593 0-4.749 3.847-8.612 8.579-8.62.007 0 .013.001.02.001.008 0 .015-.002.023-.002h91.968c.008 0 .015.002.023.002.007 0 .013-.001.02-.001 4.733.008 8.581 3.871 8.581 8.62zm-18.081-23.621h-73.053c6.614-29.435 6.613-47.587 0-77.022h73.053c-6.613 29.435-6.613 47.587 0 77.022zm18.081-100.642c0 4.753-3.855 8.62-8.594 8.62h-92.026c-4.739 0-8.594-3.867-8.594-8.62 0-4.738 3.855-8.593 8.594-8.593h33.194c4.142 0 7.5-3.357 7.5-7.5s-3.358-7.5-7.5-7.5h-23.711c6.622-29.46 6.626-47.598.007-77.051h73.046c-6.618 29.453-6.615 47.591.007 77.051h-20.604c-4.142 0-7.5 3.357-7.5 7.5s3.358 7.5 7.5 7.5h30.087c4.739 0 8.594 3.854 8.594 8.593zm0-124.265c0 4.754-3.855 8.621-8.594 8.621h-92.026c-4.739 0-8.594-3.867-8.594-8.621 0-4.738 3.855-8.593 8.594-8.593h92.026c4.739 0 8.594 3.855 8.594 8.593zm-91.132-100.643h73.049c-6.615 29.457-6.614 47.595 0 77.05h-73.049c6.614-29.455 6.615-47.593 0-77.05zm82.538-15h-92.026c-4.739 0-8.594-3.854-8.594-8.593 0-4.754 3.855-8.621 8.594-8.621h92.026c4.739 0 8.594 3.867 8.594 8.621 0 4.739-3.855 8.593-8.594 8.593z"/></g></g></svg>