<svg id="Layer_1" enable-background="new 0 0 512 512" height="512" viewBox="0 0 512 512" width="512" xmlns="http://www.w3.org/2000/svg"><g><path d="m498.037 343.677h-8.922c-3.084-11.212-11.494-20.49-22.485-24.557-3.744-10.352-11.902-18.229-22.046-21.757-5.025-12.868-13.325-25.074-24.398-36.068-.392-.496-.846-.939-1.349-1.322-6.488-6.259-13.877-12.113-22.079-17.453l11.452-23.391c2.835.691 5.77 1.047 8.79 1.047 10.505-.001 21.999-4.16 33.581-12.32 16.462-11.598 31.49-30.18 42.315-52.321 7.475-15.267 12.472-31.354 14.446-46.506.856-6.458-.68-10.979-4.566-13.438-5.943-3.758-12.458.462-14.593 1.846l-42.143 27.232-4.37-50.001c-.226-2.537-.911-10.256-7.51-12.633-4.321-1.556-8.827-.001-13.408 4.629-10.763 10.917-20.39 24.732-27.845 39.958-21.505 44.012-20.208 88.31 1.84 105.891l-10.947 22.36c-19.85-10.6-43.044-18.301-68.667-22.901v-13.86c11.03-3.247 19.106-13.456 19.106-25.523 0-14.671-11.936-26.606-26.606-26.606s-26.605 11.936-26.605 26.606c0 12.066 8.077 22.276 19.105 25.523v11.556c-14.124-1.812-28.884-2.738-44.147-2.738-15.282 0-30.038.95-44.147 2.772v-11.59c11.029-3.247 19.105-13.457 19.105-25.523 0-14.671-11.935-26.606-26.605-26.606s-26.605 11.936-26.605 26.606c0 12.066 8.077 22.276 19.105 25.523v13.89c-25.727 4.637-48.914 12.384-68.644 22.883l-10.945-22.375c15.954-12.792 21.436-40.085 13.888-72.331-.944-4.034-4.979-6.542-9.012-5.594-4.033.944-6.537 4.979-5.593 9.012 6.719 28.705 1.799 52.617-12.233 59.5-.001 0-.002.001-.003.001h-.001c-2.9 1.417-6.078 2.093-9.455 2.093-13.067-.001-29.07-10.142-43.123-26.71 18.095-5.729 27.12-21.133 28.793-48.341l4.257-48.429c7.959 8.976 15.092 19.749 20.818 31.488 1.816 3.723 6.307 5.267 10.028 3.453 3.723-1.816 5.269-6.306 3.453-10.029-7.428-15.229-17.06-29.051-27.856-39.973-4.58-4.627-9.093-6.178-13.414-4.613-6.604 2.396-7.256 10.12-7.468 12.633l-4.395 49.995-42.112-27.227c-2.138-1.384-8.646-5.6-14.59-1.856-3.888 2.449-5.438 6.964-4.603 13.445 2.007 15.163 7.001 31.241 14.447 46.507 19.32 39.465 50.075 64.614 75.984 64.612 2.98 0 5.895-.345 8.723-1.028l11.443 23.392c-9.252 6.006-17.537 12.713-24.736 20.076-5.183-2.298-10.663-4.111-16.392-5.388-10.058-2.238-15.011.769-17.659 10.706-3.063 11.412-3.756 23.076-2.104 34.305-13.571-1.583-27.552.645-40.706 6.653-8.833 4.028-10.937 9.34-7.265 18.326 2.397 5.888 5.47 11.431 9.111 16.488h-1.513c-7.698.001-13.962 6.265-13.962 13.965v21.09c0 19.345 15.725 35.082 35.053 35.082h4.547v10.869c0 14.748 11.121 25.869 25.869 25.869h381.063c14.264 0 25.868-11.604 25.868-25.869v-10.869h4.52c19.344 0 35.081-15.737 35.081-35.082v-21.09c-.001-7.7-6.265-13.964-13.964-13.964zm-456.063-178.234c-3.387-5.137-6.561-10.653-9.422-16.496-5.748-11.785-9.877-24.051-12.081-35.813l40.843 26.41c.922.595 1.833 1.181 2.741 1.719-3.63 18.281-12.482 22.769-22.081 24.18zm411.305 161.352c.64 2.803 2.824 4.992 5.625 5.639 6.272 1.448 11.443 5.696 14.242 11.243h-117.207c2.799-5.547 7.969-9.795 14.241-11.243 2.801-.646 4.985-2.836 5.625-5.638 2.216-9.703 10.75-16.479 20.752-16.479 4.836 0 9.551 1.647 13.274 4.64 2.736 2.2 6.635 2.205 9.379.013 3.81-3.044 8.415-4.652 13.318-4.652 10.003-.002 18.535 6.775 20.751 16.477zm38.23-213.65c-2.189 11.763-6.318 24.017-12.087 35.797-2.843 5.816-5.999 11.335-9.39 16.503-9.612-1.408-18.478-5.892-22.115-24.177.909-.54 43.592-28.123 43.592-28.123zm-85.126.066c5.753-11.75 12.897-22.535 20.846-31.513l4.234 48.453c1.676 27.222 10.718 42.626 28.848 48.345-5.758 6.783-11.951 12.575-18.368 17.096-13.105 9.233-25.266 11.9-34.234 7.51-19.79-9.696-20.396-50.863-1.326-89.891zm4.744 160.226c6.785 6.993 12.262 14.471 16.271 22.257-4.523.647-8.898 2.131-12.861 4.382-5.434-3.094-11.651-4.759-17.98-4.759-15.515 0-28.959 9.588-34.102 23.804-10.99 4.067-19.401 13.345-22.485 24.557h-201.883c1.537-17.364-2.312-34.561-11.184-49.228-2.448-4.037-5.24-7.796-8.309-11.289h27.804c5.758 0 10.443 4.697 10.443 10.472v5.698c0 14.045 11.427 25.472 25.472 25.472s25.472-11.427 25.472-25.472v-23.585c0-5.774 4.698-10.473 10.472-10.473 5.758 0 10.443 4.698 10.443 10.473v12.359c0 14.045 11.427 25.472 25.472 25.472s25.472-11.427 25.472-25.472v-10.262c0-5.774 4.697-10.473 10.472-10.473s10.472 4.698 10.472 10.473v6.066c0 14.045 11.414 25.472 25.443 25.472 14.045 0 25.472-11.427 25.472-25.472 0-5.774 4.697-10.473 10.472-10.473h49.152zm-115.1-100.848c0-6.399 5.206-11.606 11.605-11.606s11.606 5.207 11.606 11.606-5.207 11.606-11.606 11.606-11.605-5.207-11.605-11.606zm-103.294 0c0-6.399 5.206-11.606 11.605-11.606s11.605 5.207 11.605 11.606-5.206 11.606-11.605 11.606-11.605-5.207-11.605-11.606zm-64.558 79.474c.02-.01.041-.016.061-.026.412-.201.792-.44 1.149-.703 32.293-18.954 76.352-29.405 126.601-29.405 47.271 0 89.246 9.167 121.386 26.509 5.75 3.103 11.135 6.449 16.135 9.998h-31.533c-14.045 0-25.472 11.427-25.472 25.473 0 5.774-4.697 10.472-10.472 10.472-5.759 0-10.443-4.697-10.443-10.472v-6.066c0-14.046-11.427-25.473-25.472-25.473s-25.472 11.427-25.472 25.473v10.262c0 5.774-4.697 10.472-10.472 10.472-5.677 0-10.472-4.796-10.472-10.472v-12.359c0-14.046-11.414-25.473-25.443-25.473-14.045 0-25.472 11.427-25.472 25.473v23.585c0 5.774-4.698 10.472-10.472 10.472s-10.472-4.697-10.472-10.472v-5.698c0-14.045-11.414-25.472-25.443-25.472h-40.075c6.479-5.881 13.782-11.263 21.853-16.098zm-57.266 19.793c18.473 4.139 33.8 14.922 43.163 30.364 7.432 12.286 10.534 26.809 8.958 41.457h-10.886c-8.369-17.012-22.162-29.987-39.315-36.804-.826-.328-1.662-.621-2.496-.917-2.667-10.943-2.486-22.645.576-34.1zm-3.618 48.958c11.355 4.512 20.883 12.461 27.642 22.863h-59.591c-6.248-5.867-11.338-13.218-14.807-21.474 15.319-6.794 31.894-7.292 46.756-1.389zm429.709 57.917c0 11.073-9.009 20.082-20.081 20.082h-198.766c-4.143 0-7.5 3.357-7.5 7.5s3.357 7.5 7.5 7.5h179.246v10.869c0 5.993-4.875 10.869-10.868 10.869h-381.062c-5.235 0-10.869-3.401-10.869-10.869v-10.869h188.941c4.142 0 7.5-3.357 7.5-7.5s-3.358-7.5-7.5-7.5h-208.488c-11.057 0-20.053-9.009-20.053-20.082v-20.054h92.313c.009 0 .018.002.027.002.013 0 .027-.002.04-.002h389.62z"/></g></svg>