<svg id="Layer_1" enable-background="new 0 0 512 512" height="512" viewBox="0 0 512 512" width="512" xmlns="http://www.w3.org/2000/svg"><g><g><g><path d="m258.658 92.7c-1.912 0-3.821-.729-5.283-2.189l-.028-.028c-2.929-2.93-2.929-7.678 0-10.607 2.93-2.928 7.678-2.928 10.607 0 2.929 2.93 2.942 7.692.014 10.621-1.468 1.467-3.39 2.203-5.31 2.203z"/></g><g><path d="m257.949 129.07c-1.912 0-3.821-.729-5.283-2.189l-.028-.028c-2.929-2.93-2.929-7.678 0-10.607 2.93-2.928 7.678-2.928 10.607 0 2.929 2.93 2.942 7.692.014 10.621-1.468 1.467-3.39 2.203-5.31 2.203z"/></g><g><path d="m224.663 111.063c-4.143 0-7.5-3.344-7.5-7.486v-.028c0-4.143 3.357-7.5 7.5-7.5s7.5 3.357 7.5 7.5-3.357 7.514-7.5 7.514z"/></g><g><path d="m342.981 182.355c-4.143 0-7.5-3.343-7.5-7.485v-.028c0-4.143 3.357-7.5 7.5-7.5s7.5 3.357 7.5 7.5-3.357 7.513-7.5 7.513z"/></g><g><path d="m354.47 297.736c-1.912 0-3.821-.729-5.283-2.189l-.028-.028c-2.929-2.93-2.929-7.678 0-10.607 2.93-2.928 7.678-2.928 10.607 0 2.929 2.93 2.942 7.692.014 10.621-1.468 1.467-3.39 2.203-5.31 2.203z"/></g><g><path d="m148.921 259.631c-4.143 0-7.5-3.344-7.5-7.486v-.028c0-4.143 3.357-7.5 7.5-7.5s7.5 3.357 7.5 7.5-3.358 7.514-7.5 7.514z"/></g><g><path d="m174.943 287.24c-4.143 0-7.5-3.343-7.5-7.485v-.028c0-4.143 3.357-7.5 7.5-7.5s7.5 3.357 7.5 7.5-3.357 7.513-7.5 7.513z"/></g><g><path d="m343.272 260.375c-1.912 0-3.821-.729-5.283-2.189l-.028-.028c-2.929-2.93-2.929-7.678 0-10.607 2.93-2.928 7.678-2.928 10.607 0 2.929 2.93 2.942 7.692.014 10.621-1.468 1.467-3.39 2.203-5.31 2.203z"/></g><g><path d="m440.274 260.46c-1.912 0-3.821-.729-5.283-2.189l-.028-.028c-2.929-2.93-2.929-7.678 0-10.607 2.93-2.928 7.678-2.928 10.607 0 2.929 2.93 2.942 7.692.014 10.621-1.468 1.467-3.39 2.203-5.31 2.203z"/></g><g><path d="m323.288 320.414c-1.954 0-3.904-.761-5.372-2.279l-.028-.029c-2.879-2.979-2.798-7.727.18-10.605s7.725-2.798 10.605.18c2.879 2.979 2.813 7.741-.166 10.62-1.459 1.41-3.341 2.113-5.219 2.113z"/></g><g><path d="m427.15 297.595c-1.912 0-3.821-.729-5.283-2.189l-.028-.028c-2.929-2.93-2.929-7.678 0-10.607 2.93-2.928 7.678-2.928 10.607 0 2.929 2.93 2.942 7.692.014 10.621-1.468 1.466-3.39 2.203-5.31 2.203z"/></g><g><path d="m357.786 151.352c-1.912 0-3.821-.729-5.283-2.189l-.028-.028c-2.929-2.93-2.929-7.678 0-10.607 2.93-2.928 7.678-2.928 10.607 0 2.929 2.93 2.942 7.692.014 10.621-1.468 1.466-3.39 2.203-5.31 2.203z"/></g></g><path d="m499.482 375.439h-19.114c.896-2.445 1.385-5.084 1.385-7.836v-141.396c0-12.592-10.244-22.836-22.835-22.836h-64.518c.892-2.437 1.379-5.066 1.379-7.808v-141.424c0-12.576-10.244-22.808-22.836-22.808h-82.602-9.921-131.386c-12.591 0-22.835 10.231-22.835 22.808v51.763c0 4.143 3.357 7.5 7.5 7.5s7.5-3.357 7.5-7.5v-51.763c0-4.305 3.515-7.808 7.835-7.808h131.387 9.921c4.32 0 7.836 3.503 7.836 7.808v141.425c0 4.305-3.516 7.808-7.836 7.808h-141.308c-4.32 0-7.835-3.503-7.835-7.808v-55.022c0-4.143-3.357-7.5-7.5-7.5s-7.5 3.357-7.5 7.5v55.022c0 2.741.487 5.371 1.379 7.808h-64.518c-12.592 0-22.836 10.244-22.836 22.836v68.511c-4.285-1.716-8.76-3.104-13.417-4.1-9.591-2.04-14.511 1.008-16.99 10.546-5.38 20.967-2.307 42.278 8.654 60.013 3.238 5.228 7.101 10.005 11.488 14.263h-17.47c-6.886-.002-12.489 5.601-12.489 12.488v35.122c0 6.887 5.603 12.489 12.489 12.489h20.194v32.64c0 6.887 5.603 12.489 12.489 12.489h73.105c6.902 0 12.518-5.603 12.518-12.489v-32.64h84.428c4.143 0 7.5-3.357 7.5-7.5s-3.357-7.5-7.5-7.5h-200.223v-30.101h482v30.101h-247.137c-4.143 0-7.5 3.357-7.5 7.5s3.357 7.5 7.5 7.5h131.341v32.64c0 6.887 5.603 12.489 12.489 12.489h73.105c6.902 0 12.518-5.603 12.518-12.489v-32.64h20.166c6.902 0 12.518-5.603 12.518-12.489v-35.122c0-6.887-5.615-12.49-12.518-12.49zm-383.686 90.23h-68.112v-30.129h68.112zm196.003-419.338h61.145c4.32 0 7.836 3.503 7.836 7.808v141.425c0 4.305-3.516 7.808-7.836 7.808h-6.52-54.625c.892-2.437 1.379-5.066 1.379-7.808v-141.425c0-2.742-.488-5.371-1.379-7.808zm-251.999 329.108h-4.232c-10.102-5.091-18.499-12.721-24.34-22.154-8.709-14.091-11.19-31.082-7.012-47.879 16.938 3.763 31.028 13.555 39.723 27.619 1.056 1.707 2.014 3.46 2.884 5.235-5.096 11.511-7.519 24.171-7.023 37.179zm42.639 0h-27.628c-.734-16.081 3.877-31.506 13.264-44.007 11.113-14.776 27.827-24.193 47.06-26.515.026-.003.052-.006.077-.009.004.026.009.053.013.08.001.004.002.009.002.009 3.119 19.116-1.275 37.787-12.36 52.56-5.533 7.33-12.398 13.339-20.428 17.882zm109.735 0h-85.102c2.781-2.753 5.39-5.696 7.779-8.862 13.57-18.084 18.961-40.809 15.18-63.987-1.663-10.287-6.344-13.806-16.691-12.564-23.328 2.816-43.661 14.319-57.256 32.396-.21.279-.4.569-.606.851-5.392-8.171-12.248-15.118-20.253-20.587v-76.479c0-4.32 3.516-7.836 7.836-7.836h149.114v157.068zm171.978-7.835c0 4.32-3.515 7.836-7.835 7.836h-149.143v-157.069h149.144c4.32 0 7.835 3.516 7.835 7.836v141.397zm82.602 0c0 4.32-3.515 7.836-7.835 7.836h-61.152c.896-2.445 1.385-5.084 1.385-7.836v-141.397c0-2.751-.489-5.391-1.385-7.836h61.152c4.32 0 7.835 3.516 7.835 7.836zm-2.438 98.065h-68.112v-30.129h68.112z"/></g></svg>