<svg id="Layer_1" enable-background="new 0 0 511.193 511.193" height="512" viewBox="0 0 511.193 511.193" width="512" xmlns="http://www.w3.org/2000/svg"><g><path d="m498.676 402.643h-2.484l-.022-28.813c0-6.774-3.156-12.989-8.441-16.625-4.946-3.4-11.137-4.085-17.009-1.905-10.231-66.546-11.104-112.513-2.65-140.024h4.614c10.09 0 18.3-8.21 18.3-18.301v-12.585c0-8.415-5.717-15.502-13.464-17.63v-3.828c0-32.052-26.063-58.127-58.097-58.127h-45.75c-32.035 0-58.098 26.075-58.098 58.127v3.828c-7.748 2.128-13.464 9.216-13.464 17.63v12.586c0 10.091 8.209 18.301 18.299 18.301h4.638c8.436 27.525 7.555 73.492-2.674 140.024-5.878-2.181-12.066-1.494-17.009 1.906-5.286 3.635-8.441 9.85-8.441 16.618l-.022 28.818h-33.817v-298.262c21.6-3.587 38.125-22.382 38.125-44.971 0-25.158-20.467-45.626-45.625-45.626s-45.625 20.468-45.625 45.626c0 22.589 16.525 41.384 38.125 44.971v298.261h-33.817l-.022-28.813c0-6.774-3.156-12.989-8.441-16.625-4.946-3.4-11.137-4.085-17.009-1.905-10.231-66.549-11.103-112.515-2.647-140.024h4.611c10.09 0 18.3-8.21 18.3-18.301v-12.584c0-8.415-5.717-15.502-13.464-17.63v-3.828c0-32.052-26.063-58.127-58.097-58.127h-45.727c-32.05 0-58.125 26.075-58.125 58.127v3.83c-7.732 2.131-13.436 9.216-13.436 17.628v12.586c0 10.091 8.196 18.301 18.271 18.301h4.635c8.438 27.523 7.558 73.489-2.672 140.024-5.867-2.181-12.047-1.495-16.993 1.902-5.295 3.639-8.457 9.854-8.457 16.622l-.022 28.818h-2.483c-6.887 0-12.49 5.602-12.49 12.488v35.065c0 6.886 5.603 12.488 12.489 12.488h20.137v23.398c0 6.245 5.603 11.326 12.489 11.326h72.99c6.886 0 12.489-5.081 12.489-11.326v-23.398h107.046c4.142 0 7.5-3.357 7.5-7.5s-3.358-7.5-7.5-7.5h-222.64v-30.042h481.193v30.042h-223.915c-4.142 0-7.5 3.357-7.5 7.5s3.358 7.5 7.5 7.5h108.292v23.398c0 6.245 5.603 11.326 12.489 11.326h72.991c6.886 0 12.489-5.081 12.489-11.326v-23.398h20.137c6.902 0 12.517-5.603 12.517-12.488v-35.065c0-6.886-5.615-12.488-12.517-12.488zm-383.082 79.766h-67.968v-19.725h67.968zm-66.948-319.477c0-18.662 11.917-34.589 28.539-40.583v13.341c0 4.143 3.358 7.5 7.5 7.5s7.5-3.357 7.5-7.5v-15.886h14.934v15.886c0 4.143 3.358 7.5 7.5 7.5s7.5-3.357 7.5-7.5v-15.886h14.961v15.886c0 4.143 3.358 7.5 7.5 7.5s7.5-3.357 7.5-7.5v-13.338c16.606 5.996 28.511 21.92 28.511 40.579v3.158h-131.945zm-10.164 37.344c-1.804 0-3.271-1.48-3.271-3.301v-12.585c0-1.789 1.498-3.3 3.271-3.3h152.274c1.789 0 3.3 1.511 3.3 3.3v12.586c0 1.789-1.511 3.301-3.3 3.301h-61.681c-4.142 0-7.5 3.357-7.5 7.5s3.358 7.5 7.5 7.5h41.479c-2.2 8.394-3.706 17.99-4.508 28.908h-102.844c-.799-10.917-2.301-20.513-4.497-28.908h38.878c4.142 0 7.5-3.357 7.5-7.5s-3.358-7.5-7.5-7.5h-59.101zm25.362 58.909h101.557c-.428 26.68 2.557 59.981 8.97 101.021-19.406 5.828-39.418 8.701-59.687 8.506-.044 0-.087 0-.131 0-20.27.208-40.287-2.674-59.687-8.503 6.414-41.04 9.401-74.342 8.978-101.024zm-33.871 143.458.022-28.813c0-1.804.748-3.438 1.951-4.264.923-.634 2.014-.696 3.353-.181 2.785 1.063 5.587 2.055 8.398 3 .159.063.322.115.486.167 22.802 7.606 46.441 11.365 70.436 11.158 23.988.213 47.633-3.55 70.444-11.161.161-.051.321-.102.477-.163 2.816-.947 5.621-1.941 8.41-3.005 1.333-.512 2.429-.452 3.352.183 1.198.824 1.942 2.458 1.942 4.271l.022 28.807h-169.293zm194.985-343.233c0-16.888 13.738-30.626 30.625-30.626s30.625 13.738 30.625 30.626c0 16.872-13.738 30.598-30.625 30.598s-30.625-13.726-30.625-30.598zm105.616 103.522c0-18.659 11.905-34.583 28.511-40.579v13.338c0 4.143 3.358 7.5 7.5 7.5s7.5-3.357 7.5-7.5v-15.886h14.961v15.886c0 4.143 3.358 7.5 7.5 7.5s7.5-3.357 7.5-7.5v-15.886h14.961v15.886c0 4.143 3.358 7.5 7.5 7.5s7.5-3.357 7.5-7.5v-13.338c16.606 5.996 28.511 21.92 28.511 40.579v3.158h-131.944zm-10.165 37.344c-1.789 0-3.299-1.512-3.299-3.301v-12.585c0-1.789 1.511-3.3 3.299-3.3h152.274c1.789 0 3.3 1.511 3.3 3.3v12.586c0 1.789-1.511 3.301-3.3 3.301h-62.361c-4.142 0-7.5 3.357-7.5 7.5s3.358 7.5 7.5 7.5h42.16c-2.199 8.39-3.695 17.998-4.498 28.908h-102.866c-.8-10.909-2.293-20.517-4.487-28.908h38.936c4.142 0 7.5-3.357 7.5-7.5s-3.358-7.5-7.5-7.5h-59.158zm25.355 58.909h101.571c-.43 26.681 2.549 59.975 8.963 101.021-19.407 5.828-39.42 8.701-59.687 8.506-.044 0-.087 0-.131 0-20.262.208-40.282-2.673-59.687-8.504 6.415-41.045 9.396-74.34 8.971-101.023zm-33.864 143.458.022-28.813c0-1.808.744-3.441 1.942-4.266.921-.634 2.018-.694 3.362-.179 2.786 1.063 5.588 2.056 8.4 3.001.153.061.312.111.471.161 22.81 7.613 46.472 11.387 70.449 11.162 23.999.213 47.638-3.55 70.448-11.162.159-.051.318-.101.471-.162 2.816-.947 5.621-1.941 8.411-3.005 1.333-.512 2.429-.452 3.352.183 1.198.824 1.942 2.458 1.942 4.271l.022 28.807h-169.292zm151.639 79.766h-67.968v-19.725h67.968z"/></g></svg>