<svg id="Layer_1" enable-background="new 0 0 512 512" height="512" viewBox="0 0 512 512" width="512" xmlns="http://www.w3.org/2000/svg"><g><path d="m451.056 460.858h-106.128c-.01 0-.019-.009-.019-.019v-23.66c0-.01.007-.018.017-.019 22.231-2.126 45.376-13.502 64.544-31.961 21.57-20.76 33.94-46.59 33.94-70.86v-91.115c0-7.895-6.4-14.295-14.295-14.295h-153.746c-.029-.027-.046-.043-.074-.07-2.32-34.588-11.236-65.631-26.525-92.497 2.789-2.745 4.525-6.558 4.525-10.771v-22.961c0-6.548-4.191-12.122-10.025-14.221l-7.666-81.611c-.363-3.853-3.597-6.798-7.468-6.798h-48.896c-3.871 0-7.105 2.945-7.467 6.799l-7.667 81.618c-5.835 2.104-10.025 7.673-10.025 14.214v22.961c0 4.219 1.744 8.036 4.544 10.782-15.307 26.848-24.22 57.887-26.54 92.487-.029.027-.046.043-.074.07h-13.016c-7.895 0-14.295 6.4-14.295 14.295v91.115c0 10.233 2.212 20.738 6.374 31.026.026.064-.04.125-.101.092-4.539-2.438-9.316-4.557-14.329-6.285-10.465-3.651-15.87-1.172-19.938 9.155-9.401 23.904-8.889 49.42 1.441 71.842 3.431 7.459 7.917 14.416 13.275 20.658.01.012.002.031-.014.031h-30.464c-6.36 0-11.516 5.156-11.516 11.516v28.1c0 6.355 5.157 11.525 11.497 11.525h192.111c3.844 0 7.29-2.761 7.745-6.578.543-4.555-2.999-8.422-7.445-8.422h-188.889c-.01 0-.019-.009-.019-.019v-21.104c0-.01.008-.019.019-.019h383.107c.01 0 .019.009.019.019v21.104c0 .01-.008.019-.019.019h-159.279c-3.844 0-7.29 2.761-7.745 6.578-.543 4.555 2.999 8.422 7.445 8.422h163.102c6.339 0 11.497-5.17 11.497-11.525v-28.1c-.002-6.362-5.158-11.518-11.518-11.518zm-212.886-358.352c.054 0 .125.071.125.125v22.961c0 .054-.071.125-.125.125h-68.937c-.095 0-.153-.087-.153-.125v-22.961c0-.038.058-.125.153-.125zm-16.862-87.506 6.811 72.506h-48.862l6.811-72.506zm-47.9 125.757c.023-.013.042-.024.065-.037h60.454c.023.013.042.024.065.037 15.094 25.301 23.905 54.881 26.262 88.092-.03.032-.046.049-.075.081h-26.017c-.029-.028-.045-.043-.074-.071-.413-12.575-1.782-27.396-4.038-36.319-1.02-4.01-5.1-6.44-9.12-5.42-4.01 1.02-6.44 5.1-5.42 9.11 1.756 6.926 3.154 20.026 3.577 32.623-.029.03-.046.047-.075.077h-30.645c-.03-.031-.046-.047-.075-.077.423-12.596 1.821-25.697 3.577-32.623 1.02-4.01-1.41-8.09-5.43-9.11-4.01-1.02-8.09 1.41-9.11 5.42-2.266 8.923-3.635 23.744-4.038 36.319-.029.028-.045.043-.074.071h-26.027c-.03-.032-.046-.049-.075-.081 2.358-33.221 11.189-62.801 26.293-88.092zm-31.83 320.086c-.002.009-.01.015-.019.015h-28.583c-.004 0-.009-.001-.012-.004-9.186-7.292-16.31-16.348-21.19-26.958-8.605-18.678-8.999-40.014-1.109-60.074.107-.272.305-.76 1.065-.478 20.352 7.017 36.318 21.179 44.95 39.859 6.83 14.893 8.499 31.283 4.898 47.64zm16.709-9.894c-.05.047-.131.008-.126-.061 1.142-15.128-1.484-30.064-7.857-43.957-4.343-9.399-10.229-17.822-17.363-25.069-.001-.04-.001-.063-.002-.103.908-.979 1.829-1.943 2.78-2.879 11.82-11.69 26.79-20.04 43.84-24.38.02-.005.039-.01.058-.015 1.298-.33 2.625.419 3.016 1.699.009.028.017.057.026.086 6.08 20.29 5.56 41.05-1.3 59.8-1.7 4.62-3.78 9.13-6.24 13.47-.03.06-.06.11-.1.17-4.53 7.966-10.137 15.07-16.732 21.239zm44.945 9.89c0 .01-.008.019-.019.019h-33.531c-.017 0-.025-.021-.013-.032 7.255-6.99 13.451-14.975 18.501-23.896.411-.723.812-1.456 1.203-2.189.031-.013.052-.022.083-.036 4.594 1.199 9.196 2.02 13.759 2.456.01.001.017.009.017.019zm126.677 0c0 .01-.008.019-.019.019h-111.639c-.01 0-.019-.009-.019-.019v-23.29c0-.01.008-.019.019-.019h111.639c.01 0 .019.009.019.019zm-119.179-38.309c-4.983 0-10.024-.613-15.037-1.761-.022-.04-.032-.059-.054-.099 7.803-21.619 8.353-45.449 1.391-68.69-3.57-11.95-9.11-15.09-21.17-12.02-18.416 4.691-34.76 13.468-48.027 25.702-.049-.009-.069-.013-.118-.022-5.082-10.173-8.015-20.861-8.015-31.301v-41.665c0-.042.034-.075.075-.075h69.039c3.85 0 7.308-2.761 7.762-6.584.54-4.549-3.004-8.416-7.446-8.416h-69.355c-.041 0-.075-.033-.075-.075v-33.521c0-.042.034-.075.075-.075h308.56c.041 0 .075.033.075.075v33.52c0 .041-.034.075-.075.075h-204.248c-3.85 0-7.308 2.761-7.762 6.584-.54 4.549 3.004 8.416 7.445 8.416h204.565c.041 0 .075.033.075.075v41.665c0 42.03-47.63 88.19-91 88.19h-126.68z"/></g></svg>