<svg id="Layer_1" enable-background="new 0 0 511.997 511.997" height="512" viewBox="0 0 511.997 511.997" width="512" xmlns="http://www.w3.org/2000/svg"><g><path d="m508.093 386.599c-2.483-2.437-5.72-3.75-9.213-3.677l-486.14 11.311c-.013 0-.026.001-.04.001-7.121.203-12.7 5.887-12.7 12.939v53.973c0 7.051 5.578 12.734 12.74 12.941l486.173 11.312c.082.001.164.002.245.002 3.354 0 6.52-1.299 8.939-3.674 2.479-2.433 3.899-5.812 3.899-9.271v-76.594c.001-3.452-1.422-6.828-3.903-9.263zm-11.096 11.371v28.689h-481.997v-17.476zm-481.997 61.166v-17.476h481.997v28.69z"/><g><path d="m483.662 26.596h-291.939c-4.142 0-7.5 3.357-7.5 7.5s3.358 7.5 7.5 7.5h291.939c7.353 0 13.335 5.982 13.335 13.336v268.05c0 7.354-5.982 13.336-13.335 13.336h-100.885c-4.143 0-7.5 3.357-7.5 7.5s3.357 7.5 7.5 7.5h100.885c15.624 0 28.335-12.712 28.335-28.336v-268.05c0-15.624-12.711-28.336-28.335-28.336z"/><path d="m299.609 241.582c-4.143 0-7.5 3.357-7.5 7.5v8.334c0 4.143 3.357 7.5 7.5 7.5s7.5-3.357 7.5-7.5v-8.334c0-4.143-3.357-7.5-7.5-7.5z"/><path d="m304.35 195.228-7.653-3.316c-3.801-1.646-8.216.099-9.864 3.899-1.646 3.801.1 8.217 3.899 9.864l7.653 3.316c.972.421 1.983.62 2.979.62 2.898 0 5.659-1.69 6.886-4.52 1.646-3.799-.101-8.216-3.9-9.863z"/><path d="m125.089 249.226c-2.958-2.9-7.706-2.854-10.606.103s-2.854 7.706.103 10.606l5.896 5.783c1.46 1.432 3.356 2.146 5.251 2.146 1.944 0 3.886-.751 5.355-2.248 2.9-2.957 2.854-7.706-.103-10.606z"/><path d="m119.287 205.313c0-4.143-3.358-7.5-7.5-7.5h-8.334c-4.142 0-7.5 3.357-7.5 7.5s3.358 7.5 7.5 7.5h8.334c4.142 0 7.5-3.357 7.5-7.5z"/><path d="m369.625 192.938c-4.143 0-7.5 3.357-7.5 7.5v8.362c0 4.143 3.357 7.5 7.5 7.5s7.5-3.357 7.5-7.5v-8.362c0-4.143-3.357-7.5-7.5-7.5z"/><path d="m361.113 256.712-6.491 5.244c-3.223 2.603-3.725 7.325-1.121 10.547 1.482 1.835 3.65 2.787 5.839 2.787 1.654 0 3.32-.545 4.708-1.666l6.491-5.244c3.223-2.603 3.725-7.325 1.121-10.547-2.602-3.221-7.323-3.724-10.547-1.121z"/><path d="m425.488 168.003 6.491 5.244c1.388 1.121 3.053 1.666 4.708 1.666 2.188 0 4.357-.952 5.839-2.787 2.604-3.222 2.102-7.944-1.121-10.547l-6.491-5.244c-3.222-2.604-7.944-2.104-10.547 1.121-2.603 3.222-2.101 7.945 1.121 10.547z"/><path d="m393.973 296.464c3.057 2.03 6.77 3.948 11.404 5.921 5.709 2.434 12.836 3.938 20.402 3.938 9.645 0 20.002-2.444 29.043-8.524 17.124-11.507 19.613-29.06 21.809-44.542 4.415-31.012 8.979-63.08 2.516-96.182-.443-2.269-.848-4.42-1.234-6.473-3.518-18.698-5.843-31.052-21.709-48.653-7.425-8.218-15.606-12.5-24.317-12.728-10.409-.281-21.101 5.234-32.755 16.846-.392.393-.8.795-1.209 1.198-5.77-7.77-14.02-13.565-24.274-16.704-18.982-5.808-40.382-1.183-53.662 10.728-5.233-5.367-10.737-9.097-19.526-9.097-4.813 0-9.921-.388-14.86-.764-11.343-.863-22.058-1.676-30.981 1.658-14.307 5.318-22.207 23.109-19.657 44.275 2.349 19.364 5.807 45.187 7.514 73.907-5.915.894-11.712 2.583-17.255 5.102-2.98 1.352-5.826 2.918-8.534 4.669l-.938-89.309c-.226-21.675-11.424-38.212-30.723-45.371-19.194-7.121-41.735-3.241-55.944 9.073-8.392-3.524-15.709-3.413-21.405-2.059-1.785.425-3.536 1.007-5.254 1.729-1.108-8.188-3.461-16.084-7.056-23.589-5.713-11.965-14.2-22.12-24.749-29.919h86.466c4.142 0 7.5-3.357 7.5-7.5s-3.358-7.5-7.5-7.5h-103.692c-3.372 0-6.654.594-9.794 1.758-7.953-1.832-12.517 1.048-15.82 9.704-5.694 15.122-7.042 30.866-4.01 45.96-6.005 2.258-11.793 5.352-17.212 9.29-7.425 5.382-8.439 10.943-3.373 18.617 5.879 8.836 13.335 16.044 21.875 21.336v189.721c0 15.624 12.711 28.336 28.335 28.336h294.746c4.143 0 7.5-3.357 7.5-7.5s-3.357-7.5-7.5-7.5h-294.747c-7.353 0-13.335-5.982-13.335-13.336v-182.8c2.786.891 5.633 1.626 8.547 2.155 3.91.704 7.88 1.055 11.858 1.055 2.573 0 5.148-.154 7.712-.446-1.315 4.473-2.469 9.181-3.435 14.123-6.462 32.94-1.914 65.091 2.487 96.198 2.225 15.49 4.746 33.048 21.828 44.527 9.034 6.088 19.39 8.534 29.038 8.534 7.565 0 14.695-1.505 20.406-3.938.826-.351 1.626-.704 2.402-1.059 7.555 4.79 16.432 7.315 25.342 7.315 4.674 0 9.357-.693 13.857-2.112 13.969-4.406 24.759-14.915 30.913-29.921 4.089.754 8.196 1.145 12.283 1.145 6.867 0 13.673-1.072 20.226-3.198.095 17.335 3.202 31.775 22.21 35.111.799.144 2.428.438 7.106.438 4.513 0 11.861-.274 24.038-1.22l.63-.05c8.929-.697 19.321-1.518 27.337-8.378 8.634 8.605 20.483 13.449 32.753 13.449 4.37 0 8.793-.612 13.139-1.885 9.337-2.731 17.168-8.08 23.238-15.559zm15.756-179.78c8.579-8.549 15.71-12.639 21.764-12.469 4.51.118 8.952 2.667 13.576 7.783 13.039 14.466 14.731 23.46 18.103 41.377.393 2.085.804 4.27 1.253 6.574 5.979 30.618 1.596 61.412-2.644 91.197-2.331 16.439-4.526 26.945-15.327 34.203-11.403 7.669-26.238 7.053-35.197 3.235-4.146-1.765-7.208-3.356-9.505-4.964 3.621-8.158 5.848-17.71 6.493-28.374 8.03-.679 15.699-3.362 22.405-7.95 10.6-7.283 17.648-18.543 19.847-31.706.002-.014.005-.028.007-.042 1.182-7.328-1.777-11.614-9.02-13.099-11.755-2.451-23.476-.651-33.429 5.028l-.741-70.561c-.058-5.514-.854-10.709-2.317-15.51 1.035-1.069 4.211-4.202 4.732-4.722zm-4.264 112.847c.078-.109.158-.217.238-.326.217-.297.44-.589.667-.878 1.945-2.463 4.247-4.631 6.875-6.43 6.278-4.314 13.873-6.15 21.701-5.312-2.053 7.604-6.51 14.032-12.778 18.339-6.284 4.3-13.881 6.136-21.712 5.295 1.051-3.89 2.751-7.516 5.009-10.688zm-323.63-151.544c2.148 4.484 3.747 9.145 4.803 13.949-8.023-5.652-17.102-9.476-26.892-11.246-7.148-1.295-14.353-1.407-21.418-.409-2.27-12.09-1.109-24.711 3.464-36.872 18.01 5.936 32.229 18.213 40.043 34.578zm-30.562 49.589c-14.014-2.541-26.353-10.652-34.86-22.871 12.246-8.508 26.635-11.794 40.663-9.255 10.337 1.871 19.681 6.704 27.357 14.075-3.799 4.797-7.228 10.523-10.217 17.064-7.569 2.033-15.273 2.369-22.943.987zm99.247 119.889c0 26.431-.979 32.57-11.51 38.159-.558.206-1.098.471-1.6.811-1.435.698-3.017 1.402-4.781 2.151-8.967 3.821-23.805 4.44-35.197-3.237-10.778-7.244-12.991-17.759-15.352-34.2-4.419-31.234-8.593-60.736-2.617-91.198 3.948-20.206 11.414-36.377 20.349-45.172.075-.073.149-.146.221-.221 3.522-3.41 7.269-5.675 11.117-6.591 5.374-1.277 10.707.172 15.688 3.062h.001c6.65 3.859 12.671 10.292 17.319 16.278 2.797 3.604 5.981 8.951 6.328 18.622-11.118-3.967-23.303-3.563-34.618 1.213-6.86 2.869-8.926 7.651-6.314 14.62 4.642 12.486 13.72 22.182 25.579 27.311 4.936 2.122 10.124 3.339 15.389 3.676v54.716zm-9.451-72.167c-7.019-3.035-12.628-8.485-16.075-15.539 7.505-2.329 15.313-1.99 22.31 1.017 7.012 3.032 12.616 8.479 16.074 15.562-1.961.605-3.943 1.024-5.926 1.265-.153.011-.303.028-.453.049-5.453.587-10.901-.192-15.93-2.354zm48.685 80.413c-2.901 8.212-.866 13.217 6.775 16.579-4.516 10.066-11.779 17.048-20.939 19.937-6.567 2.072-13.696 1.85-20.128-.403 9.526-9.583 10.057-22.476 10.057-44.358v-56.151c2.37-.611 4.722-1.402 7.04-2.377 6.827-2.917 8.872-7.7 6.27-14.577-2.866-7.736-7.436-14.398-13.309-19.573v-7.103c0-11.813-3.022-21.21-9.513-29.574-4.569-5.885-9.021-10.501-13.306-14.108 10.193-6.389 24.966-8.085 37.108-3.578 7.729 2.866 20.725 10.767 20.941 31.465l1.075 102.366c-5.162 6.219-9.262 13.444-12.071 21.455zm143.507-109.783c6.29 4.321 10.752 10.76 12.796 18.348-7.801.838-15.406-1.003-21.705-5.313-6.307-4.333-10.769-10.764-12.801-18.35 7.831-.846 15.432 1.002 21.71 5.315zm-89.049 112.311c-12.406 5.628-26.485 5.99-39.8 1.058 5.04-13.273 14.583-23.632 27.009-29.268 12.381-5.625 26.458-5.986 39.793-1.056-5.071 13.289-14.613 23.648-27.002 29.266zm76.013 22.381c-3.783 11.234-10.056 12.185-23.884 13.265l-.629.049c-21.771 1.692-26.57 1.107-27.348.969-7.311-1.283-9.769-7.525-9.644-27.537 12.471-8.001 21.963-20.079 27.155-34.806 3.015-8.536.715-13.611-7.693-16.975-6.828-2.727-13.84-4.338-20.835-4.866-2.017-28.024-5.398-57.873-7.495-75.156-1.651-13.698 2.551-25.648 10.003-28.419 5.843-2.183 14.958-1.489 24.606-.757 5.219.396 10.614.807 15.997.807 3.81 0 5.837 1.052 11.913 7.993.665.765 2.527 3.358 4.77 10.261-3.994-.154-8.064.184-12.137 1.031-7.246 1.501-10.19 5.789-9.001 13.112.001.005.002.009.003.014 2.161 13.146 9.21 24.413 19.861 31.732 3.128 2.14 6.465 3.86 9.945 5.165 3.549 41.333 1.332 83.593-5.587 104.118zm46.297 17.009c-11.962 3.499-25.206-.605-32.96-9.823.036-.09.066-.188.102-.278.269-.685.529-1.387.775-2.119.001-.003.002-.007.003-.011.002-.005.004-.01.005-.015.002-.005.003-.01.004-.016 8.402-24.969 9.397-69.502 6.645-105.909.418.011.836.023 1.255.023 3.377 0 6.796-.353 10.212-1.064 7.275-1.491 10.233-5.78 9.038-13.145-2.193-13.159-9.241-24.42-19.847-31.708-2.531-1.74-5.205-3.198-7.982-4.388-1.537-6.224-3.216-11.367-5.06-15.503 9.137-9.365 25.991-13.226 40.542-8.769 8.512 2.605 22.824 10.249 23.057 32.171l.881 83.812c-3.151 4.428-5.534 9.429-7.054 14.838-1.057 3.749-2.203 8.11-1 11.959 1.163 3.722 4.548 5.692 8.158 6.539-1.303 23.086-10.876 38.753-26.774 43.406z"/></g></g></svg>