<svg id="Layer_1" enable-background="new 0 0 512.003 512.003" height="512" viewBox="0 0 512.003 512.003" width="512" xmlns="http://www.w3.org/2000/svg"><g><g><path d="m243.381 150.607c-1.912 0-3.821-.729-5.283-2.189l-.028-.028c-2.929-2.93-2.929-7.678 0-10.607 2.93-2.928 7.678-2.928 10.607 0 2.929 2.93 2.942 7.692.014 10.621-1.468 1.467-3.39 2.203-5.31 2.203z"/></g><g><path d="m249.816 104.545c-1.912 0-3.821-.729-5.283-2.189l-.028-.028c-2.929-2.93-2.929-7.678 0-10.607 2.93-2.928 7.678-2.928 10.607 0 2.929 2.93 2.942 7.692.014 10.621-1.468 1.466-3.39 2.203-5.31 2.203z"/></g><g><path d="m322.204 138.327c-4.143 0-7.5-3.344-7.5-7.486v-.028c0-4.143 3.357-7.5 7.5-7.5s7.5 3.357 7.5 7.5c0 4.142-3.357 7.514-7.5 7.514z"/></g><g><path d="m309.967 86.431c-1.912 0-3.821-.729-5.283-2.189l-.028-.028c-2.929-2.93-2.929-7.678 0-10.607 2.93-2.928 7.678-2.928 10.607 0 2.929 2.93 2.942 7.692.014 10.621-1.468 1.467-3.39 2.203-5.31 2.203z"/></g><g><path d="m342.423 232.188c-1.912 0-3.821-.729-5.283-2.189l-.028-.028c-2.929-2.93-2.929-7.678 0-10.607 2.93-2.928 7.678-2.928 10.607 0 2.929 2.93 2.942 7.692.014 10.621-1.468 1.467-3.39 2.203-5.31 2.203z"/></g><g><path d="m229.228 225.874h-.028c-4.143 0-7.5-3.357-7.5-7.5s3.357-7.5 7.5-7.5 7.515 3.357 7.515 7.5-3.345 7.5-7.487 7.5z"/></g><path d="m508.236 3.416c-2.379-2.302-5.508-3.531-8.751-3.407l-330.796 9.976c-6.688.144-12.13 5.656-12.13 12.288v47.594c0 6.672 5.293 12.069 12.065 12.288l43.292 1.304c.197.287.379.576.583.863 5.47 7.646 1.716 16.711.155 18.607-6.268 7.653-9.72 18.049-9.72 29.271s3.452 21.618 9.712 29.262c.891 1.092 2.883 5.376 2.674 10.338-2.535-.273-5.222-.365-8.112-.234-7.017.34-13.452 2.228-19.239 5.628-4.057-9.359-11.887-17.239-23.263-23.205-3.027-1.586-3.027-1.586-3.887-5.946-.152-3.79-2.025-8.317-3.138-11.1-7.607-19.017-25.48-31.658-46.063-31.658-23.562 0-43.596 16.608-48.724 40.411-.176.829-.326 1.608-.469 2.345-.843 4.365-.843 4.365-3.863 5.947-17.338 9.072-26.502 22.584-26.502 39.073 0 8.203 1.761 15.036 5.229 20.305 2.718 4.137 3.008 9.587.907 17.17-.742 2.703-1.573 6.192-1.795 10.074h-11.665c-13.639 0-24.734 11.109-24.734 24.764 0 13.146 10.31 23.925 23.268 24.687 1.381 37.791 13.261 74.056 34.569 105.311 21.202 31.099 50.381 55.402 84.604 70.549v33.396c0 6.996 5.691 12.688 12.688 12.688h136.829c6.995 0 12.687-5.691 12.687-12.688v-33.396c34.225-15.146 63.403-39.449 84.605-70.549 21.308-31.254 33.188-67.52 34.569-105.311 12.958-.762 23.267-11.541 23.267-24.687 0-13.654-11.096-24.764-24.734-24.764h-20.459c-1.25-3.232-2.934-6.443-5.033-9.591-.404-.612-.949-1.292-.882-2.045.117-1.325.837-2.76 1.216-4.029 5.72-19.133-2.153-38.993-19.14-48.295-3.809-2.09-7.819-3.502-11.896-4.273.355-8.848-3.01-16.695-6.035-20.407-4.098-5.003-6.354-12.022-6.354-19.768s2.256-14.765 6.363-19.779c4.017-4.926 7.228-14.498 5.594-24.311l133.74 4.021c.132.004.263.007.395.007 3.13 0 6.09-1.204 8.372-3.414 2.394-2.317 3.766-5.554 3.766-8.879v-67.55c0-3.328-1.372-6.564-3.765-8.881zm-336.677 63.82v-13.68h32.124c-.52 4.969-.147 9.868 1.107 14.681zm14.43 146.108c3.424-5.251 5.172-11.994 5.208-20.034 4.819-4.23 10.318-6.45 16.712-6.76 5.745-.249 10.266.565 13.444 2.447 12.747 7.549 26.685 2.994 31.309 1.484 3.46-1.153 6.13-1.719 8.678-1.835 12.092-.585 23.192 5.796 25.825 14.835 1.009 3.48 1.475 7.273 3.395 10.408 1.778 2.903 4.717 4.974 7.379 6.999 6.314 4.798 11.435 12.033 14.235 19.722h-125.336c-.216-3.943-1.038-7.408-1.775-10.092-2.128-7.687-1.851-12.972.926-17.174zm38.72-137.733c-5.216-7.33-7.148-14.45-5.918-22.055h52.81c-1.114 10.638 1.831 20.948 8.836 30.756 5.443 7.636 1.698 16.735.176 18.603-6.294 7.645-9.76 18.045-9.76 29.286s3.466 21.642 9.737 29.26c1.386 1.699 4.521 9.195 1.235 16.221-6.322-2.904-13.608-4.387-21.189-4.019-5.141.233-9.721 1.589-12.675 2.573-7.84 2.559-13.476 2.674-18.086.336 1.872-10.445-2.006-20.18-5.616-24.604-4.079-4.98-6.325-12.001-6.325-19.768s2.246-14.787 6.314-19.755c5.784-7.029 9.926-23.603.461-36.834zm67.939-.011c-5.228-7.321-7.162-14.438-5.933-22.044h52.818c-1.113 10.628 1.838 20.938 8.831 30.766 5.448 7.616 1.693 16.722.155 18.607-6.286 7.676-9.748 18.071-9.748 29.271s3.462 21.596 9.737 29.258c.886 1.087 3.039 5.702 2.626 10.937-9.01 1.723-17.531 6.507-24.065 14.066-.854.992-1.672 2.378-2.718 3.172-.619.47-1.491.368-2.248.35-8.591-.146-16.043 1.592-22.124 5.075-1.451-3.14-3.431-6.024-5.828-8.594 7.427-12.767 3.47-27.855-1.959-34.511-4.088-4.967-6.34-11.981-6.34-19.753s2.252-14.786 6.362-19.779c5.742-7.039 9.852-23.61.434-36.821zm-242.825 129.523c-1.833-2.783-2.762-6.842-2.762-12.063 0-10.699 6.21-19.374 18.461-25.785 9.42-4.937 10.544-10.759 11.632-16.39.126-.652.259-1.342.41-2.054 3.621-16.809 17.625-28.548 34.055-28.548 13.129 0 24.697 7.471 30.665 19.037 1.511 2.929 3.302 6.515 3.82 11.621 1.104 5.61 2.248 11.411 11.639 16.332 12.25 6.425 18.462 15.101 18.462 25.786 0 5.194-.936 9.262-2.755 12.053-7.74 11.717-4.053 25.032-2.846 29.391.65 2.368 1.035 4.325 1.198 6.105h-52.682v-15.063l21.696-16.737c3.279-2.53 3.888-7.24 1.357-10.52s-7.241-3.886-10.52-1.357l-12.534 9.669v-26.977c0-4.143-3.357-7.5-7.5-7.5s-7.5 3.357-7.5 7.5v26.977l-12.534-9.669c-3.278-2.53-7.989-1.923-10.52 1.357-2.53 3.279-1.922 7.989 1.357 10.52l21.696 16.737v15.063h-52.677c.208-2.171.716-4.265 1.215-6.087 1.21-4.363 4.889-17.643-2.833-29.398zm245.772 248.368h-51.938c-4.143 0-7.5 3.357-7.5 7.5s3.357 7.5 7.5 7.5h45.989v28.512h-132.203v-28.512h49.477c4.143 0 7.5-3.357 7.5-7.5s-3.357-7.5-7.5-7.5h-55.426c-47.726-20.132-83.714-58.414-101.332-104.934h346.767c-17.62 46.52-53.608 84.802-101.334 104.934zm136.492-188.118c0 5.367-4.367 9.734-9.734 9.734h-181.758c-4.143 0-7.5 3.357-7.5 7.5s3.357 7.5 7.5 7.5h168.207c-.594 14.926-2.949 29.49-6.911 43.45h-356.694c-3.962-13.96-6.316-28.524-6.91-43.45h167.697c4.143 0 7.5-3.357 7.5-7.5s-3.357-7.5-7.5-7.5h-181.248c-5.367 0-9.734-4.367-9.734-9.734 0-5.384 4.367-9.764 9.734-9.764h397.617c5.367 0 9.734 4.38 9.734 9.764zm-61.242-75.571c10.726 5.874 15.651 18.558 11.978 30.847-.167.561-.334 1.082-.492 1.575-1.711 5.354-2.648 10.01 2.034 17.091.288.432.563.863.828 1.294h-57.334c-3.181-12.302-10.793-24.026-20.843-31.663-.137-.104-.286-.218-.44-.335 3.867-2.509 8.97-3.721 15.234-3.63 9.186.182 12.579-3.879 15.575-7.483.325-.392.669-.805 1.038-1.233 8.373-9.687 21.702-12.342 32.422-6.463zm126.156-112.751-138.201-4.156c-3.858-6.386-5.217-12.676-4.139-19.338h142.341v23.494zm0-38.495h-325.442v-13.651l325.442-9.815z"/></g></svg>